<?xml version="1.0" encoding="UTF-8"?>
<!DOCTYPE svg PUBLIC "-//W3C//DTD SVG 1.1//EN" "http://www.w3.org/Graphics/SVG/1.1/DTD/svg11.dtd">
<!-- Creator: CorelDRAW 2020 (64 Bit) -->
<svg xmlns="http://www.w3.org/2000/svg" xml:space="preserve" width="210mm" height="297mm" version="1.1" style="shape-rendering:geometricPrecision; text-rendering:geometricPrecision; image-rendering:optimizeQuality; fill-rule:evenodd; clip-rule:evenodd"
viewBox="0 0 21000 29700"
 xmlns:xlink="http://www.w3.org/1999/xlink"
 xmlns:xodm="http://www.corel.com/coreldraw/odm/2003">
 <defs>
  <style type="text/css">
   <![CDATA[
    .fil0 {fill:#6A8157;fill-rule:nonzero}
    .fil1 {fill:#EEB506;fill-rule:nonzero}
   ]]>
  </style>
 </defs>
 <g id="Camada_x0020_1">
  <metadata id="CorelCorpID_0Corel-Layer"/>
  <g id="_2544926989936">
   <path class="fil0" d="M5738.05 17985.92l41.86 0 0 219.75c0,355.8 -156.96,491.84 -156.96,779.61 0,230.22 172.66,308.7 507.52,308.7 334.87,0 512.77,-78.48 512.77,-308.7 0,-287.77 -162.2,-423.81 -162.2,-779.61l0 -219.75 167.43 0c125.57,0 219.75,-99.41 219.75,-219.76 0,-120.34 -94.18,-219.75 -219.75,-219.75l-151.74 0c31.4,-303.47 125.58,-674.96 308.71,-674.96 130.8,0 198.82,78.48 230.22,361.02 47.09,392.42 1004.59,277.31 868.55,-120.34 -99.41,-303.47 -586.01,-507.53 -983.66,-507.53 -528.46,0 -1025.53,319.17 -1124.94,941.81l-57.56 0c-120.34,0 -219.75,99.41 -219.75,219.75 0,120.35 99.41,219.76 219.75,219.76zm2265.57 1308.06c575.55,0 1041.22,-387.18 1041.22,-873.78 0,-481.37 -465.67,-873.79 -1041.22,-873.79 -575.55,0 -1041.22,392.42 -1041.22,873.79 0,486.6 465.67,873.78 1041.22,873.78zm0 -1485.96c120.34,0 214.52,277.31 214.52,612.18 0,340.09 -94.18,612.17 -214.52,612.17 -115.11,0 -209.29,-272.08 -209.29,-612.17 0,-334.87 94.18,-612.18 209.29,-612.18zm2197.55 1485.96c575.55,0 1041.22,-387.18 1041.22,-873.78 0,-481.37 -465.67,-873.79 -1041.22,-873.79 -575.55,0 -1041.22,392.42 -1041.22,873.79 0,486.6 465.67,873.78 1041.22,873.78zm0 -1485.96c120.34,0 214.52,277.31 214.52,612.18 0,340.09 -94.18,612.17 -214.52,612.17 -115.11,0 -209.29,-272.08 -209.29,-612.17 0,-334.87 94.18,-612.18 209.29,-612.18zm2129.53 1485.96c188.36,0 366.26,-47.09 517.99,-130.8 73.26,94.18 230.22,130.8 455.21,130.8 334.87,0 512.76,-78.48 512.76,-308.7 0,-287.77 -162.2,-423.81 -162.2,-779.61l0 -507.53c0,-355.79 162.2,-491.83 162.2,-779.6 0,-230.22 -177.89,-313.94 -512.76,-313.94 -334.86,0 -512.76,83.72 -512.76,313.94 0,287.77 162.2,423.81 162.2,779.6l0 47.09c-167.43,-125.57 -387.19,-198.82 -622.64,-198.82 -538.92,0 -973.2,392.42 -973.2,873.79 0,486.6 434.28,873.78 973.2,873.78zm251.15 -1444.1c204.06,0 371.49,256.38 371.49,570.32 0,313.93 -167.43,570.31 -371.49,570.31 -198.83,0 -366.26,-256.38 -366.26,-570.31 0,-313.94 167.43,-570.32 366.26,-570.32z"/>
   <path class="fil0" d="M6526.76 21250.08c395.27,0 739.87,-187.5 902.04,-466.22 101.35,-177.36 -187.51,-228.04 -253.39,-116.55 -146.96,263.51 -820.95,50.67 -820.95,-511.83 0,-192.57 81.08,-344.6 172.3,-344.6 96.28,0 136.82,197.64 157.09,461.15 30.41,375.01 932.45,212.84 785.49,-167.23 -121.63,-329.4 -511.83,-547.3 -942.58,-547.3 -557.44,0 -1008.46,380.07 -1008.46,846.29 0,471.29 451.02,846.29 1008.46,846.29zm1799.01 0c273.65,0 461.15,-81.08 592.91,-182.43 76.01,116.56 207.77,182.43 354.73,182.43 197.64,0 451.02,-136.82 451.02,-324.32 0,-157.1 -187.5,-167.24 -187.5,-339.53l0 -304.06c0,-445.95 -527.03,-724.67 -942.58,-724.67 -364.87,0 -942.58,91.21 -871.63,405.41 35.47,162.16 268.58,243.24 440.88,187.5 207.78,-76.02 162.17,-339.53 369.94,-339.53 167.23,0 273.65,187.5 309.13,435.81 -435.82,-207.77 -1353.06,96.29 -1266.91,567.58 65.88,359.8 445.95,435.81 750.01,435.81zm532.1 -724.67l0 187.51c-182.44,162.16 -420.62,238.17 -466.22,5.06 -25.34,-162.16 126.69,-344.6 466.22,-192.57zm1023.66 425.68c0,222.98 172.3,298.99 496.63,298.99 324.33,0 496.63,-76.01 496.63,-298.99 0,-217.9 -157.1,-243.24 -157.1,-582.77 0,-101.36 30.41,-288.86 131.76,-288.86 157.1,0 364.87,309.13 587.85,309.13 177.36,0 354.73,-146.96 405.41,-405.41 40.54,-207.78 -70.95,-425.68 -278.72,-425.68 -298.99,0 -476.36,228.04 -694.27,263.51 0,-10.13 5.07,-25.33 5.07,-40.54 0,-486.49 -1028.73,-70.94 -1028.73,228.05 0,192.57 192.57,248.31 192.57,466.22 0,298.99 -157.1,278.72 -157.1,476.35zm3040.58 298.99c395.27,0 739.87,-187.5 902.04,-466.22 101.35,-177.36 -187.51,-228.04 -253.39,-116.55 -70.94,126.69 -283.78,146.96 -486.49,70.94 121.63,-253.38 770.28,-167.23 770.28,-552.37 0,-298.99 -415.54,-628.38 -932.44,-628.38 -557.44,0 -1008.46,380.07 -1008.46,846.29 0,471.29 451.02,846.29 1008.46,846.29zm192.57 -1337.85c0,162.16 -207.77,466.22 -233.11,704.4 -126.69,-101.35 -217.91,-258.45 -217.91,-461.15 0,-415.55 451.02,-430.75 451.02,-243.25z"/>
  </g>
  <g id="_2544926992576">
   <path class="fil1" d="M5837.93 22088.67c0,2.91 -0.64,5.24 -1.85,7.1 -1.21,1.85 -2.74,3.3 -4.67,4.35 -1.94,1.05 -4.2,1.77 -6.69,2.18 -2.5,0.4 -5.16,0.64 -7.9,0.64l-30.31 0c-5.23,0 -8.78,-1.37 -10.8,-4.11 -2.01,-2.74 -3.54,-6.21 -4.51,-10.4l-1.45 -20.47c-5.64,5.64 -11.85,10.96 -18.7,15.88 -6.85,5 -14.26,9.27 -22.16,12.89 -7.9,3.63 -16.28,6.45 -25.15,8.47 -8.86,2.01 -17.97,3.06 -27.32,3.06 -14.51,0 -28.45,-1.94 -41.91,-5.72 -13.46,-3.79 -26.11,-9.11 -37.88,-15.96 -11.76,-6.85 -22.4,-15.07 -31.99,-24.74 -9.59,-9.76 -17.82,-20.47 -24.67,-32.24 -6.85,-11.77 -12.17,-24.42 -15.95,-37.96 -3.79,-13.54 -5.73,-27.65 -5.73,-42.39 0,-14.67 1.94,-28.78 5.73,-42.32 3.78,-13.54 9.1,-26.19 15.95,-37.96 6.85,-11.76 15.08,-22.48 24.67,-32.07 9.59,-9.59 20.23,-17.82 31.99,-24.67 11.77,-6.85 24.42,-12.17 37.88,-15.95 13.46,-3.79 27.4,-5.73 41.91,-5.73 10.32,0 20.15,1.05 29.5,3.23 9.35,2.17 18.13,5.24 26.27,9.19 8.14,3.94 15.64,8.7 22.57,14.26 6.93,5.56 13.22,11.69 18.86,18.3l3.38 -26.04c0.81,-2.9 1.62,-5.32 2.34,-7.17 0.73,-1.85 1.61,-3.38 2.66,-4.51 1.05,-1.13 2.42,-1.86 4.03,-2.26 1.61,-0.4 3.63,-0.64 6.05,-0.64l24.25 0c2.58,0 5.16,0.24 7.74,0.72 2.58,0.48 5,1.21 7.09,2.26 2.1,1.05 3.71,2.58 4.92,4.43 1.21,1.85 1.85,4.11 1.85,6.85l0 279.5zm-251.45 -139.51c0,12.9 2.25,25.07 6.77,36.59 4.51,11.53 10.8,21.68 18.86,30.39 7.98,8.7 17.49,15.55 28.37,20.63 10.8,5.08 22.72,7.66 35.62,7.66 12.98,0 25.23,-2.58 36.51,-7.66 11.36,-5.08 21.28,-11.93 29.58,-20.63 8.38,-8.71 14.99,-18.86 19.82,-30.39 4.84,-11.52 7.26,-23.69 7.26,-36.59 0,-12.73 -2.42,-24.9 -7.26,-36.42 -4.83,-11.53 -11.44,-21.6 -19.82,-30.31 -8.3,-8.7 -18.22,-15.63 -29.58,-20.79 -11.28,-5.16 -23.53,-7.74 -36.51,-7.74 -12.9,0 -24.82,2.58 -35.62,7.74 -10.88,5.16 -20.39,12.09 -28.37,20.79 -8.06,8.71 -14.35,18.78 -18.86,30.31 -4.52,11.52 -6.77,23.69 -6.77,36.42zm314.56 -230.17c0,-4.2 1.13,-7.66 3.38,-10.4 2.26,-2.74 5.73,-4.11 10.48,-4.11l42.4 0c3.3,0 6.28,1.37 9.1,4.11 2.82,2.74 4.27,6.2 4.27,10.4l0 369.44c0,4.84 -1.37,8.47 -4.03,10.88 -2.66,2.42 -6.2,3.63 -10.8,3.63l-40.45 0c-5.24,0 -8.87,-1.21 -11.05,-3.63 -2.17,-2.41 -3.3,-6.04 -3.3,-10.88l0 -369.44zm137.33 91.63c0,-4.19 1.21,-7.74 3.63,-10.56 2.41,-2.82 5.96,-4.19 10.72,-4.19l40.21 0c1.78,0 3.63,0.33 5.48,1.05 1.86,0.73 3.55,1.77 5,3.14 1.45,1.37 2.66,2.99 3.63,4.76 0.96,1.77 1.45,3.71 1.45,5.8l0 277.81c0,9.67 -5.08,14.51 -15.32,14.51l-40.21 0c-9.75,0 -14.59,-4.84 -14.59,-14.51l0 -277.81zm0 -107.03c0,-9.75 4.76,-14.59 14.35,-14.59l40.7 0c4.59,0 8.22,1.21 10.96,3.63 2.74,2.42 4.11,6.05 4.11,10.96l0 36.11c0,3.71 -1.29,7.25 -3.87,10.56 -2.58,3.3 -6.21,4.99 -10.96,4.99l-40.7 0c-9.75,0 -14.59,-5.15 -14.59,-15.55l0 -36.11zm148.7 106.55c0,-5.48 2.1,-9.27 6.21,-11.28 4.11,-2.02 9.26,-2.99 15.39,-2.99l24.5 0c4.67,0 8.14,1.53 10.4,4.6 2.25,3.06 3.87,6.53 4.67,10.23l2.66 23.29c3.71,-5.56 7.98,-10.88 12.82,-15.95 4.83,-5.16 10.55,-9.67 17.24,-13.62 6.69,-3.87 14.51,-7.02 23.46,-9.35 8.94,-2.34 19.42,-3.55 31.35,-3.55 11.28,0 21.52,1.13 30.7,3.31 9.19,2.17 17.49,5.4 24.91,9.75 7.41,4.27 14.1,9.59 20.07,15.87 5.96,6.21 11.36,13.38 16.2,21.52 3.86,-7.57 9.1,-14.5 15.71,-20.87 6.61,-6.29 14.27,-11.69 22.89,-16.12 8.62,-4.43 18.13,-7.9 28.45,-10.32 10.32,-2.41 21.04,-3.62 32.16,-3.62 19.1,0 35.78,3.46 50.29,10.39 14.43,6.94 26.43,16.45 36.19,28.53 9.67,12.09 16.92,26.2 21.84,42.32 4.91,16.12 7.41,33.36 7.41,51.74l0 161.27c0,5.8 -1.37,10.15 -4.11,13.14 -2.74,2.98 -6.69,4.51 -11.93,4.51l-36.83 0c-6.53,0 -10.8,-1.21 -12.97,-3.63 -2.18,-2.41 -3.31,-6.69 -3.31,-12.81l0 -162.32c0,-8.54 -1.21,-16.84 -3.62,-24.9 -2.42,-7.98 -6.13,-15.16 -11.21,-21.36 -5.07,-6.21 -11.44,-11.2 -19.1,-14.99 -7.65,-3.79 -16.84,-5.64 -27.48,-5.64 -8.87,0 -17.09,1.53 -24.66,4.67 -7.58,3.14 -14.11,7.66 -19.59,13.54 -5.48,5.88 -9.75,12.98 -12.89,21.28 -3.15,8.3 -4.76,17.49 -4.76,27.64l0 161.11c0,11.61 -5.24,17.41 -15.71,17.41l-37 0c-6.44,0 -10.72,-1.21 -12.81,-3.63 -2.1,-2.41 -3.14,-6.69 -3.14,-12.81l0 -162.08c0,-8.38 -1.13,-16.52 -3.47,-24.5 -2.34,-7.98 -5.96,-15.07 -10.88,-21.36 -4.92,-6.28 -11.28,-11.36 -19.02,-15.23 -7.74,-3.87 -16.93,-5.8 -27.56,-5.8 -7.42,0 -14.83,1.37 -22.25,4.19 -7.41,2.82 -14.1,6.93 -20.15,12.25 -6.04,5.32 -11.04,11.85 -14.91,19.58 -3.87,7.66 -5.88,16.45 -6.04,26.28l0 168.84c0,4.2 -1.37,7.66 -4.11,10.32 -2.74,2.66 -6.21,3.95 -10.48,3.95l-39.98 0c-5.4,0 -9.26,-1.29 -11.76,-3.79 -2.5,-2.5 -3.79,-6.04 -3.79,-10.72l0 -278.29zm769.36 258.87c-14.18,12.17 -29.66,21.76 -46.5,28.77 -16.84,7.01 -35.38,10.48 -55.53,10.48 -21.76,0 -42.39,-4.11 -61.9,-12.33 -19.5,-8.22 -36.59,-19.51 -51.26,-33.85 -14.66,-14.43 -26.27,-31.19 -34.89,-50.45 -8.63,-19.35 -12.98,-40.06 -12.98,-62.38 0,-14.35 1.77,-28.21 5.32,-41.59 3.55,-13.38 8.62,-25.95 15.15,-37.64 6.53,-11.69 14.43,-22.4 23.78,-32.16 9.35,-9.75 19.82,-18.13 31.35,-25.06 11.52,-6.93 24.02,-12.25 37.48,-16.04 13.45,-3.79 27.64,-5.72 42.63,-5.72 12.25,0 24.34,1.45 36.27,4.43 11.93,2.98 23.29,7.25 34.01,12.73 10.72,5.48 20.71,12.09 30.06,19.91 9.35,7.82 17.57,16.68 24.66,26.52 9.67,13.54 16.77,28.12 21.28,43.76 4.51,15.64 6.77,32.96 6.77,51.98 0,4.68 -0.16,8.55 -0.56,11.69 -0.41,3.14 -1.45,5.72 -3.07,7.66 -1.61,1.93 -4.03,3.3 -7.25,4.19 -3.22,0.88 -7.74,1.37 -13.54,1.37l-214.46 0c2.09,11.52 6.12,21.84 12.01,30.7 5.88,8.95 12.81,16.45 20.87,22.65 8.06,6.21 16.84,10.88 26.35,14.02 9.51,3.15 19.02,4.68 28.53,4.68 7.26,0 14.27,-0.73 20.96,-2.18 6.69,-1.45 12.89,-3.38 18.7,-5.8 5.8,-2.42 11.2,-5.24 16.12,-8.38 4.91,-3.14 9.18,-6.37 12.89,-9.75 0,-0.16 0.08,-0.25 0.24,-0.25 1.94,-1.77 3.79,-3.22 5.56,-4.27 1.78,-1.04 3.63,-1.53 5.57,-1.53 1.45,0 3.14,0.49 4.99,1.45 1.86,0.97 3.63,2.58 5.4,4.84 4.35,5.32 8.06,9.75 11.12,13.3 3.07,3.54 5.57,6.52 7.5,8.94 1.93,2.42 3.38,4.52 4.27,6.29 0.89,1.77 1.29,3.63 1.29,5.4 0,4.51 -3.06,9.11 -9.19,13.62zm-107.35 -218.01c-9.51,0 -18.78,1.69 -27.81,5.16 -9.02,3.46 -17.24,8.14 -24.74,14.1 -7.49,5.97 -14.02,12.98 -19.58,20.96 -5.56,8.06 -9.67,16.68 -12.25,26.03l171.18 0c-2.58,-9.83 -6.45,-18.78 -11.69,-26.84 -5.23,-8.14 -11.6,-15.15 -19.02,-20.95 -7.41,-5.89 -15.87,-10.4 -25.38,-13.62 -9.51,-3.23 -19.75,-4.84 -30.71,-4.84zm210.6 -41.1c0,-2.26 0.97,-4.68 2.9,-7.26 1.94,-2.58 3.79,-4.19 5.56,-4.83 1.29,-1.13 3.31,-1.78 5.89,-1.86 2.57,-0.08 4.99,-0.08 7.25,-0.08l24.5 0c4.67,0 8.14,1.53 10.4,4.6 2.25,3.06 3.87,6.44 4.67,10.15l2.66 25.55c3.71,-5.48 8.22,-10.88 13.62,-16.28 5.48,-5.32 11.85,-10.07 19.26,-14.26 7.42,-4.28 15.88,-7.66 25.47,-10.24 9.51,-2.58 20.23,-3.87 32.16,-3.87 19.02,0 36.03,3.47 50.85,10.32 14.83,6.85 27.33,16.2 37.48,28.12 10.24,11.93 17.89,26.04 23.13,42.16 5.24,16.11 7.9,33.44 7.9,51.98l0 161.43c0,5.8 -1.37,10.16 -4.11,13.06 -2.74,2.9 -6.69,4.35 -11.93,4.35l-36.83 0c-6.53,0 -10.8,-1.21 -12.98,-3.63 -2.17,-2.41 -3.3,-6.69 -3.3,-12.81l0 -161.03c0,-8.54 -1.45,-16.93 -4.35,-25.07 -2.9,-8.14 -7.09,-15.39 -12.66,-21.84 -5.56,-6.44 -12.49,-11.6 -20.71,-15.47 -8.22,-3.87 -17.73,-5.8 -28.53,-5.8 -7.41,0 -15.07,1.45 -23.05,4.43 -7.98,2.98 -15.31,7.25 -21.92,12.73 -6.61,5.48 -12.09,12.09 -16.44,19.91 -4.35,7.82 -6.61,16.68 -6.77,26.52l0 156.67c0,3.07 -0.16,6.13 -0.49,9.19 -0.32,3.06 -1.04,5.8 -2.09,8.22 -1.05,2.42 -2.5,4.35 -4.43,5.8 -1.94,1.45 -4.52,2.18 -7.58,2.18l-39.98 0c-5.4,0 -9.26,-1.29 -11.76,-3.79 -2.5,-2.5 -3.79,-6.04 -3.79,-10.72l0 -278.53zm439.33 293.04c-12.74,-0.16 -24.67,-2.1 -35.87,-5.8 -11.2,-3.71 -20.95,-9.11 -29.26,-16.12 -8.3,-7.01 -14.91,-15.64 -19.74,-25.87 -4.84,-10.24 -7.25,-21.92 -7.25,-34.98l0 -39.98 -0.25 -123.39 -27.8 0c-4.68,0 -8.14,-1.04 -10.48,-3.14 -2.34,-2.1 -3.55,-5.56 -3.55,-10.32l0 -34.73c0,-4.6 1.21,-7.9 3.55,-9.84 2.34,-1.93 5.88,-2.9 10.56,-2.9l27.97 0c0,-8.54 0.08,-17.08 0.24,-25.55 0.16,-8.54 0.24,-17.08 0.24,-25.62 0,-3.23 0.97,-5.81 2.98,-7.66 2.02,-1.85 5.16,-3.47 9.27,-5 2.74,-0.97 6.04,-2.09 9.91,-3.46 3.87,-1.37 7.82,-2.74 11.93,-4.03 4.11,-1.29 8.06,-2.34 11.93,-3.23 3.87,-0.88 7.09,-1.37 9.67,-1.37 4.92,0 8.22,1.37 9.75,4.11 1.53,2.74 2.26,6.37 2.26,10.96 0,10.16 0,20.31 0,30.39 0,10.15 0,20.31 0,30.46l34.82 0c4.19,0 7.41,1.05 9.67,3.23 2.25,2.17 3.38,5.64 3.38,10.23l0 33.05c0,5.07 -1.13,8.78 -3.38,11.04 -2.26,2.25 -5.48,3.38 -9.67,3.38l-34.82 0c0,10.48 0,19.35 0,26.6 0,7.25 0,13.62 0,19.18 0,5.56 0,10.8 0,15.64 0,4.83 0,10.07 0,15.71 0,5.64 0,12.09 0,19.35 0,7.25 0,16.11 0,26.59 0,0.32 0,0.65 0,0.97 0,0.32 0,0.64 0,0.97l0 31.67c0,10.64 2.09,18.29 6.2,22.97 4.2,4.67 10.97,7.01 20.23,7.01 3.39,0 5.97,1.21 7.9,3.63 1.94,2.42 2.9,5.32 2.9,8.78l0 33.69c0,4.27 -1.12,7.5 -3.46,9.83 -2.34,2.34 -5.64,3.55 -9.83,3.55zm379.84 -14.27c0,2.91 -0.64,5.24 -1.85,7.1 -1.21,1.85 -2.74,3.3 -4.67,4.35 -1.94,1.05 -4.2,1.77 -6.69,2.18 -2.5,0.4 -5.16,0.64 -7.9,0.64l-30.31 0c-5.23,0 -8.78,-1.37 -10.8,-4.11 -2.01,-2.74 -3.54,-6.21 -4.51,-10.4l-1.45 -20.47c-5.64,5.64 -11.85,10.96 -18.7,15.88 -6.85,5 -14.26,9.27 -22.16,12.89 -7.9,3.63 -16.28,6.45 -25.15,8.47 -8.86,2.01 -17.97,3.06 -27.32,3.06 -14.51,0 -28.45,-1.94 -41.91,-5.72 -13.46,-3.79 -26.11,-9.11 -37.88,-15.96 -11.76,-6.85 -22.4,-15.07 -31.99,-24.74 -9.59,-9.76 -17.82,-20.47 -24.67,-32.24 -6.85,-11.77 -12.17,-24.42 -15.95,-37.96 -3.79,-13.54 -5.73,-27.65 -5.73,-42.39 0,-14.67 1.94,-28.78 5.73,-42.32 3.78,-13.54 9.1,-26.19 15.95,-37.96 6.85,-11.76 15.08,-22.48 24.67,-32.07 9.59,-9.59 20.23,-17.82 31.99,-24.67 11.77,-6.85 24.42,-12.17 37.88,-15.95 13.46,-3.79 27.4,-5.73 41.91,-5.73 10.32,0 20.15,1.05 29.5,3.23 9.35,2.17 18.13,5.24 26.27,9.19 8.14,3.94 15.64,8.7 22.57,14.26 6.93,5.56 13.22,11.69 18.86,18.3l3.38 -26.04c0.81,-2.9 1.62,-5.32 2.34,-7.17 0.73,-1.85 1.61,-3.38 2.66,-4.51 1.05,-1.13 2.42,-1.86 4.03,-2.26 1.61,-0.4 3.63,-0.64 6.05,-0.64l24.25 0c2.58,0 5.16,0.24 7.74,0.72 2.58,0.48 5,1.21 7.09,2.26 2.1,1.05 3.71,2.58 4.92,4.43 1.21,1.85 1.85,4.11 1.85,6.85l0 279.5zm-251.45 -139.51c0,12.9 2.25,25.07 6.77,36.59 4.51,11.53 10.8,21.68 18.86,30.39 7.98,8.7 17.49,15.55 28.37,20.63 10.8,5.08 22.72,7.66 35.62,7.66 12.98,0 25.23,-2.58 36.51,-7.66 11.36,-5.08 21.28,-11.93 29.58,-20.63 8.38,-8.71 14.99,-18.86 19.82,-30.39 4.84,-11.52 7.26,-23.69 7.26,-36.59 0,-12.73 -2.42,-24.9 -7.26,-36.42 -4.83,-11.53 -11.44,-21.6 -19.82,-30.31 -8.3,-8.7 -18.22,-15.63 -29.58,-20.79 -11.28,-5.16 -23.53,-7.74 -36.51,-7.74 -12.9,0 -24.82,2.58 -35.62,7.74 -10.88,5.16 -20.39,12.09 -28.37,20.79 -8.06,8.71 -14.35,18.78 -18.86,30.31 -4.52,11.52 -6.77,23.69 -6.77,36.42zm520.8 73.51c2.74,-1.78 5.08,-2.9 6.93,-3.31 1.86,-0.4 3.39,-0.56 4.68,-0.56 2.74,0.16 5.08,1.61 7.01,4.35l5.8 7.98 17.17 24.42c0.81,1.13 1.45,2.26 1.93,3.47 0.49,1.2 0.73,2.33 0.73,3.3 0,2.58 -0.89,4.84 -2.66,6.85 -1.77,2.02 -4.11,4.11 -7.01,6.21 -13.7,9.99 -28.45,18.05 -44.33,24.18 -15.88,6.12 -33.37,9.18 -52.39,9.18 -14.34,0 -28.2,-1.93 -41.66,-5.72 -13.46,-3.79 -26.12,-9.11 -37.8,-15.96 -11.69,-6.85 -22.33,-15.07 -32.08,-24.66 -9.67,-9.67 -18.05,-20.31 -25.06,-32.08 -7.1,-11.84 -12.5,-24.5 -16.28,-38.04 -3.79,-13.54 -5.73,-27.72 -5.73,-42.39 0,-14.67 1.94,-28.85 5.73,-42.39 3.78,-13.54 9.18,-26.2 16.28,-38.04 7.01,-11.77 15.39,-22.41 25.06,-32.08 9.75,-9.59 20.39,-17.81 32.08,-24.66 11.68,-6.85 24.34,-12.17 37.8,-15.96 13.46,-3.79 27.32,-5.72 41.66,-5.72 17.9,0 34.82,2.74 50.78,8.22 15.96,5.48 30.14,12.89 42.55,22.24l-0.24 -0.24c2.26,2.26 4.51,4.19 6.69,5.88 2.18,1.7 3.22,4.36 3.22,7.9 0,0.97 0,2.1 -0.08,3.39 -0.08,1.29 -0.56,2.5 -1.37,3.62l-19.82 30.23c-3.23,4.83 -6.77,7.25 -10.64,7.25 -2.74,0 -5.8,-1.37 -9.19,-4.11 -8.22,-6.93 -17.81,-12.57 -28.77,-16.92 -10.96,-4.36 -22.25,-6.53 -33.85,-6.53 -12.57,0 -24.34,2.66 -35.38,7.9 -11.04,5.23 -20.8,12.33 -29.18,21.27 -8.38,9.03 -14.99,19.43 -19.82,31.27 -4.84,11.93 -7.26,24.42 -7.26,37.48 0,13.38 2.42,26.03 7.26,37.8 4.83,11.85 11.44,22.08 19.74,30.79 8.3,8.7 17.97,15.63 29.1,20.71 11.12,5.08 22.97,7.66 35.54,7.66 13.7,0 25.55,-2.42 35.54,-7.18 9.99,-4.75 19.1,-10.39 27.32,-17zm-36.51 79.79c-3.54,2.41 -5.32,5.24 -5.32,8.46 0,2.58 1.29,5 3.79,7.17 2.5,2.18 5.56,4.43 9.19,6.77 3.63,2.34 7.58,4.84 11.93,7.5 4.35,2.66 8.38,5.72 12.01,9.19 3.62,3.46 6.69,7.49 9.18,11.92 2.5,4.44 3.71,9.59 3.71,15.64 0,5.8 -1.53,11.6 -4.67,17.41 -3.15,5.8 -7.74,11.44 -13.87,16.92 -6.12,5.48 -13.7,10.64 -22.88,15.4 -9.11,4.75 -19.83,9.02 -32.08,12.73l-1.21 0c-2.42,0 -4.76,-1.37 -7.09,-4.11 -2.34,-2.74 -4.52,-5.88 -6.45,-9.43 -1.93,-3.55 -3.47,-7.09 -4.67,-10.56 -1.21,-3.46 -1.86,-5.96 -1.86,-7.41 0,-2.58 0.89,-4.36 2.66,-5.32 27.56,-6.93 41.35,-15.48 41.35,-25.63 0,-3.63 -1.21,-6.77 -3.63,-9.51 -2.5,-2.74 -5.56,-5.32 -9.19,-7.82 -3.71,-2.5 -7.57,-5.08 -11.85,-7.58 -4.19,-2.49 -8.14,-5.15 -11.84,-7.97 -3.63,-2.83 -6.69,-6.05 -9.19,-9.68 -2.42,-3.62 -3.63,-7.81 -3.63,-12.49 0,-1.77 0.24,-3.54 0.73,-5.4 0.48,-1.85 1.85,-3.95 4.11,-6.2l50.77 0zm439.81 -13.79c0,2.91 -0.64,5.24 -1.85,7.1 -1.21,1.85 -2.74,3.3 -4.67,4.35 -1.94,1.05 -4.2,1.77 -6.69,2.18 -2.5,0.4 -5.16,0.64 -7.9,0.64l-30.31 0c-5.23,0 -8.78,-1.37 -10.8,-4.11 -2.01,-2.74 -3.54,-6.21 -4.51,-10.4l-1.45 -20.47c-5.64,5.64 -11.85,10.96 -18.7,15.88 -6.85,5 -14.26,9.27 -22.16,12.89 -7.9,3.63 -16.28,6.45 -25.15,8.47 -8.86,2.01 -17.97,3.06 -27.32,3.06 -14.51,0 -28.45,-1.94 -41.91,-5.72 -13.46,-3.79 -26.11,-9.11 -37.88,-15.96 -11.76,-6.85 -22.4,-15.07 -31.99,-24.74 -9.59,-9.76 -17.82,-20.47 -24.67,-32.24 -6.85,-11.77 -12.17,-24.42 -15.95,-37.96 -3.79,-13.54 -5.73,-27.65 -5.73,-42.39 0,-14.67 1.94,-28.78 5.73,-42.32 3.78,-13.54 9.1,-26.19 15.95,-37.96 6.85,-11.76 15.08,-22.48 24.67,-32.07 9.59,-9.59 20.23,-17.82 31.99,-24.67 11.77,-6.85 24.42,-12.17 37.88,-15.95 13.46,-3.79 27.4,-5.73 41.91,-5.73 10.32,0 20.15,1.05 29.5,3.23 9.35,2.17 18.13,5.24 26.27,9.19 8.14,3.94 15.64,8.7 22.57,14.26 6.93,5.56 13.22,11.69 18.86,18.3l3.38 -26.04c0.81,-2.9 1.62,-5.32 2.34,-7.17 0.73,-1.85 1.61,-3.38 2.66,-4.51 1.05,-1.13 2.42,-1.86 4.03,-2.26 1.61,-0.4 3.63,-0.64 6.05,-0.64l24.25 0c2.58,0 5.16,0.24 7.74,0.72 2.58,0.48 5,1.21 7.09,2.26 2.1,1.05 3.71,2.58 4.92,4.43 1.21,1.85 1.85,4.11 1.85,6.85l0 279.5zm-251.45 -139.51c0,12.9 2.25,25.07 6.77,36.59 4.51,11.53 10.8,21.68 18.86,30.39 7.98,8.7 17.49,15.55 28.37,20.63 10.8,5.08 22.72,7.66 35.62,7.66 12.98,0 25.23,-2.58 36.51,-7.66 11.36,-5.08 21.28,-11.93 29.58,-20.63 8.38,-8.71 14.99,-18.86 19.82,-30.39 4.84,-11.52 7.26,-23.69 7.26,-36.59 0,-12.73 -2.42,-24.9 -7.26,-36.42 -4.83,-11.53 -11.44,-21.6 -19.82,-30.31 -8.3,-8.7 -18.22,-15.63 -29.58,-20.79 -11.28,-5.16 -23.53,-7.74 -36.51,-7.74 -12.9,0 -24.82,2.58 -35.62,7.74 -10.88,5.16 -20.39,12.09 -28.37,20.79 -8.06,8.71 -14.35,18.78 -18.86,30.31 -4.52,11.52 -6.77,23.69 -6.77,36.42zm13.78 -232.35c5.96,-9.19 13.54,-16.44 22.73,-21.76 9.18,-5.32 19.26,-7.98 30.22,-7.98 4.67,0.32 9.59,1.21 14.67,2.74 5.08,1.53 10.56,4.11 16.52,7.66l14.75 8.94c4.03,2.9 8.3,4.35 12.81,4.35 4.03,0 7.5,-1.04 10.32,-3.06 2.82,-2.09 5.32,-4.35 7.5,-6.85 2.17,-2.5 4.03,-4.75 5.64,-6.85 1.61,-2.01 3.14,-3.06 4.59,-3.06 1.61,0 3.87,1.13 6.77,3.3 2.9,2.18 5.8,4.68 8.71,7.42 2.9,2.74 5.48,5.48 7.65,8.14 2.18,2.74 3.23,4.51 3.23,5.48 0,0.64 -0.25,1.45 -0.81,2.34 -0.56,0.88 -1.21,1.93 -1.93,3.06 -0.73,1.13 -1.54,2.25 -2.42,3.3 -0.89,1.05 -1.69,2.02 -2.34,3.06 -6.29,8.39 -13.7,14.67 -22.24,18.7 -8.55,4.11 -17.73,6.13 -27.57,6.13 -5.48,0 -11.04,-1.05 -16.68,-3.06 -5.64,-2.02 -11.04,-4.68 -16.2,-8.06l-12.81 -8.22c-2.1,-1.29 -4.03,-2.26 -5.89,-2.91 -1.85,-0.64 -4.19,-1.04 -6.93,-1.2 -4.19,0 -7.41,0.8 -9.67,2.41 -2.26,1.61 -4.59,3.63 -7.01,6.05 -1.78,2.25 -3.63,4.51 -5.56,6.85 -1.94,2.34 -4.03,3.71 -6.29,4.03 -1.13,0 -3.14,-1.05 -6.04,-3.06 -2.91,-2.02 -5.81,-4.28 -8.79,-6.86 -2.98,-2.57 -5.64,-5.15 -7.98,-7.65 -2.34,-2.5 -3.54,-4.27 -3.54,-5.4 0,-0.49 0.24,-1.29 0.64,-2.34 0.4,-1.05 1.69,-2.9 3.95,-5.64zm289.66 233.16c0,-14.67 1.85,-28.77 5.64,-42.39 3.79,-13.7 9.19,-26.36 16.12,-38.12 6.93,-11.77 15.23,-22.49 24.9,-32.08 9.59,-9.59 20.31,-17.81 32.08,-24.66 11.77,-6.85 24.42,-12.17 37.8,-15.96 13.46,-3.79 27.56,-5.72 42.23,-5.72 14.43,0 28.45,1.93 41.99,5.72 13.54,3.79 26.11,9.11 37.8,15.96 11.69,6.85 22.4,15.07 32,24.66 9.67,9.59 17.97,20.31 24.9,32.08 6.93,11.76 12.33,24.42 16.12,38.12 3.79,13.62 5.64,27.72 5.64,42.39 0,14.75 -1.85,28.85 -5.64,42.39 -3.79,13.54 -9.19,26.2 -16.12,37.88 -6.93,11.69 -15.23,22.33 -24.9,32.08 -9.6,9.67 -20.31,17.89 -32,24.74 -11.69,6.85 -24.26,12.17 -37.8,15.96 -13.54,3.79 -27.56,5.72 -41.99,5.72 -14.67,0 -28.77,-1.93 -42.23,-5.72 -13.38,-3.79 -26.03,-9.11 -37.8,-15.96 -11.77,-6.85 -22.49,-15.07 -32.08,-24.74 -9.67,-9.75 -17.97,-20.39 -24.9,-32.08 -6.93,-11.68 -12.33,-24.34 -16.12,-37.88 -3.79,-13.54 -5.64,-27.64 -5.64,-42.39zm68.18 -0.08c0,12.9 2.26,25.07 6.77,36.59 4.51,11.53 10.8,21.6 18.86,30.14 7.98,8.55 17.57,15.32 28.61,20.31 10.96,5 23.05,7.5 36.11,7.5 12.65,0 24.5,-2.5 35.3,-7.5 10.88,-4.99 20.31,-11.76 28.13,-20.31 7.89,-8.54 14.1,-18.61 18.53,-30.14 4.44,-11.52 6.61,-23.69 6.61,-36.59 0,-12.73 -2.17,-24.9 -6.61,-36.51 -4.43,-11.61 -10.64,-21.84 -18.53,-30.63 -7.82,-8.78 -17.25,-15.79 -28.13,-21.03 -10.8,-5.24 -22.65,-7.82 -35.3,-7.82 -13.06,0 -25.15,2.58 -36.11,7.82 -11.04,5.24 -20.63,12.25 -28.61,21.03 -8.06,8.79 -14.35,19.02 -18.86,30.63 -4.51,11.61 -6.77,23.78 -6.77,36.51z"/>
   <path class="fil1" d="M9127.68 21809.9c0,-2.26 0.97,-4.68 2.9,-7.26 1.94,-2.58 3.79,-4.19 5.56,-4.83 1.29,-1.13 3.31,-1.78 5.89,-1.86 2.57,-0.08 4.99,-0.08 7.25,-0.08l24.5 0c4.67,0 8.14,1.53 10.4,4.6 2.25,3.06 3.87,6.44 4.67,10.15l2.66 25.55c3.71,-5.48 8.22,-10.88 13.62,-16.28 5.48,-5.32 11.85,-10.07 19.26,-14.26 7.42,-4.28 15.88,-7.66 25.47,-10.24 9.51,-2.58 20.23,-3.87 32.16,-3.87 19.02,0 36.03,3.47 50.85,10.32 14.83,6.85 27.33,16.2 37.48,28.12 10.24,11.93 17.89,26.04 23.13,42.16 5.24,16.11 7.9,33.44 7.9,51.98l0 161.43c0,5.8 -1.37,10.16 -4.11,13.06 -2.74,2.9 -6.69,4.35 -11.93,4.35l-36.83 0c-6.53,0 -10.8,-1.21 -12.98,-3.63 -2.17,-2.41 -3.3,-6.69 -3.3,-12.81l0 -161.03c0,-8.54 -1.45,-16.93 -4.35,-25.07 -2.9,-8.14 -7.09,-15.39 -12.66,-21.84 -5.56,-6.44 -12.49,-11.6 -20.71,-15.47 -8.22,-3.87 -17.73,-5.8 -28.53,-5.8 -7.41,0 -15.07,1.45 -23.05,4.43 -7.98,2.98 -15.31,7.25 -21.92,12.73 -6.61,5.48 -12.09,12.09 -16.44,19.91 -4.35,7.82 -6.61,16.68 -6.77,26.52l0 156.67c0,3.07 -0.16,6.13 -0.49,9.19 -0.32,3.06 -1.04,5.8 -2.09,8.22 -1.05,2.42 -2.5,4.35 -4.43,5.8 -1.94,1.45 -4.52,2.18 -7.58,2.18l-39.98 0c-5.4,0 -9.26,-1.29 -11.76,-3.79 -2.5,-2.5 -3.79,-6.04 -3.79,-10.72l0 -278.53zm636.86 278.77c0,2.91 -0.64,5.24 -1.85,7.1 -1.21,1.85 -2.74,3.3 -4.67,4.35 -1.94,1.05 -4.2,1.77 -6.69,2.18 -2.5,0.4 -5.16,0.64 -7.9,0.64l-30.31 0c-5.23,0 -8.78,-1.37 -10.8,-4.11 -2.01,-2.74 -3.54,-6.21 -4.51,-10.4l-1.45 -20.47c-5.64,5.64 -11.85,10.96 -18.7,15.88 -6.85,5 -14.26,9.27 -22.16,12.89 -7.9,3.63 -16.28,6.45 -25.15,8.47 -8.86,2.01 -17.97,3.06 -27.32,3.06 -14.51,0 -28.45,-1.94 -41.91,-5.72 -13.46,-3.79 -26.11,-9.11 -37.88,-15.96 -11.76,-6.85 -22.4,-15.07 -31.99,-24.74 -9.59,-9.76 -17.82,-20.47 -24.67,-32.24 -6.85,-11.77 -12.17,-24.42 -15.95,-37.96 -3.79,-13.54 -5.73,-27.65 -5.73,-42.39 0,-14.67 1.94,-28.78 5.73,-42.32 3.78,-13.54 9.1,-26.19 15.95,-37.96 6.85,-11.76 15.08,-22.48 24.67,-32.07 9.59,-9.59 20.23,-17.82 31.99,-24.67 11.77,-6.85 24.42,-12.17 37.88,-15.95 13.46,-3.79 27.4,-5.73 41.91,-5.73 10.32,0 20.15,1.05 29.5,3.23 9.35,2.17 18.13,5.24 26.27,9.19 8.14,3.94 15.64,8.7 22.57,14.26 6.93,5.56 13.22,11.69 18.86,18.3l3.38 -26.04c0.81,-2.9 1.62,-5.32 2.34,-7.17 0.73,-1.85 1.61,-3.38 2.66,-4.51 1.05,-1.13 2.42,-1.86 4.03,-2.26 1.61,-0.4 3.63,-0.64 6.05,-0.64l24.25 0c2.58,0 5.16,0.24 7.74,0.72 2.58,0.48 5,1.21 7.09,2.26 2.1,1.05 3.71,2.58 4.92,4.43 1.21,1.85 1.85,4.11 1.85,6.85l0 279.5zm-251.45 -139.51c0,12.9 2.25,25.07 6.77,36.59 4.51,11.53 10.8,21.68 18.86,30.39 7.98,8.7 17.49,15.55 28.37,20.63 10.8,5.08 22.72,7.66 35.62,7.66 12.98,0 25.23,-2.58 36.51,-7.66 11.36,-5.08 21.28,-11.93 29.58,-20.63 8.38,-8.71 14.99,-18.86 19.82,-30.39 4.84,-11.52 7.26,-23.69 7.26,-36.59 0,-12.73 -2.42,-24.9 -7.26,-36.42 -4.83,-11.53 -11.44,-21.6 -19.82,-30.31 -8.3,-8.7 -18.22,-15.63 -29.58,-20.79 -11.28,-5.16 -23.53,-7.74 -36.51,-7.74 -12.9,0 -24.82,2.58 -35.62,7.74 -10.88,5.16 -20.39,12.09 -28.37,20.79 -8.06,8.71 -14.35,18.78 -18.86,30.31 -4.52,11.52 -6.77,23.69 -6.77,36.42zm425.06 153.78c-12.74,-0.16 -24.67,-2.1 -35.87,-5.8 -11.2,-3.71 -20.95,-9.11 -29.26,-16.12 -8.3,-7.01 -14.91,-15.64 -19.74,-25.87 -4.84,-10.24 -7.25,-21.92 -7.25,-34.98l0 -39.98 -0.25 -123.39 -27.8 0c-4.68,0 -8.14,-1.04 -10.48,-3.14 -2.34,-2.1 -3.55,-5.56 -3.55,-10.32l0 -34.73c0,-4.6 1.21,-7.9 3.55,-9.84 2.34,-1.93 5.88,-2.9 10.56,-2.9l27.97 0c0,-8.54 0.08,-17.08 0.24,-25.55 0.16,-8.54 0.24,-17.08 0.24,-25.62 0,-3.23 0.97,-5.81 2.98,-7.66 2.02,-1.85 5.16,-3.47 9.27,-5 2.74,-0.97 6.04,-2.09 9.91,-3.46 3.87,-1.37 7.82,-2.74 11.93,-4.03 4.11,-1.29 8.06,-2.34 11.93,-3.23 3.87,-0.88 7.09,-1.37 9.67,-1.37 4.92,0 8.22,1.37 9.75,4.11 1.53,2.74 2.26,6.37 2.26,10.96 0,10.16 0,20.31 0,30.39 0,10.15 0,20.31 0,30.46l34.82 0c4.19,0 7.41,1.05 9.67,3.23 2.25,2.17 3.38,5.64 3.38,10.23l0 33.05c0,5.07 -1.13,8.78 -3.38,11.04 -2.26,2.25 -5.48,3.38 -9.67,3.38l-34.82 0c0,10.48 0,19.35 0,26.6 0,7.25 0,13.62 0,19.18 0,5.56 0,10.8 0,15.64 0,4.83 0,10.07 0,15.71 0,5.64 0,12.09 0,19.35 0,7.25 0,16.11 0,26.59 0,0.32 0,0.65 0,0.97 0,0.32 0,0.64 0,0.97l0 31.67c0,10.64 2.09,18.29 6.2,22.97 4.2,4.67 10.97,7.01 20.23,7.01 3.39,0 5.97,1.21 7.9,3.63 1.94,2.42 2.9,5.32 2.9,8.78l0 33.69c0,4.27 -1.12,7.5 -3.46,9.83 -2.34,2.34 -5.64,3.55 -9.83,3.55zm339.22 -9.19c0,1.78 -0.64,3.15 -1.85,4.11 -1.21,0.97 -2.66,1.61 -4.43,2.02 -1.86,0.4 -3.79,0.64 -5.89,0.72 -2.09,0.08 -3.94,0.16 -5.56,0.16l-24.5 0c-4.67,0 -8.14,-1.53 -10.39,-4.51 -2.26,-2.98 -3.87,-6.37 -4.68,-10.23l-2.66 -22.01c-3.54,5.32 -7.98,10.4 -13.3,15.32 -5.32,4.91 -11.6,9.26 -18.86,13.05 -7.25,3.79 -15.63,6.85 -25.06,9.11 -9.43,2.26 -20.15,3.38 -32.08,3.38 -19.18,0 -36.18,-3.46 -50.85,-10.31 -14.67,-6.85 -27,-16.2 -36.92,-28.05 -9.91,-11.85 -17.48,-25.87 -22.64,-41.99 -5.16,-16.12 -7.74,-33.45 -7.74,-51.98l0 -161.43c0,-5.81 1.37,-10.16 4.11,-13.14 2.74,-2.98 6.69,-4.51 11.93,-4.51l36.83 0c6.53,0 10.8,1.2 12.98,3.62 2.17,2.42 3.3,6.69 3.3,12.82l0 161.43c0,8.54 1.37,16.92 4.03,25.06 2.66,8.14 6.61,15.48 11.93,21.93 5.32,6.44 12.01,11.6 19.99,15.47 7.97,3.87 17.24,5.8 27.88,5.8 7.42,0 15.15,-1.29 23.21,-3.87 8.06,-2.58 15.4,-6.52 22.01,-11.84 6.6,-5.32 12.08,-12.01 16.44,-19.99 4.35,-7.98 6.53,-17.33 6.53,-27.97l0 -157.08c0,-2.9 0.16,-5.8 0.48,-8.78 0.32,-2.98 1.05,-5.72 2.09,-8.22 1.05,-2.5 2.5,-4.52 4.36,-6.05 1.85,-1.53 4.35,-2.33 7.65,-2.33l39.98 0c5.4,0 9.27,1.28 11.76,3.86 2.5,2.58 3.79,6.21 3.79,10.88l0 278.3c0,3.22 -1.29,5.64 -3.87,7.25zm70.85 -283.61c0,-4.68 1.61,-8.22 4.75,-10.64 3.14,-2.42 6.61,-3.63 10.32,-3.63l30.95 0c4.03,0 7.17,1.21 9.26,3.63 2.1,2.42 3.71,5.4 4.84,8.95 1.13,3.54 1.93,7.33 2.42,11.44 0.48,4.11 1.05,7.9 1.77,11.28 3.55,-4.99 7.58,-9.91 12.01,-14.66 4.43,-4.76 9.43,-8.95 15.07,-12.66 5.64,-3.71 12.01,-6.69 19.1,-8.94 7.09,-2.26 15.15,-3.39 24.18,-3.39 8.06,0 15.31,0.48 21.76,1.53 6.45,1.05 12.65,2.66 18.54,4.84 5.88,2.17 11.6,4.99 17.25,8.46 5.64,3.47 11.68,7.58 18.13,12.25 2.74,1.77 5.16,3.79 7.17,6.05 2.02,2.25 2.98,4.91 2.98,7.97 -0.16,1.29 -0.4,2.66 -0.72,4.11 -0.32,1.46 -0.97,2.91 -1.94,4.36l-19.82 31.43c-1.29,1.61 -2.74,2.74 -4.43,3.46 -1.7,0.73 -3.23,1.13 -4.52,1.13 -2.58,0 -5.08,-0.64 -7.49,-1.93 -5.32,-2.9 -10.16,-5.64 -14.51,-8.22 -4.35,-2.58 -8.62,-4.84 -12.81,-6.69 -4.2,-1.86 -8.47,-3.31 -12.9,-4.35 -4.43,-1.05 -9.43,-1.53 -14.91,-1.53 -14.35,0 -26.44,4.59 -36.35,13.78 -9.91,9.18 -16.6,21.84 -19.99,37.96l0 182.3c0,9.67 -4.99,14.51 -15.07,14.51l-39.97 0c-10.08,0 -15.07,-4.84 -15.07,-14.51l0 -278.29zm572.54 278.53c0,2.91 -0.64,5.24 -1.85,7.1 -1.21,1.85 -2.74,3.3 -4.67,4.35 -1.94,1.05 -4.2,1.77 -6.69,2.18 -2.5,0.4 -5.16,0.64 -7.9,0.64l-30.31 0c-5.23,0 -8.78,-1.37 -10.8,-4.11 -2.01,-2.74 -3.54,-6.21 -4.51,-10.4l-1.45 -20.47c-5.64,5.64 -11.85,10.96 -18.7,15.88 -6.85,5 -14.26,9.27 -22.16,12.89 -7.9,3.63 -16.28,6.45 -25.15,8.47 -8.86,2.01 -17.97,3.06 -27.32,3.06 -14.51,0 -28.45,-1.94 -41.91,-5.72 -13.46,-3.79 -26.11,-9.11 -37.88,-15.96 -11.76,-6.85 -22.4,-15.07 -31.99,-24.74 -9.59,-9.76 -17.82,-20.47 -24.67,-32.24 -6.85,-11.77 -12.17,-24.42 -15.95,-37.96 -3.79,-13.54 -5.73,-27.65 -5.73,-42.39 0,-14.67 1.94,-28.78 5.73,-42.32 3.78,-13.54 9.1,-26.19 15.95,-37.96 6.85,-11.76 15.08,-22.48 24.67,-32.07 9.59,-9.59 20.23,-17.82 31.99,-24.67 11.77,-6.85 24.42,-12.17 37.88,-15.95 13.46,-3.79 27.4,-5.73 41.91,-5.73 10.32,0 20.15,1.05 29.5,3.23 9.35,2.17 18.13,5.24 26.27,9.19 8.14,3.94 15.64,8.7 22.57,14.26 6.93,5.56 13.22,11.69 18.86,18.3l3.38 -26.04c0.81,-2.9 1.62,-5.32 2.34,-7.17 0.73,-1.85 1.61,-3.38 2.66,-4.51 1.05,-1.13 2.42,-1.86 4.03,-2.26 1.61,-0.4 3.63,-0.64 6.05,-0.64l24.25 0c2.58,0 5.16,0.24 7.74,0.72 2.58,0.48 5,1.21 7.09,2.26 2.1,1.05 3.71,2.58 4.92,4.43 1.21,1.85 1.85,4.11 1.85,6.85l0 279.5zm-251.45 -139.51c0,12.9 2.25,25.07 6.77,36.59 4.51,11.53 10.8,21.68 18.86,30.39 7.98,8.7 17.49,15.55 28.37,20.63 10.8,5.08 22.72,7.66 35.62,7.66 12.98,0 25.23,-2.58 36.51,-7.66 11.36,-5.08 21.28,-11.93 29.58,-20.63 8.38,-8.71 14.99,-18.86 19.82,-30.39 4.84,-11.52 7.26,-23.69 7.26,-36.59 0,-12.73 -2.42,-24.9 -7.26,-36.42 -4.83,-11.53 -11.44,-21.6 -19.82,-30.31 -8.3,-8.7 -18.22,-15.63 -29.58,-20.79 -11.28,-5.16 -23.53,-7.74 -36.51,-7.74 -12.9,0 -24.82,2.58 -35.62,7.74 -10.88,5.16 -20.39,12.09 -28.37,20.79 -8.06,8.71 -14.35,18.78 -18.86,30.31 -4.52,11.52 -6.77,23.69 -6.77,36.42zm314.56 -230.17c0,-4.2 1.13,-7.66 3.38,-10.4 2.26,-2.74 5.73,-4.11 10.48,-4.11l42.4 0c3.3,0 6.28,1.37 9.1,4.11 2.82,2.74 4.27,6.2 4.27,10.4l0 369.44c0,4.84 -1.37,8.47 -4.03,10.88 -2.66,2.42 -6.2,3.63 -10.8,3.63l-40.45 0c-5.24,0 -8.87,-1.21 -11.05,-3.63 -2.17,-2.41 -3.3,-6.04 -3.3,-10.88l0 -369.44zm298.12 78.33c2.17,-1.04 4.27,-1.77 6.45,-2.01 2.17,-0.24 4.35,-0.4 6.44,-0.4l24.5 0c4.84,0 8.31,1.37 10.32,4.11 2.01,2.74 3.47,6.28 4.27,10.47l5.08 29.66c5.64,-6.45 11.6,-12.57 17.97,-18.37 6.37,-5.81 13.46,-10.96 21.2,-15.48 7.65,-4.51 16.2,-8.14 25.55,-10.8 9.35,-2.66 19.82,-3.95 31.43,-3.95 14.67,0 28.61,1.94 41.91,5.73 13.3,3.78 25.71,9.1 37.15,15.95 11.53,6.85 22,15.08 31.35,24.67 9.27,9.59 17.33,20.31 24.02,32.07 6.69,11.77 11.85,24.42 15.48,37.96 3.62,13.54 5.4,27.65 5.4,42.32 0,14.74 -1.78,28.85 -5.4,42.39 -3.63,13.54 -8.79,26.19 -15.48,37.96 -6.69,11.77 -14.75,22.48 -24.1,32.24 -9.35,9.67 -19.74,17.89 -31.27,24.74 -11.52,6.85 -24.01,12.17 -37.39,15.96 -13.38,3.78 -27.33,5.72 -41.83,5.72 -10.48,0 -20.07,-1.13 -28.86,-3.39 -8.78,-2.25 -16.92,-5.4 -24.42,-9.34 -7.49,-3.95 -14.42,-8.55 -20.79,-13.87 -6.37,-5.24 -12.41,-10.88 -18.05,-16.84l0 117.91c0,3.87 -1.21,7.17 -3.63,9.91 -2.42,2.74 -6.04,4.11 -10.88,4.11l-40.14 0c-3.38,0 -6.69,-1.29 -9.99,-3.79 -3.3,-2.49 -5,-5.88 -5,-10.23l0 -373.32c0,-3.38 0.81,-6.04 2.34,-7.98 1.53,-1.93 3.63,-3.3 6.37,-4.11zm239.36 151.84c0,-12.73 -2.25,-24.9 -6.85,-36.42 -4.59,-11.53 -10.88,-21.6 -18.85,-30.23 -7.9,-8.62 -17.41,-15.47 -28.29,-20.55 -10.96,-5.08 -22.73,-7.57 -35.47,-7.57 -12.73,0 -24.66,2.49 -35.78,7.49 -11.2,5 -21.04,11.69 -29.42,20.15 -8.46,8.46 -15.23,18.37 -20.31,29.66 -5.07,11.28 -7.65,23.21 -7.81,35.78l0 1.69c0,12.9 2.41,25.15 7.33,36.76 4.92,11.6 11.61,21.76 20.07,30.46 8.38,8.71 18.29,15.64 29.66,20.79 11.28,5.16 23.37,7.74 36.26,7.74 12.74,0 24.51,-2.58 35.47,-7.74 10.88,-5.15 20.39,-12.08 28.29,-20.79 7.97,-8.7 14.26,-18.86 18.85,-30.46 4.6,-11.61 6.85,-23.86 6.85,-36.76zm432.55 139.51c0,2.91 -0.64,5.24 -1.85,7.1 -1.21,1.85 -2.74,3.3 -4.67,4.35 -1.94,1.05 -4.2,1.77 -6.69,2.18 -2.5,0.4 -5.16,0.64 -7.9,0.64l-30.31 0c-5.23,0 -8.78,-1.37 -10.8,-4.11 -2.01,-2.74 -3.54,-6.21 -4.51,-10.4l-1.45 -20.47c-5.64,5.64 -11.85,10.96 -18.7,15.88 -6.85,5 -14.26,9.27 -22.16,12.89 -7.9,3.63 -16.28,6.45 -25.15,8.47 -8.86,2.01 -17.97,3.06 -27.32,3.06 -14.51,0 -28.45,-1.94 -41.91,-5.72 -13.46,-3.79 -26.11,-9.11 -37.88,-15.96 -11.76,-6.85 -22.4,-15.07 -31.99,-24.74 -9.59,-9.76 -17.82,-20.47 -24.67,-32.24 -6.85,-11.77 -12.17,-24.42 -15.95,-37.96 -3.79,-13.54 -5.73,-27.65 -5.73,-42.39 0,-14.67 1.94,-28.78 5.73,-42.32 3.78,-13.54 9.1,-26.19 15.95,-37.96 6.85,-11.76 15.08,-22.48 24.67,-32.07 9.59,-9.59 20.23,-17.82 31.99,-24.67 11.77,-6.85 24.42,-12.17 37.88,-15.95 13.46,-3.79 27.4,-5.73 41.91,-5.73 10.32,0 20.15,1.05 29.5,3.23 9.35,2.17 18.13,5.24 26.27,9.19 8.14,3.94 15.64,8.7 22.57,14.26 6.93,5.56 13.22,11.69 18.86,18.3l3.38 -26.04c0.81,-2.9 1.62,-5.32 2.34,-7.17 0.73,-1.85 1.61,-3.38 2.66,-4.51 1.05,-1.13 2.42,-1.86 4.03,-2.26 1.61,-0.4 3.63,-0.64 6.05,-0.64l24.25 0c2.58,0 5.16,0.24 7.74,0.72 2.58,0.48 5,1.21 7.09,2.26 2.1,1.05 3.71,2.58 4.92,4.43 1.21,1.85 1.85,4.11 1.85,6.85l0 279.5zm-251.45 -139.51c0,12.9 2.25,25.07 6.77,36.59 4.51,11.53 10.8,21.68 18.86,30.39 7.98,8.7 17.49,15.55 28.37,20.63 10.8,5.08 22.72,7.66 35.62,7.66 12.98,0 25.23,-2.58 36.51,-7.66 11.36,-5.08 21.28,-11.93 29.58,-20.63 8.38,-8.71 14.99,-18.86 19.82,-30.39 4.84,-11.52 7.26,-23.69 7.26,-36.59 0,-12.73 -2.42,-24.9 -7.26,-36.42 -4.83,-11.53 -11.44,-21.6 -19.82,-30.31 -8.3,-8.7 -18.22,-15.63 -29.58,-20.79 -11.28,-5.16 -23.53,-7.74 -36.51,-7.74 -12.9,0 -24.82,2.58 -35.62,7.74 -10.88,5.16 -20.39,12.09 -28.37,20.79 -8.06,8.71 -14.35,18.78 -18.86,30.31 -4.52,11.52 -6.77,23.69 -6.77,36.42zm314.08 -139.02c0,-4.68 1.61,-8.22 4.75,-10.64 3.14,-2.42 6.61,-3.63 10.32,-3.63l30.95 0c4.03,0 7.17,1.21 9.26,3.63 2.1,2.42 3.71,5.4 4.84,8.95 1.13,3.54 1.93,7.33 2.42,11.44 0.48,4.11 1.05,7.9 1.77,11.28 3.55,-4.99 7.58,-9.91 12.01,-14.66 4.43,-4.76 9.43,-8.95 15.07,-12.66 5.64,-3.71 12.01,-6.69 19.1,-8.94 7.09,-2.26 15.15,-3.39 24.18,-3.39 8.06,0 15.31,0.48 21.76,1.53 6.45,1.05 12.65,2.66 18.54,4.84 5.88,2.17 11.6,4.99 17.25,8.46 5.64,3.47 11.68,7.58 18.13,12.25 2.74,1.77 5.16,3.79 7.17,6.05 2.02,2.25 2.98,4.91 2.98,7.97 -0.16,1.29 -0.4,2.66 -0.72,4.11 -0.32,1.46 -0.97,2.91 -1.94,4.36l-19.82 31.43c-1.29,1.61 -2.74,2.74 -4.43,3.46 -1.7,0.73 -3.23,1.13 -4.52,1.13 -2.58,0 -5.08,-0.64 -7.49,-1.93 -5.32,-2.9 -10.16,-5.64 -14.51,-8.22 -4.35,-2.58 -8.62,-4.84 -12.81,-6.69 -4.2,-1.86 -8.47,-3.31 -12.9,-4.35 -4.43,-1.05 -9.43,-1.53 -14.91,-1.53 -14.35,0 -26.44,4.59 -36.35,13.78 -9.91,9.18 -16.6,21.84 -19.99,37.96l0 182.3c0,9.67 -4.99,14.51 -15.07,14.51l-39.97 0c-10.08,0 -15.07,-4.84 -15.07,-14.51l0 -278.29zm572.54 278.53c0,2.91 -0.64,5.24 -1.85,7.1 -1.21,1.85 -2.74,3.3 -4.67,4.35 -1.94,1.05 -4.2,1.77 -6.69,2.18 -2.5,0.4 -5.16,0.64 -7.9,0.64l-30.31 0c-5.23,0 -8.78,-1.37 -10.8,-4.11 -2.01,-2.74 -3.54,-6.21 -4.51,-10.4l-1.45 -20.47c-5.64,5.64 -11.85,10.96 -18.7,15.88 -6.85,5 -14.26,9.27 -22.16,12.89 -7.9,3.63 -16.28,6.45 -25.15,8.47 -8.86,2.01 -17.97,3.06 -27.32,3.06 -14.51,0 -28.45,-1.94 -41.91,-5.72 -13.46,-3.79 -26.11,-9.11 -37.88,-15.96 -11.76,-6.85 -22.4,-15.07 -31.99,-24.74 -9.59,-9.76 -17.82,-20.47 -24.67,-32.24 -6.85,-11.77 -12.17,-24.42 -15.95,-37.96 -3.79,-13.54 -5.73,-27.65 -5.73,-42.39 0,-14.67 1.94,-28.78 5.73,-42.32 3.78,-13.54 9.1,-26.19 15.95,-37.96 6.85,-11.76 15.08,-22.48 24.67,-32.07 9.59,-9.59 20.23,-17.82 31.99,-24.67 11.77,-6.85 24.42,-12.17 37.88,-15.95 13.46,-3.79 27.4,-5.73 41.91,-5.73 10.32,0 20.15,1.05 29.5,3.23 9.35,2.17 18.13,5.24 26.27,9.19 8.14,3.94 15.64,8.7 22.57,14.26 6.93,5.56 13.22,11.69 18.86,18.3l3.38 -26.04c0.81,-2.9 1.62,-5.32 2.34,-7.17 0.73,-1.85 1.61,-3.38 2.66,-4.51 1.05,-1.13 2.42,-1.86 4.03,-2.26 1.61,-0.4 3.63,-0.64 6.05,-0.64l24.25 0c2.58,0 5.16,0.24 7.74,0.72 2.58,0.48 5,1.21 7.09,2.26 2.1,1.05 3.71,2.58 4.92,4.43 1.21,1.85 1.85,4.11 1.85,6.85l0 279.5zm-251.45 -139.51c0,12.9 2.25,25.07 6.77,36.59 4.51,11.53 10.8,21.68 18.86,30.39 7.98,8.7 17.49,15.55 28.37,20.63 10.8,5.08 22.72,7.66 35.62,7.66 12.98,0 25.23,-2.58 36.51,-7.66 11.36,-5.08 21.28,-11.93 29.58,-20.63 8.38,-8.71 14.99,-18.86 19.82,-30.39 4.84,-11.52 7.26,-23.69 7.26,-36.59 0,-12.73 -2.42,-24.9 -7.26,-36.42 -4.83,-11.53 -11.44,-21.6 -19.82,-30.31 -8.3,-8.7 -18.22,-15.63 -29.58,-20.79 -11.28,-5.16 -23.53,-7.74 -36.51,-7.74 -12.9,0 -24.82,2.58 -35.62,7.74 -10.88,5.16 -20.39,12.09 -28.37,20.79 -8.06,8.71 -14.35,18.78 -18.86,30.31 -4.52,11.52 -6.77,23.69 -6.77,36.42zm475.35 -151.84c2.17,-1.04 4.27,-1.77 6.45,-2.01 2.17,-0.24 4.35,-0.4 6.44,-0.4l24.5 0c4.84,0 8.31,1.37 10.32,4.11 2.01,2.74 3.47,6.28 4.27,10.47l5.08 29.66c5.64,-6.45 11.6,-12.57 17.97,-18.37 6.37,-5.81 13.46,-10.96 21.2,-15.48 7.65,-4.51 16.2,-8.14 25.55,-10.8 9.35,-2.66 19.82,-3.95 31.43,-3.95 14.67,0 28.61,1.94 41.91,5.73 13.3,3.78 25.71,9.1 37.15,15.95 11.53,6.85 22,15.08 31.35,24.67 9.27,9.59 17.33,20.31 24.02,32.07 6.69,11.77 11.85,24.42 15.48,37.96 3.62,13.54 5.4,27.65 5.4,42.32 0,14.74 -1.78,28.85 -5.4,42.39 -3.63,13.54 -8.79,26.19 -15.48,37.96 -6.69,11.77 -14.75,22.48 -24.1,32.24 -9.35,9.67 -19.74,17.89 -31.27,24.74 -11.52,6.85 -24.01,12.17 -37.39,15.96 -13.38,3.78 -27.33,5.72 -41.83,5.72 -10.48,0 -20.07,-1.13 -28.86,-3.39 -8.78,-2.25 -16.92,-5.4 -24.42,-9.34 -7.49,-3.95 -14.42,-8.55 -20.79,-13.87 -6.37,-5.24 -12.41,-10.88 -18.05,-16.84l0 117.91c0,3.87 -1.21,7.17 -3.63,9.91 -2.42,2.74 -6.04,4.11 -10.88,4.11l-40.14 0c-3.38,0 -6.69,-1.29 -9.99,-3.79 -3.3,-2.49 -5,-5.88 -5,-10.23l0 -373.32c0,-3.38 0.81,-6.04 2.34,-7.98 1.53,-1.93 3.63,-3.3 6.37,-4.11zm239.36 151.84c0,-12.73 -2.25,-24.9 -6.85,-36.42 -4.59,-11.53 -10.88,-21.6 -18.85,-30.23 -7.9,-8.62 -17.41,-15.47 -28.29,-20.55 -10.96,-5.08 -22.73,-7.57 -35.47,-7.57 -12.73,0 -24.66,2.49 -35.78,7.49 -11.2,5 -21.04,11.69 -29.42,20.15 -8.46,8.46 -15.23,18.37 -20.31,29.66 -5.07,11.28 -7.65,23.21 -7.81,35.78l0 1.69c0,12.9 2.41,25.15 7.33,36.76 4.92,11.6 11.61,21.76 20.07,30.46 8.38,8.71 18.29,15.64 29.66,20.79 11.28,5.16 23.37,7.74 36.26,7.74 12.74,0 24.51,-2.58 35.47,-7.74 10.88,-5.15 20.39,-12.08 28.29,-20.79 7.97,-8.7 14.26,-18.86 18.85,-30.46 4.6,-11.61 6.85,-23.86 6.85,-36.76z"/>
   <path class="fil1" d="M13427.82 22069.01c-14.18,12.17 -29.66,21.76 -46.5,28.77 -16.84,7.01 -35.38,10.48 -55.53,10.48 -21.76,0 -42.39,-4.11 -61.9,-12.33 -19.5,-8.22 -36.59,-19.51 -51.26,-33.85 -14.66,-14.43 -26.27,-31.19 -34.89,-50.45 -8.63,-19.35 -12.98,-40.06 -12.98,-62.38 0,-14.35 1.77,-28.21 5.32,-41.59 3.55,-13.38 8.62,-25.95 15.15,-37.64 6.53,-11.69 14.43,-22.4 23.78,-32.16 9.35,-9.75 19.82,-18.13 31.35,-25.06 11.52,-6.93 24.02,-12.25 37.48,-16.04 13.45,-3.79 27.64,-5.72 42.63,-5.72 12.25,0 24.34,1.45 36.27,4.43 11.93,2.98 23.29,7.25 34.01,12.73 10.72,5.48 20.71,12.09 30.06,19.91 9.35,7.82 17.57,16.68 24.66,26.52 9.67,13.54 16.77,28.12 21.28,43.76 4.51,15.64 6.77,32.96 6.77,51.98 0,4.68 -0.16,8.55 -0.56,11.69 -0.41,3.14 -1.45,5.72 -3.07,7.66 -1.61,1.93 -4.03,3.3 -7.25,4.19 -3.22,0.88 -7.74,1.37 -13.54,1.37l-214.46 0c2.09,11.52 6.12,21.84 12.01,30.7 5.88,8.95 12.81,16.45 20.87,22.65 8.06,6.21 16.84,10.88 26.35,14.02 9.51,3.15 19.02,4.68 28.53,4.68 7.26,0 14.27,-0.73 20.96,-2.18 6.69,-1.45 12.89,-3.38 18.7,-5.8 5.8,-2.42 11.2,-5.24 16.12,-8.38 4.91,-3.14 9.18,-6.37 12.89,-9.75 0,-0.16 0.08,-0.25 0.24,-0.25 1.94,-1.77 3.79,-3.22 5.56,-4.27 1.78,-1.04 3.63,-1.53 5.57,-1.53 1.45,0 3.14,0.49 4.99,1.45 1.86,0.97 3.63,2.58 5.4,4.84 4.35,5.32 8.06,9.75 11.12,13.3 3.07,3.54 5.57,6.52 7.5,8.94 1.93,2.42 3.38,4.52 4.27,6.29 0.89,1.77 1.29,3.63 1.29,5.4 0,4.51 -3.06,9.11 -9.19,13.62zm-107.35 -218.01c-9.51,0 -18.78,1.69 -27.81,5.16 -9.02,3.46 -17.24,8.14 -24.74,14.1 -7.49,5.97 -14.02,12.98 -19.58,20.96 -5.56,8.06 -9.67,16.68 -12.25,26.03l171.18 0c-2.58,-9.83 -6.45,-18.78 -11.69,-26.84 -5.23,-8.14 -11.6,-15.15 -19.02,-20.95 -7.41,-5.89 -15.87,-10.4 -25.38,-13.62 -9.51,-3.23 -19.75,-4.84 -30.71,-4.84zm321.1 251.94c-12.74,-0.16 -24.67,-2.1 -35.87,-5.8 -11.2,-3.71 -20.95,-9.11 -29.26,-16.12 -8.3,-7.01 -14.91,-15.64 -19.74,-25.87 -4.84,-10.24 -7.25,-21.92 -7.25,-34.98l0 -39.98 -0.25 -123.39 -27.8 0c-4.68,0 -8.14,-1.04 -10.48,-3.14 -2.34,-2.1 -3.55,-5.56 -3.55,-10.32l0 -34.73c0,-4.6 1.21,-7.9 3.55,-9.84 2.34,-1.93 5.88,-2.9 10.56,-2.9l27.97 0c0,-8.54 0.08,-17.08 0.24,-25.55 0.16,-8.54 0.24,-17.08 0.24,-25.62 0,-3.23 0.97,-5.81 2.98,-7.66 2.02,-1.85 5.16,-3.47 9.27,-5 2.74,-0.97 6.04,-2.09 9.91,-3.46 3.87,-1.37 7.82,-2.74 11.93,-4.03 4.11,-1.29 8.06,-2.34 11.93,-3.23 3.87,-0.88 7.09,-1.37 9.67,-1.37 4.92,0 8.22,1.37 9.75,4.11 1.53,2.74 2.26,6.37 2.26,10.96 0,10.16 0,20.31 0,30.39 0,10.15 0,20.31 0,30.46l34.82 0c4.19,0 7.41,1.05 9.67,3.23 2.25,2.17 3.38,5.64 3.38,10.23l0 33.05c0,5.07 -1.13,8.78 -3.38,11.04 -2.26,2.25 -5.48,3.38 -9.67,3.38l-34.82 0c0,10.48 0,19.35 0,26.6 0,7.25 0,13.62 0,19.18 0,5.56 0,10.8 0,15.64 0,4.83 0,10.07 0,15.71 0,5.64 0,12.09 0,19.35 0,7.25 0,16.11 0,26.59 0,0.32 0,0.65 0,0.97 0,0.32 0,0.64 0,0.97l0 31.67c0,10.64 2.09,18.29 6.2,22.97 4.2,4.67 10.97,7.01 20.23,7.01 3.39,0 5.97,1.21 7.9,3.63 1.94,2.42 2.9,5.32 2.9,8.78l0 33.69c0,4.27 -1.12,7.5 -3.46,9.83 -2.34,2.34 -5.64,3.55 -9.83,3.55zm104.45 -86.08c3.39,5.32 7.66,9.92 12.82,13.79 5.15,3.86 10.47,7.01 15.87,9.51 5.4,2.49 10.56,4.35 15.48,5.48 4.91,1.13 8.78,1.69 11.68,1.69 4.52,0 9.84,-0.48 15.96,-1.45 6.13,-0.97 11.93,-2.74 17.33,-5.24 5.4,-2.5 9.99,-5.88 13.78,-10.15 3.79,-4.28 5.64,-9.76 5.64,-16.37 0,-6.44 -1.45,-11.68 -4.43,-15.71 -2.98,-4.03 -7.01,-7.42 -12.09,-10.08 -5.08,-2.66 -10.88,-4.91 -17.41,-6.69 -6.53,-1.77 -13.46,-3.7 -20.71,-5.8 -16.93,-4.51 -31.35,-9.91 -43.28,-16.36 -11.93,-6.37 -21.68,-13.62 -29.34,-21.92 -7.65,-8.22 -13.3,-17.25 -16.84,-27.08 -3.55,-9.83 -5.32,-20.63 -5.32,-32.24 0,-13.06 2.58,-25.06 7.74,-35.86 5.24,-10.8 12.49,-20.07 21.84,-27.81 9.43,-7.82 20.71,-13.78 33.85,-18.05 13.13,-4.27 27.72,-6.45 43.68,-6.45 11.28,0 21.36,0.97 30.22,2.98 8.87,2.02 17.09,5.08 24.67,9.11 7.57,4.03 14.74,9.11 21.43,15.23 6.69,6.13 13.46,13.3 20.39,21.52 2.42,2.9 3.63,5.72 3.63,8.46 0,2.9 -1.61,5.64 -4.83,8.22 -2.42,1.94 -5.24,4.36 -8.55,7.26 -3.3,2.9 -6.61,5.72 -9.83,8.46 -3.22,2.74 -6.29,5.08 -9.19,7.01 -2.9,1.94 -5.32,2.9 -7.25,2.9 -3.55,0 -7.01,-2.09 -10.4,-6.28 -3.54,-4.19 -7.09,-7.9 -10.64,-11.04 -3.54,-3.15 -7.25,-5.73 -11.12,-7.74 -3.87,-2.02 -8.06,-3.55 -12.57,-4.6 -4.52,-1.04 -9.43,-1.53 -14.75,-1.53 -4.35,0 -8.87,0.65 -13.62,1.94 -4.76,1.29 -9.11,3.22 -13.06,5.8 -3.95,2.58 -7.25,5.64 -9.91,9.27 -2.66,3.63 -4.03,7.74 -4.03,12.25 0,5.16 1.61,9.51 4.92,13.14 3.3,3.62 7.49,6.77 12.57,9.43 5.08,2.66 10.56,4.91 16.52,6.68 5.96,1.78 11.53,3.39 16.68,4.84 14.83,4.19 28.37,9.03 40.78,14.51 12.42,5.48 23.05,12.09 32,19.9 8.95,7.82 15.88,17.01 20.87,27.57 5,10.56 7.5,22.97 7.5,37.15 0,14.99 -2.98,28.37 -8.95,40.22 -5.96,11.85 -14.18,21.92 -24.74,30.14 -10.56,8.22 -23.05,14.51 -37.48,18.86 -14.42,4.35 -30.14,6.53 -47.06,6.53 -10.16,0 -20.47,-1.05 -30.95,-3.22 -10.48,-2.18 -20.47,-5.57 -30.06,-10.08 -9.59,-4.59 -18.46,-10.4 -26.6,-17.49 -8.14,-7.17 -14.99,-15.55 -20.47,-25.3 -2.42,-4.03 -3.63,-7.66 -3.63,-10.89 0,-2.09 0.57,-3.94 1.61,-5.48 1.05,-1.53 2.42,-2.98 4.2,-4.43l27.08 -20.79c2.41,-1.45 4.59,-2.18 6.52,-2.18 2.26,0 4.27,0.73 6.05,2.26 1.77,1.53 3.71,3.63 5.8,6.2z"/>
  </g>
 </g>
</svg>
