<?xml version="1.0" encoding="UTF-8"?>
<!DOCTYPE svg PUBLIC "-//W3C//DTD SVG 1.1//EN" "http://www.w3.org/Graphics/SVG/1.1/DTD/svg11.dtd">
<!-- Creator: CorelDRAW 2020 (64 Bit) -->
<svg xmlns="http://www.w3.org/2000/svg" xml:space="preserve" width="180mm" height="40mm" version="1.1" style="shape-rendering:geometricPrecision; text-rendering:geometricPrecision; image-rendering:optimizeQuality; fill-rule:evenodd; clip-rule:evenodd"
viewBox="0 0 18000 4000"
 xmlns:xlink="http://www.w3.org/1999/xlink"
 xmlns:xodm="http://www.corel.com/coreldraw/odm/2003">
 <defs>
  <style type="text/css">
   <![CDATA[
    .fil0 {fill:#EEB506;fill-rule:nonzero}
    .fil1 {fill:#F34D3D;fill-rule:nonzero}
   ]]>
  </style>
 </defs>
 <g id="Camada_x0020_1">
  <metadata id="CorelCorpID_0Corel-Layer"/>
  <path class="fil0" d="M478.07 1495.11l41.86 0 0 219.75c0,355.8 -156.96,491.84 -156.96,779.61 0,230.22 172.66,308.7 507.52,308.7 334.87,0 512.77,-78.48 512.77,-308.7 0,-287.77 -162.2,-423.81 -162.2,-779.61l0 -219.75 167.43 0c125.57,0 219.75,-99.41 219.75,-219.76 0,-120.34 -94.18,-219.75 -219.75,-219.75l-151.74 0c31.4,-303.47 125.58,-674.96 308.71,-674.96 130.8,0 198.82,78.48 230.22,361.02 47.09,392.42 1004.59,277.31 868.55,-120.34 -99.41,-303.47 -586.01,-507.53 -983.66,-507.53 -528.46,0 -1025.53,319.17 -1124.94,941.81l-57.56 0c-120.34,0 -219.75,99.41 -219.75,219.75 0,120.35 99.41,219.76 219.75,219.76zm2265.57 1308.06c575.55,0 1041.22,-387.18 1041.22,-873.78 0,-481.37 -465.67,-873.79 -1041.22,-873.79 -575.55,0 -1041.22,392.42 -1041.22,873.79 0,486.6 465.67,873.78 1041.22,873.78zm0 -1485.96c120.34,0 214.52,277.31 214.52,612.18 0,340.09 -94.18,612.17 -214.52,612.17 -115.11,0 -209.29,-272.08 -209.29,-612.17 0,-334.87 94.18,-612.18 209.29,-612.18zm2197.55 1485.96c575.55,0 1041.22,-387.18 1041.22,-873.78 0,-481.37 -465.67,-873.79 -1041.22,-873.79 -575.55,0 -1041.22,392.42 -1041.22,873.79 0,486.6 465.67,873.78 1041.22,873.78zm0 -1485.96c120.34,0 214.52,277.31 214.52,612.18 0,340.09 -94.18,612.17 -214.52,612.17 -115.11,0 -209.29,-272.08 -209.29,-612.17 0,-334.87 94.18,-612.18 209.29,-612.18zm2129.53 1485.96c188.36,0 366.26,-47.09 517.99,-130.8 73.26,94.18 230.22,130.8 455.21,130.8 334.87,0 577.83,-87.89 512.76,-308.7 -66.52,-225.72 -289.38,-370.78 -204.1,-927.34l55.13 -359.8c53.89,-351.68 148.97,-491.83 148.97,-779.6 0,-230.22 -177.89,-313.94 -512.76,-313.94 -334.86,0 -512.76,83.72 -512.76,313.94 0,287.77 162.2,423.81 162.2,779.6l0 47.09c-167.43,-125.57 -387.19,-198.82 -622.64,-198.82 -538.92,0 -973.2,392.42 -973.2,873.79 0,486.6 434.28,873.78 973.2,873.78zm251.15 -1444.1c204.06,0 371.49,256.38 371.49,570.32 0,313.93 -167.43,570.31 -371.49,570.31 -198.83,0 -366.26,-256.38 -366.26,-570.31 0,-313.94 167.43,-570.32 366.26,-570.32z"/>
  <path class="fil0" d="M10038.65 2782.41c401.94,0 752.36,-190.67 917.26,-474.09 103.07,-180.36 -190.67,-231.89 -257.66,-118.52 -149.44,267.96 -834.81,51.53 -834.81,-520.47 0,-195.82 82.45,-350.42 175.21,-350.42 97.9,0 139.13,200.98 159.74,468.94 30.92,381.34 948.19,216.43 798.75,-170.06 -123.68,-334.96 -520.47,-556.54 -958.49,-556.54 -566.86,0 -1025.49,386.49 -1025.49,860.58 0,479.25 458.63,860.58 1025.49,860.58zm1829.38 0c278.27,0 468.93,-82.45 602.92,-185.51 77.29,118.53 211.28,185.51 360.72,185.51 200.97,0 458.63,-139.13 458.63,-329.8 0,-159.75 -190.66,-170.06 -190.66,-345.26l0 -309.19c0,-453.48 -535.93,-736.91 -958.5,-736.91 -371.03,0 -958.49,92.75 -886.34,412.26 36.07,164.9 273.11,247.35 448.32,190.66 211.29,-77.3 164.91,-345.26 376.19,-345.26 170.05,0 278.27,190.67 314.35,443.17 -443.18,-211.28 -1375.91,97.92 -1288.3,577.16 66.99,365.88 453.47,443.17 762.67,443.17zm541.08 -736.9l0 190.67c-185.52,164.9 -427.72,242.19 -474.09,5.15 -25.77,-164.9 128.83,-350.42 474.09,-195.82zm1040.94 432.86c0,226.75 175.21,304.04 505.02,304.04 329.8,0 505.01,-77.29 505.01,-304.04 0,-221.58 -159.75,-247.34 -159.75,-592.61 0,-103.07 30.92,-293.73 133.99,-293.73 159.75,0 371.03,314.35 597.77,314.35 180.35,0 360.72,-149.45 412.25,-412.26 41.23,-211.29 -72.14,-432.87 -283.42,-432.87 -304.04,0 -484.4,231.89 -705.99,267.96 0,-10.3 5.15,-25.75 5.15,-41.22 0,-494.7 -1046.09,-72.14 -1046.09,231.9 0,195.82 195.82,252.5 195.82,474.09 0,304.04 -159.76,283.43 -159.76,484.39zm3091.92 304.04c401.94,0 752.36,-190.67 917.27,-474.09 103.06,-180.36 -190.68,-231.89 -257.67,-118.52 -72.14,128.83 -288.57,149.44 -494.7,72.14 123.68,-257.66 783.28,-170.05 783.28,-561.7 0,-304.03 -422.56,-638.99 -948.18,-638.99 -566.85,0 -1025.49,386.49 -1025.49,860.58 0,479.25 458.64,860.58 1025.49,860.58zm195.82 -1360.44c0,164.9 -211.28,474.09 -237.05,716.3 -128.83,-103.07 -221.59,-262.82 -221.59,-468.94 0,-422.57 458.64,-438.02 458.64,-247.36z"/>
  <g id="_2545200245632">
   <path class="fil1" d="M6629.06 3642.63c0,3.87 -0.86,6.98 -2.47,9.46 -1.61,2.46 -3.65,4.39 -6.22,5.79 -2.58,1.4 -5.59,2.36 -8.91,2.9 -3.33,0.54 -6.87,0.86 -10.52,0.86l-40.38 0c-6.97,0 -11.7,-1.83 -14.39,-5.48 -2.67,-3.65 -4.71,-8.27 -6,-13.85l-1.94 -27.27c-7.51,7.51 -15.78,14.6 -24.91,21.15 -9.12,6.66 -18.99,12.35 -29.52,17.17 -10.52,4.84 -21.68,8.6 -33.5,11.29 -11.8,2.68 -23.94,4.07 -36.39,4.07 -19.33,0 -37.9,-2.58 -55.83,-7.62 -17.93,-5.04 -34.78,-12.13 -50.46,-21.26 -15.67,-9.12 -29.84,-20.07 -42.62,-32.95 -12.77,-13 -23.74,-27.27 -32.86,-42.95 -9.13,-15.68 -16.21,-32.53 -21.25,-50.57 -5.05,-18.03 -7.63,-36.83 -7.63,-56.47 0,-19.54 2.58,-38.33 7.63,-56.37 5.04,-18.04 12.12,-34.89 21.25,-50.57 9.12,-15.66 20.09,-29.94 32.86,-42.72 12.78,-12.77 26.95,-23.74 42.62,-32.86 15.68,-9.13 32.53,-16.21 50.46,-21.25 17.93,-5.05 36.5,-7.63 55.83,-7.63 13.74,0 26.84,1.4 39.29,4.3 12.46,2.89 24.16,6.98 35,12.24 10.84,5.25 20.83,11.59 30.07,19 9.23,7.4 17.61,15.57 25.12,24.38l4.5 -34.69c1.08,-3.87 2.16,-7.09 3.12,-9.55 0.97,-2.47 2.14,-4.51 3.54,-6.01 1.4,-1.51 3.23,-2.48 5.37,-3.01 2.15,-0.53 4.84,-0.85 8.06,-0.85l32.3 0c3.44,0 6.88,0.32 10.31,0.95 3.44,0.64 6.66,1.62 9.45,3.02 2.8,1.39 4.94,3.43 6.55,5.9 1.61,2.46 2.47,5.47 2.47,9.12l0 372.33zm-334.96 -185.85c0,17.19 2.99,33.4 9.02,48.75 6,15.36 14.38,28.88 25.12,40.48 10.63,11.59 23.3,20.71 37.79,27.48 14.39,6.77 30.27,10.21 47.45,10.21 17.29,0 33.61,-3.44 48.64,-10.21 15.13,-6.77 28.34,-15.89 39.4,-27.48 11.16,-11.6 19.97,-25.12 26.4,-40.48 6.45,-15.35 9.67,-31.56 9.67,-48.75 0,-16.95 -3.22,-33.17 -9.67,-48.51 -6.43,-15.36 -15.24,-28.77 -26.4,-40.38 -11.06,-11.59 -24.27,-20.82 -39.4,-27.69 -15.03,-6.88 -31.35,-10.31 -48.64,-10.31 -17.18,0 -33.06,3.43 -47.45,10.31 -14.49,6.87 -27.16,16.1 -37.79,27.69 -10.74,11.61 -19.12,25.02 -25.12,40.38 -6.03,15.34 -9.02,31.56 -9.02,48.51zm419.03 -306.61c0,-5.59 1.5,-10.2 4.5,-13.85 3.01,-3.65 7.63,-5.48 13.96,-5.48l56.48 0c4.4,0 8.37,1.83 12.12,5.48 3.76,3.65 5.69,8.26 5.69,13.85l0 492.14c0,6.45 -1.82,11.28 -5.37,14.49 -3.54,3.23 -8.25,4.84 -14.38,4.84l-53.89 0c-6.98,0 -11.81,-1.61 -14.72,-4.84 -2.89,-3.21 -4.39,-8.04 -4.39,-14.49l0 -492.14zm182.94 122.06c0,-5.58 1.61,-10.31 4.83,-14.06 3.21,-3.76 7.94,-5.59 14.28,-5.59l53.57 0c2.37,0 4.83,0.44 7.3,1.4 2.47,0.98 4.73,2.36 6.66,4.19 1.93,1.82 3.54,3.98 4.83,6.34 1.28,2.35 1.93,4.94 1.93,7.72l0 370.08c0,12.88 -6.76,19.33 -20.4,19.33l-53.57 0c-12.99,0 -19.43,-6.45 -19.43,-19.33l0 -370.08zm0 -142.57c0,-12.99 6.34,-19.44 19.11,-19.44l54.22 0c6.11,0 10.95,1.61 14.6,4.84 3.65,3.22 5.47,8.06 5.47,14.6l0 48.1c0,4.94 -1.71,9.66 -5.15,14.07 -3.44,4.39 -8.27,6.64 -14.6,6.64l-54.22 0c-12.99,0 -19.43,-6.86 -19.43,-20.71l0 -48.1zm198.08 141.93c0,-7.3 2.8,-12.35 8.28,-15.02 5.47,-2.69 12.33,-3.99 20.5,-3.99l32.63 0c6.22,0 10.85,2.04 13.86,6.13 2.99,4.08 5.15,8.7 6.22,13.63l3.54 31.02c4.94,-7.4 10.63,-14.49 17.08,-21.24 6.43,-6.88 14.05,-12.88 22.97,-18.15 8.91,-5.15 19.32,-9.35 31.25,-12.45 11.91,-3.12 25.87,-4.73 41.76,-4.73 15.02,0 28.67,1.5 40.89,4.41 12.25,2.89 23.3,7.19 33.19,12.99 9.87,5.69 18.78,12.77 26.73,21.14 7.94,8.27 15.14,17.82 21.58,28.66 5.15,-10.08 12.13,-19.31 20.93,-27.8 8.81,-8.38 19.01,-15.57 30.49,-21.47 11.49,-5.9 24.15,-10.52 37.9,-13.75 13.75,-3.21 28.03,-4.82 42.84,-4.82 25.45,0 47.67,4.61 66.99,13.84 19.23,9.25 35.21,21.91 48.21,38.01 12.89,16.1 22.54,34.9 29.1,56.37 6.54,21.48 9.87,44.44 9.87,68.93l0 214.83c0,7.72 -1.83,13.52 -5.48,17.5 -3.65,3.97 -8.91,6.01 -15.89,6.01l-49.06 0c-8.7,0 -14.39,-1.61 -17.28,-4.84 -2.9,-3.21 -4.41,-8.91 -4.41,-17.06l0 -216.23c0,-11.38 -1.61,-22.43 -4.82,-33.17 -3.22,-10.63 -8.17,-20.2 -14.93,-28.46 -6.76,-8.27 -15.24,-14.92 -25.45,-19.96 -10.19,-5.05 -22.43,-7.52 -36.6,-7.52 -11.82,0 -22.77,2.04 -32.85,6.22 -10.1,4.19 -18.8,10.21 -26.1,18.04 -7.3,7.83 -12.99,17.29 -17.17,28.35 -4.2,11.05 -6.34,23.3 -6.34,36.82l0 214.62c0,15.46 -6.98,23.19 -20.93,23.19l-49.29 0c-8.58,0 -14.28,-1.61 -17.06,-4.84 -2.8,-3.21 -4.18,-8.91 -4.18,-17.06l0 -215.91c0,-11.17 -1.51,-22.01 -4.63,-32.64 -3.11,-10.63 -7.94,-20.07 -14.49,-28.45 -6.55,-8.37 -15.03,-15.14 -25.34,-20.29 -10.31,-5.16 -22.55,-7.73 -36.71,-7.73 -9.88,0 -19.75,1.83 -29.64,5.58 -9.87,3.76 -18.78,9.24 -26.84,16.32 -8.05,7.09 -14.71,15.79 -19.86,26.09 -5.16,10.2 -7.84,21.91 -8.05,35l0 224.92c0,5.59 -1.82,10.2 -5.47,13.75 -3.65,3.54 -8.28,5.26 -13.96,5.26l-53.26 0c-7.2,0 -12.34,-1.72 -15.67,-5.05 -3.33,-3.33 -5.05,-8.05 -5.05,-14.28l0 -370.72zm1024.88 344.85c-18.89,16.21 -39.51,28.99 -61.94,38.32 -22.44,9.34 -47.13,13.96 -73.98,13.96 -28.98,0 -56.46,-5.47 -82.45,-16.42 -25.98,-10.95 -48.75,-25.99 -68.29,-45.09 -19.53,-19.23 -34.99,-41.55 -46.48,-67.21 -11.49,-25.77 -17.29,-53.36 -17.29,-83.1 0,-19.11 2.36,-37.57 7.09,-55.4 4.73,-17.82 11.48,-34.57 20.18,-50.14 8.7,-15.57 19.22,-29.84 31.68,-42.84 12.45,-12.99 26.4,-24.15 41.76,-33.38 15.35,-9.23 32,-16.32 49.93,-21.37 17.92,-5.05 36.82,-7.62 56.79,-7.62 16.32,0 32.42,1.93 48.31,5.9 15.9,3.97 31.03,9.66 45.31,16.96 14.28,7.3 27.59,16.1 40.04,26.52 12.46,10.42 23.41,22.22 32.85,35.33 12.88,18.04 22.34,37.46 28.35,58.29 6.01,20.84 9.02,43.91 9.02,69.25 0,6.23 -0.22,11.39 -0.75,15.57 -0.54,4.18 -1.93,7.62 -4.09,10.2 -2.14,2.57 -5.37,4.4 -9.66,5.58 -4.28,1.18 -10.31,1.83 -18.03,1.83l-285.69 0c2.79,15.35 8.15,29.09 16,40.9 7.83,11.92 17.06,21.91 27.8,30.17 10.74,8.27 22.43,14.49 35.1,18.67 12.67,4.2 25.34,6.24 38.01,6.24 9.67,0 19.01,-0.97 27.92,-2.91 8.91,-1.93 17.17,-4.5 24.91,-7.72 7.73,-3.23 14.92,-6.98 21.47,-11.17 6.54,-4.18 12.23,-8.48 17.17,-12.98 0,-0.22 0.11,-0.34 0.32,-0.34 2.59,-2.35 5.05,-4.29 7.41,-5.68 2.37,-1.39 4.84,-2.04 7.42,-2.04 1.93,0 4.18,0.65 6.65,1.93 2.48,1.29 4.83,3.44 7.19,6.45 5.8,7.08 10.74,12.98 14.81,17.71 4.09,4.72 7.42,8.69 10,11.91 2.57,3.23 4.5,6.02 5.68,8.38 1.19,2.36 1.72,4.84 1.72,7.2 0,6 -4.07,12.13 -12.24,18.14zm-143 -290.42c-12.67,0 -25.02,2.26 -37.05,6.88 -12.01,4.61 -22.96,10.84 -32.96,18.78 -9.97,7.95 -18.67,17.29 -26.08,27.92 -7.4,10.74 -12.88,22.22 -16.32,34.68l228.04 0c-3.44,-13.1 -8.6,-25.02 -15.58,-35.76 -6.96,-10.84 -15.45,-20.18 -25.33,-27.91 -9.88,-7.84 -21.14,-13.85 -33.81,-18.14 -12.67,-4.3 -26.31,-6.45 -40.91,-6.45zm280.54 -54.75c0,-3.01 1.29,-6.23 3.86,-9.67 2.59,-3.43 5.05,-5.58 7.41,-6.43 1.72,-1.51 4.41,-2.37 7.85,-2.48 3.42,-0.11 6.64,-0.11 9.65,-0.11l32.64 0c6.22,0 10.85,2.04 13.86,6.13 2.99,4.08 5.15,8.58 6.22,13.52l3.54 34.04c4.94,-7.3 10.95,-14.49 18.14,-21.69 7.3,-7.09 15.79,-13.41 25.66,-18.99 9.88,-5.71 21.15,-10.21 33.93,-13.65 12.67,-3.43 26.95,-5.15 42.84,-5.15 25.34,0 48,4.62 67.74,13.75 19.75,9.12 36.41,21.58 49.93,37.46 13.64,15.89 23.83,34.68 30.81,56.16 6.98,21.46 10.52,44.54 10.52,69.24l0 215.05c0,7.72 -1.82,13.53 -5.47,17.39 -3.65,3.87 -8.92,5.8 -15.9,5.8l-49.06 0c-8.7,0 -14.38,-1.61 -17.29,-4.84 -2.89,-3.21 -4.39,-8.91 -4.39,-17.06l0 -214.51c0,-11.38 -1.94,-22.56 -5.8,-33.4 -3.86,-10.84 -9.44,-20.5 -16.86,-29.09 -7.41,-8.58 -16.64,-15.46 -27.59,-20.61 -10.95,-5.16 -23.62,-7.73 -38.01,-7.73 -9.87,0 -20.07,1.93 -30.7,5.9 -10.63,3.97 -20.4,9.66 -29.2,16.96 -8.81,7.3 -16.11,16.11 -21.9,26.52 -5.8,10.42 -8.81,22.22 -9.02,35.33l0 208.7c0,4.09 -0.21,8.17 -0.65,12.25 -0.43,4.07 -1.39,7.72 -2.79,10.95 -1.4,3.22 -3.33,5.79 -5.9,7.72 -2.58,1.93 -6.02,2.91 -10.1,2.91l-53.25 0c-7.2,0 -12.34,-1.72 -15.67,-5.05 -3.33,-3.33 -5.05,-8.05 -5.05,-14.28l0 -371.04zm585.24 390.37c-16.97,-0.22 -32.86,-2.8 -47.78,-7.73 -14.92,-4.94 -27.91,-12.13 -38.98,-21.47 -11.06,-9.34 -19.86,-20.84 -26.3,-34.46 -6.44,-13.65 -9.65,-29.2 -9.65,-46.6l0 -53.26 -0.34 -164.37 -37.03 0c-6.23,0 -10.84,-1.39 -13.96,-4.18 -3.12,-2.8 -4.73,-7.41 -4.73,-13.75l0 -46.26c0,-6.13 1.61,-10.53 4.73,-13.11 3.12,-2.57 7.83,-3.87 14.07,-3.87l37.26 0c0,-11.37 0.1,-22.75 0.32,-34.03 0.21,-11.38 0.31,-22.75 0.31,-34.13 0,-4.3 1.3,-7.74 3.97,-10.2 2.7,-2.47 6.88,-4.63 12.35,-6.66 3.65,-1.3 8.05,-2.79 13.2,-4.61 5.16,-1.83 10.42,-3.65 15.9,-5.37 5.47,-1.72 10.73,-3.12 15.89,-4.31 5.15,-1.17 9.44,-1.82 12.88,-1.82 6.55,0 10.95,1.82 12.99,5.47 2.04,3.65 3.01,8.49 3.01,14.6 0,13.54 0,27.06 0,40.49 0,13.52 0,27.05 0,40.57l46.38 0c5.59,0 9.87,1.4 12.89,4.31 2.99,2.89 4.5,7.51 4.5,13.62l0 44.03c0,6.75 -1.51,11.7 -4.5,14.71 -3.02,2.99 -7.3,4.5 -12.89,4.5l-46.38 0c0,13.96 0,25.78 0,35.43 0,9.66 0,18.15 0,25.55 0,7.41 0,14.39 0,20.84 0,6.43 0,13.41 0,20.93 0,7.51 0,16.1 0,25.77 0,9.66 0,21.46 0,35.42 0,0.43 0,0.87 0,1.3 0,0.42 0,0.85 0,1.29l0 42.19c0,14.17 2.78,24.36 8.26,30.59 5.59,6.23 14.61,9.34 26.95,9.34 4.51,0 7.95,1.61 10.52,4.84 2.59,3.22 3.86,7.09 3.86,11.69l0 44.88c0,5.69 -1.49,9.99 -4.61,13.1 -3.11,3.12 -7.51,4.73 -13.09,4.73zm505.99 -19.01c0,3.87 -0.85,6.98 -2.46,9.46 -1.61,2.46 -3.65,4.39 -6.22,5.79 -2.59,1.4 -5.6,2.36 -8.92,2.9 -3.33,0.54 -6.87,0.86 -10.52,0.86l-40.38 0c-6.96,0 -11.69,-1.83 -14.38,-5.48 -2.68,-3.65 -4.72,-8.27 -6.01,-13.85l-1.93 -27.27c-7.52,7.51 -15.79,14.6 -24.91,21.15 -9.13,6.66 -19,12.35 -29.52,17.17 -10.53,4.84 -21.69,8.6 -33.51,11.29 -11.8,2.68 -23.93,4.07 -36.39,4.07 -19.33,0 -37.9,-2.58 -55.83,-7.62 -17.93,-5.04 -34.78,-12.13 -50.46,-21.26 -15.66,-9.12 -29.84,-20.07 -42.61,-32.95 -12.78,-13 -23.74,-27.27 -32.87,-42.95 -9.12,-15.68 -16.21,-32.53 -21.24,-50.57 -5.05,-18.03 -7.64,-36.83 -7.64,-56.47 0,-19.54 2.59,-38.33 7.64,-56.37 5.03,-18.04 12.12,-34.89 21.24,-50.57 9.13,-15.66 20.09,-29.94 32.87,-42.72 12.77,-12.77 26.95,-23.74 42.61,-32.86 15.68,-9.13 32.53,-16.21 50.46,-21.25 17.93,-5.05 36.5,-7.63 55.83,-7.63 13.75,0 26.84,1.4 39.3,4.3 12.45,2.89 24.15,6.98 34.99,12.24 10.85,5.25 20.84,11.59 30.07,19 9.23,7.4 17.61,15.57 25.12,24.38l4.51 -34.69c1.07,-3.87 2.15,-7.09 3.11,-9.55 0.98,-2.47 2.15,-4.51 3.55,-6.01 1.39,-1.51 3.22,-2.48 5.36,-3.01 2.15,-0.53 4.84,-0.85 8.06,-0.85l32.31 0c3.43,0 6.87,0.32 10.31,0.95 3.44,0.64 6.66,1.62 9.44,3.02 2.8,1.39 4.95,3.43 6.56,5.9 1.61,2.46 2.46,5.47 2.46,9.12l0 372.33zm-334.96 -185.85c0,17.19 3,33.4 9.02,48.75 6.01,15.36 14.39,28.88 25.12,40.48 10.63,11.59 23.3,20.71 37.79,27.48 14.39,6.77 30.27,10.21 47.45,10.21 17.3,0 33.61,-3.44 48.64,-10.21 15.13,-6.77 28.35,-15.89 39.4,-27.48 11.17,-11.6 19.97,-25.12 26.41,-40.48 6.44,-15.35 9.67,-31.56 9.67,-48.75 0,-16.95 -3.23,-33.17 -9.67,-48.51 -6.44,-15.36 -15.24,-28.77 -26.41,-40.38 -11.05,-11.59 -24.27,-20.82 -39.4,-27.69 -15.03,-6.88 -31.34,-10.31 -48.64,-10.31 -17.18,0 -33.06,3.43 -47.45,10.31 -14.49,6.87 -27.16,16.1 -37.79,27.69 -10.73,11.61 -19.11,25.02 -25.12,40.38 -6.02,15.34 -9.02,31.56 -9.02,48.51zm693.77 97.93c3.65,-2.37 6.76,-3.86 9.23,-4.41 2.48,-0.53 4.51,-0.75 6.23,-0.75 3.65,0.22 6.77,2.15 9.34,5.8l7.73 10.63 22.87 32.53c1.08,1.5 1.93,3.01 2.57,4.62 0.65,1.6 0.97,3.1 0.97,4.4 0,3.43 -1.18,6.44 -3.54,9.12 -2.36,2.69 -5.48,5.48 -9.34,8.27 -18.25,13.31 -37.9,24.05 -59.05,32.21 -21.16,8.16 -44.45,12.23 -69.79,12.23 -19.1,0 -37.57,-2.57 -55.5,-7.62 -17.93,-5.04 -34.79,-12.13 -50.35,-21.26 -15.57,-9.12 -29.75,-20.07 -42.73,-32.85 -12.89,-12.88 -24.05,-27.05 -33.39,-42.73 -9.46,-15.77 -16.65,-32.64 -21.68,-50.67 -5.05,-18.04 -7.64,-36.93 -7.64,-56.47 0,-19.55 2.59,-38.43 7.64,-56.47 5.03,-18.04 12.22,-34.9 21.68,-50.68 9.34,-15.67 20.5,-29.85 33.39,-42.73 12.98,-12.77 27.16,-23.72 42.73,-32.85 15.56,-9.12 32.42,-16.21 50.35,-21.26 17.93,-5.05 36.4,-7.62 55.5,-7.62 23.84,0 46.38,3.65 67.64,10.95 21.26,7.3 40.15,17.17 56.69,29.63l-0.32 -0.32c3.01,3.01 6,5.58 8.91,7.83 2.9,2.26 4.29,5.81 4.29,10.52 0,1.3 0,2.8 -0.11,4.52 -0.11,1.72 -0.75,3.33 -1.82,4.82l-26.41 40.27c-4.3,6.44 -9.02,9.66 -14.17,9.66 -3.65,0 -7.73,-1.83 -12.24,-5.48 -10.95,-9.23 -23.73,-16.74 -38.33,-22.54 -14.6,-5.8 -29.64,-8.69 -45.09,-8.69 -16.74,0 -32.42,3.54 -47.13,10.52 -14.71,6.97 -27.71,16.42 -38.87,28.33 -11.16,12.03 -19.97,25.89 -26.4,41.66 -6.45,15.89 -9.67,32.53 -9.67,49.93 0,17.82 3.22,34.67 9.67,50.35 6.43,15.79 15.24,29.41 26.29,41.02 11.06,11.59 23.94,20.82 38.77,27.58 14.81,6.77 30.6,10.21 47.34,10.21 18.25,0 34.04,-3.22 47.34,-9.57 13.31,-6.32 25.45,-13.84 36.4,-22.64zm-48.64 106.29c-4.71,3.21 -7.09,6.98 -7.09,11.27 0,3.43 1.72,6.66 5.05,9.55 3.33,2.9 7.41,5.9 12.25,9.02 4.83,3.11 10.09,6.44 15.89,9.99 5.79,3.54 11.16,7.62 16,12.24 4.82,4.61 8.91,9.98 12.23,15.88 3.33,5.91 4.94,12.77 4.94,20.83 0,7.73 -2.04,15.46 -6.22,23.2 -4.2,7.72 -10.31,15.24 -18.48,22.54 -8.15,7.3 -18.25,14.17 -30.48,20.51 -12.13,6.33 -26.41,12.02 -42.73,16.96l-1.62 0c-3.22,0 -6.34,-1.83 -9.44,-5.48 -3.12,-3.65 -6.02,-7.83 -8.59,-12.56 -2.57,-4.73 -4.62,-9.44 -6.22,-14.07 -1.61,-4.61 -2.48,-7.94 -2.48,-9.87 0,-3.43 1.18,-5.81 3.54,-7.08 36.72,-9.24 55.09,-20.63 55.09,-34.15 0,-4.83 -1.62,-9.01 -4.84,-12.66 -3.33,-3.65 -7.41,-7.09 -12.24,-10.42 -4.94,-3.33 -10.09,-6.77 -15.79,-10.1 -5.58,-3.32 -10.84,-6.86 -15.77,-10.62 -4.84,-3.77 -8.91,-8.06 -12.24,-12.89 -3.23,-4.82 -4.84,-10.41 -4.84,-16.64 0,-2.36 0.32,-4.72 0.97,-7.19 0.64,-2.47 2.47,-5.26 5.48,-8.26l67.63 0zm585.88 -18.37c0,3.87 -0.85,6.98 -2.46,9.46 -1.62,2.46 -3.65,4.39 -6.23,5.79 -2.58,1.4 -5.59,2.36 -8.91,2.9 -3.33,0.54 -6.87,0.86 -10.52,0.86l-40.38 0c-6.96,0 -11.69,-1.83 -14.38,-5.48 -2.68,-3.65 -4.72,-8.27 -6.01,-13.85l-1.93 -27.27c-7.52,7.51 -15.79,14.6 -24.91,21.15 -9.13,6.66 -19,12.35 -29.52,17.17 -10.53,4.84 -21.69,8.6 -33.51,11.29 -11.8,2.68 -23.94,4.07 -36.39,4.07 -19.33,0 -37.9,-2.58 -55.83,-7.62 -17.93,-5.04 -34.78,-12.13 -50.46,-21.26 -15.67,-9.12 -29.84,-20.07 -42.61,-32.95 -12.78,-13 -23.74,-27.27 -32.87,-42.95 -9.12,-15.68 -16.21,-32.53 -21.24,-50.57 -5.05,-18.03 -7.64,-36.83 -7.64,-56.47 0,-19.54 2.59,-38.33 7.64,-56.37 5.03,-18.04 12.12,-34.89 21.24,-50.57 9.13,-15.66 20.09,-29.94 32.87,-42.72 12.77,-12.77 26.94,-23.74 42.61,-32.86 15.68,-9.13 32.53,-16.21 50.46,-21.25 17.93,-5.05 36.5,-7.63 55.83,-7.63 13.75,0 26.84,1.4 39.3,4.3 12.45,2.89 24.15,6.98 34.99,12.24 10.85,5.25 20.84,11.59 30.07,19 9.23,7.4 17.61,15.57 25.12,24.38l4.5 -34.69c1.08,-3.87 2.16,-7.09 3.12,-9.55 0.97,-2.47 2.15,-4.51 3.54,-6.01 1.4,-1.51 3.23,-2.48 5.37,-3.01 2.15,-0.53 4.84,-0.85 8.06,-0.85l32.31 0c3.43,0 6.87,0.32 10.31,0.95 3.43,0.64 6.66,1.62 9.44,3.02 2.8,1.39 4.94,3.43 6.56,5.9 1.61,2.46 2.46,5.47 2.46,9.12l0 372.33zm-334.96 -185.85c0,17.19 3,33.4 9.02,48.75 6.01,15.36 14.38,28.88 25.12,40.48 10.63,11.59 23.3,20.71 37.79,27.48 14.39,6.77 30.27,10.21 47.45,10.21 17.29,0 33.61,-3.44 48.64,-10.21 15.13,-6.77 28.35,-15.89 39.4,-27.48 11.17,-11.6 19.97,-25.12 26.41,-40.48 6.44,-15.35 9.67,-31.56 9.67,-48.75 0,-16.95 -3.23,-33.17 -9.67,-48.51 -6.44,-15.36 -15.24,-28.77 -26.41,-40.38 -11.05,-11.59 -24.27,-20.82 -39.4,-27.69 -15.03,-6.88 -31.35,-10.31 -48.64,-10.31 -17.18,0 -33.06,3.43 -47.45,10.31 -14.49,6.87 -27.16,16.1 -37.79,27.69 -10.74,11.61 -19.11,25.02 -25.12,40.38 -6.02,15.34 -9.02,31.56 -9.02,48.51zm18.36 -309.51c7.94,-12.25 18.03,-21.9 30.27,-28.99 12.23,-7.09 25.66,-10.63 40.26,-10.63 6.22,0.43 12.78,1.61 19.54,3.65 6.77,2.04 14.07,5.47 22.01,10.2l19.65 11.91c5.37,3.87 11.06,5.8 17.06,5.8 5.37,0 9.99,-1.39 13.75,-4.08 3.76,-2.78 7.09,-5.79 9.99,-9.12 2.89,-3.33 5.37,-6.33 7.51,-9.13 2.15,-2.68 4.19,-4.07 6.12,-4.07 2.14,0 5.15,1.5 9.02,4.39 3.86,2.91 7.72,6.24 11.6,9.89 3.86,3.65 7.3,7.3 10.19,10.84 2.9,3.65 4.3,6.01 4.3,7.3 0,0.85 -0.33,1.93 -1.08,3.12 -0.74,1.17 -1.61,2.57 -2.57,4.07 -0.97,1.51 -2.05,3 -3.22,4.4 -1.19,1.4 -2.25,2.69 -3.12,4.07 -8.38,11.18 -18.25,19.55 -29.62,24.92 -11.39,5.47 -23.62,8.16 -36.73,8.16 -7.3,0 -14.71,-1.4 -22.22,-4.08 -7.51,-2.69 -14.71,-6.23 -21.58,-10.73l-17.06 -10.95c-2.8,-1.72 -5.37,-3.01 -7.85,-3.88 -2.47,-0.85 -5.58,-1.38 -9.23,-1.6 -5.58,0 -9.87,1.07 -12.88,3.21 -3.01,2.15 -6.12,4.84 -9.34,8.06 -2.37,3 -4.84,6.01 -7.41,9.13 -2.58,3.11 -5.37,4.94 -8.38,5.37 -1.5,0 -4.18,-1.4 -8.04,-4.08 -3.88,-2.69 -7.74,-5.7 -11.71,-9.14 -3.97,-3.42 -7.52,-6.86 -10.63,-10.19 -3.12,-3.33 -4.72,-5.69 -4.72,-7.19 0,-0.66 0.32,-1.72 0.85,-3.12 0.54,-1.4 2.26,-3.86 5.27,-7.51zm385.86 310.59c0,-19.54 2.46,-38.32 7.51,-56.46 5.05,-18.25 12.24,-35.12 21.47,-50.79 9.24,-15.67 20.29,-29.95 33.17,-42.73 12.78,-12.77 27.06,-23.72 42.74,-32.85 15.68,-9.12 32.53,-16.21 50.35,-21.26 17.93,-5.05 36.71,-7.62 56.26,-7.62 19.22,0 37.9,2.57 55.93,7.62 18.04,5.05 34.78,12.14 50.36,21.26 15.57,9.13 29.84,20.08 42.62,32.85 12.89,12.78 23.94,27.06 33.17,42.73 9.24,15.67 16.43,32.54 21.48,50.79 5.05,18.14 7.51,36.92 7.51,56.46 0,19.65 -2.46,38.44 -7.51,56.47 -5.05,18.04 -12.24,34.9 -21.48,50.46 -9.23,15.57 -20.28,29.75 -33.17,42.74 -12.78,12.88 -27.05,23.83 -42.62,32.95 -15.58,9.13 -32.32,16.22 -50.36,21.26 -18.03,5.05 -36.71,7.62 -55.93,7.62 -19.55,0 -38.33,-2.57 -56.26,-7.62 -17.82,-5.04 -34.67,-12.13 -50.35,-21.26 -15.68,-9.12 -29.96,-20.07 -42.74,-32.95 -12.88,-12.99 -23.93,-27.17 -33.17,-42.74 -9.23,-15.56 -16.42,-32.42 -21.47,-50.46 -5.05,-18.03 -7.51,-36.82 -7.51,-56.47zm90.82 -0.1c0,17.18 3.01,33.39 9.02,48.74 6.01,15.36 14.39,28.77 25.12,40.15 10.63,11.39 23.41,20.41 38.11,27.05 14.6,6.66 30.71,10 48.11,10 16.85,0 32.63,-3.34 47.02,-10 14.49,-6.64 27.06,-15.66 37.47,-27.05 10.51,-11.38 18.79,-24.79 24.69,-40.15 5.91,-15.35 8.8,-31.56 8.8,-48.74 0,-16.96 -2.89,-33.17 -8.8,-48.64 -5.9,-15.46 -14.18,-29.09 -24.69,-40.8 -10.41,-11.7 -22.98,-21.04 -37.47,-28.02 -14.39,-6.98 -30.17,-10.41 -47.02,-10.41 -17.4,0 -33.51,3.43 -48.11,10.41 -14.7,6.98 -27.48,16.32 -38.11,28.02 -10.73,11.71 -19.11,25.34 -25.12,40.8 -6.01,15.47 -9.02,31.68 -9.02,48.64z"/>
   <path class="fil1" d="M11011.39 3271.27c0,-3.01 1.29,-6.23 3.86,-9.67 2.59,-3.43 5.05,-5.58 7.41,-6.43 1.72,-1.51 4.41,-2.37 7.84,-2.48 3.43,-0.11 6.65,-0.11 9.66,-0.11l32.64 0c6.22,0 10.84,2.04 13.85,6.13 3,4.08 5.16,8.58 6.22,13.52l3.55 34.04c4.94,-7.3 10.95,-14.49 18.14,-21.69 7.3,-7.09 15.79,-13.41 25.66,-18.99 9.88,-5.71 21.15,-10.21 33.93,-13.65 12.67,-3.43 26.95,-5.15 42.84,-5.15 25.33,0 47.99,4.62 67.74,13.75 19.75,9.12 36.4,21.58 49.92,37.46 13.64,15.89 23.84,34.68 30.82,56.16 6.98,21.46 10.52,44.54 10.52,69.24l0 215.05c0,7.72 -1.83,13.53 -5.48,17.39 -3.65,3.87 -8.91,5.8 -15.89,5.8l-49.06 0c-8.7,0 -14.39,-1.61 -17.29,-4.84 -2.89,-3.21 -4.4,-8.91 -4.4,-17.06l0 -214.51c0,-11.38 -1.93,-22.56 -5.79,-33.4 -3.86,-10.84 -9.45,-20.5 -16.87,-29.09 -7.4,-8.58 -16.63,-15.46 -27.58,-20.61 -10.95,-5.16 -23.62,-7.73 -38.01,-7.73 -9.87,0 -20.07,1.93 -30.7,5.9 -10.63,3.97 -20.4,9.66 -29.2,16.96 -8.81,7.3 -16.11,16.11 -21.9,26.52 -5.8,10.42 -8.81,22.22 -9.02,35.33l0 208.7c0,4.09 -0.22,8.17 -0.66,12.25 -0.42,4.07 -1.38,7.72 -2.78,10.95 -1.4,3.22 -3.33,5.79 -5.9,7.72 -2.59,1.93 -6.02,2.91 -10.1,2.91l-53.26 0c-7.19,0 -12.33,-1.72 -15.66,-5.05 -3.33,-3.33 -5.05,-8.05 -5.05,-14.28l0 -371.04zm848.37 371.36c0,3.87 -0.85,6.98 -2.46,9.46 -1.62,2.46 -3.65,4.39 -6.22,5.79 -2.59,1.4 -5.6,2.36 -8.92,2.9 -3.33,0.54 -6.87,0.86 -10.52,0.86l-40.38 0c-6.96,0 -11.69,-1.83 -14.38,-5.48 -2.68,-3.65 -4.72,-8.27 -6.01,-13.85l-1.93 -27.27c-7.52,7.51 -15.79,14.6 -24.91,21.15 -9.13,6.66 -19,12.35 -29.52,17.17 -10.53,4.84 -21.69,8.6 -33.51,11.29 -11.8,2.68 -23.93,4.07 -36.39,4.07 -19.33,0 -37.9,-2.58 -55.83,-7.62 -17.93,-5.04 -34.78,-12.13 -50.46,-21.26 -15.66,-9.12 -29.84,-20.07 -42.61,-32.95 -12.78,-13 -23.74,-27.27 -32.87,-42.95 -9.12,-15.68 -16.21,-32.53 -21.24,-50.57 -5.05,-18.03 -7.64,-36.83 -7.64,-56.47 0,-19.54 2.59,-38.33 7.64,-56.37 5.03,-18.04 12.12,-34.89 21.24,-50.57 9.13,-15.66 20.09,-29.94 32.87,-42.72 12.77,-12.77 26.95,-23.74 42.61,-32.86 15.68,-9.13 32.53,-16.21 50.46,-21.25 17.93,-5.05 36.5,-7.63 55.83,-7.63 13.75,0 26.84,1.4 39.3,4.3 12.45,2.89 24.15,6.98 34.99,12.24 10.85,5.25 20.84,11.59 30.07,19 9.23,7.4 17.61,15.57 25.12,24.38l4.51 -34.69c1.07,-3.87 2.15,-7.09 3.11,-9.55 0.97,-2.47 2.15,-4.51 3.55,-6.01 1.39,-1.51 3.22,-2.48 5.36,-3.01 2.15,-0.53 4.84,-0.85 8.06,-0.85l32.31 0c3.43,0 6.87,0.32 10.31,0.95 3.43,0.64 6.66,1.62 9.44,3.02 2.8,1.39 4.94,3.43 6.56,5.9 1.61,2.46 2.46,5.47 2.46,9.12l0 372.33zm-334.96 -185.85c0,17.19 3,33.4 9.02,48.75 6.01,15.36 14.39,28.88 25.12,40.48 10.63,11.59 23.3,20.71 37.79,27.48 14.39,6.77 30.27,10.21 47.45,10.21 17.3,0 33.61,-3.44 48.64,-10.21 15.13,-6.77 28.35,-15.89 39.4,-27.48 11.17,-11.6 19.97,-25.12 26.41,-40.48 6.44,-15.35 9.67,-31.56 9.67,-48.75 0,-16.95 -3.23,-33.17 -9.67,-48.51 -6.44,-15.36 -15.24,-28.77 -26.41,-40.38 -11.05,-11.59 -24.27,-20.82 -39.4,-27.69 -15.03,-6.88 -31.34,-10.31 -48.64,-10.31 -17.18,0 -33.06,3.43 -47.45,10.31 -14.49,6.87 -27.16,16.1 -37.79,27.69 -10.73,11.61 -19.11,25.02 -25.12,40.38 -6.02,15.34 -9.02,31.56 -9.02,48.51zm566.23 204.86c-16.97,-0.22 -32.86,-2.8 -47.78,-7.73 -14.92,-4.94 -27.91,-12.13 -38.98,-21.47 -11.06,-9.34 -19.86,-20.84 -26.3,-34.46 -6.44,-13.65 -9.65,-29.2 -9.65,-46.6l0 -53.26 -0.34 -164.37 -37.03 0c-6.24,0 -10.84,-1.39 -13.96,-4.18 -3.12,-2.8 -4.73,-7.41 -4.73,-13.75l0 -46.26c0,-6.13 1.61,-10.53 4.73,-13.11 3.12,-2.57 7.83,-3.87 14.07,-3.87l37.26 0c0,-11.37 0.1,-22.75 0.31,-34.03 0.22,-11.38 0.32,-22.75 0.32,-34.13 0,-4.3 1.3,-7.74 3.97,-10.2 2.7,-2.47 6.88,-4.63 12.35,-6.66 3.65,-1.3 8.05,-2.79 13.2,-4.61 5.16,-1.83 10.42,-3.65 15.9,-5.37 5.47,-1.72 10.73,-3.12 15.89,-4.31 5.15,-1.17 9.44,-1.82 12.88,-1.82 6.55,0 10.95,1.82 12.99,5.47 2.04,3.65 3.01,8.49 3.01,14.6 0,13.54 0,27.06 0,40.49 0,13.52 0,27.05 0,40.57l46.38 0c5.58,0 9.87,1.4 12.88,4.31 3,2.89 4.51,7.51 4.51,13.62l0 44.03c0,6.75 -1.51,11.7 -4.51,14.71 -3.01,2.99 -7.3,4.5 -12.88,4.5l-46.38 0c0,13.96 0,25.78 0,35.43 0,9.66 0,18.15 0,25.55 0,7.41 0,14.39 0,20.84 0,6.43 0,13.41 0,20.93 0,7.51 0,16.1 0,25.77 0,9.66 0,21.46 0,35.42 0,0.43 0,0.87 0,1.3 0,0.42 0,0.85 0,1.29l0 42.19c0,14.17 2.78,24.36 8.26,30.59 5.59,6.23 14.61,9.34 26.95,9.34 4.51,0 7.95,1.61 10.52,4.84 2.58,3.22 3.86,7.09 3.86,11.69l0 44.88c0,5.69 -1.49,9.99 -4.61,13.1 -3.11,3.12 -7.51,4.73 -13.09,4.73zm451.88 -12.24c0,2.37 -0.85,4.19 -2.46,5.47 -1.62,1.29 -3.55,2.14 -5.91,2.69 -2.47,0.53 -5.04,0.85 -7.84,0.96 -2.79,0.11 -5.25,0.21 -7.41,0.21l-32.63 0c-6.23,0 -10.85,-2.03 -13.85,-6 -3.01,-3.97 -5.15,-8.49 -6.23,-13.63l-3.54 -29.32c-4.72,7.08 -10.63,13.85 -17.72,20.41 -7.09,6.54 -15.45,12.33 -25.12,17.38 -9.66,5.05 -20.83,9.13 -33.39,12.14 -12.56,3.01 -26.84,4.5 -42.73,4.5 -25.55,0 -48.2,-4.61 -67.74,-13.74 -19.54,-9.12 -35.97,-21.58 -49.18,-37.36 -13.2,-15.79 -23.29,-34.46 -30.16,-55.94 -6.87,-21.47 -10.31,-44.56 -10.31,-69.24l0 -215.04c0,-7.74 1.82,-13.54 5.47,-17.51 3.65,-3.97 8.92,-6.01 15.9,-6.01l49.06 0c8.7,0 14.38,1.6 17.29,4.83 2.89,3.22 4.39,8.91 4.39,17.07l0 215.05c0,11.37 1.83,22.54 5.37,33.38 3.55,10.84 8.81,20.62 15.9,29.21 7.08,8.58 15.99,15.46 26.62,20.61 10.62,5.16 22.97,7.73 37.14,7.73 9.89,0 20.19,-1.72 30.92,-5.16 10.74,-3.43 20.52,-8.68 29.32,-15.77 8.79,-7.09 16.09,-16 21.9,-26.63 5.8,-10.63 8.7,-23.08 8.7,-37.26l0 -209.25c0,-3.86 0.21,-7.72 0.64,-11.69 0.43,-3.97 1.4,-7.62 2.78,-10.95 1.4,-3.33 3.33,-6.02 5.81,-8.06 2.47,-2.04 5.8,-3.11 10.19,-3.11l53.26 0c7.19,0 12.35,1.71 15.67,5.15 3.33,3.43 5.05,8.27 5.05,14.49l0 370.73c0,4.29 -1.72,7.51 -5.16,9.66zm94.38 -377.81c0,-6.23 2.15,-10.95 6.33,-14.17 4.18,-3.22 8.8,-4.84 13.75,-4.84l41.22 0c5.37,0 9.56,1.62 12.34,4.84 2.8,3.22 4.94,7.19 6.45,11.92 1.5,4.72 2.57,9.77 3.22,15.24 0.64,5.48 1.4,10.53 2.36,15.03 4.73,-6.65 10.1,-13.2 16,-19.53 5.9,-6.34 12.56,-11.92 20.07,-16.87 7.52,-4.94 16,-8.91 25.45,-11.9 9.44,-3.02 20.18,-4.52 32.21,-4.52 10.73,0 20.39,0.64 28.98,2.04 8.6,1.4 16.86,3.54 24.7,6.45 7.83,2.89 15.45,6.64 22.98,11.26 7.51,4.63 15.56,10.1 24.15,16.32 3.65,2.36 6.88,5.05 9.55,8.06 2.69,3 3.97,6.54 3.97,10.62 -0.21,1.72 -0.53,3.54 -0.96,5.47 -0.42,1.95 -1.29,3.88 -2.58,5.81l-26.4 41.87c-1.72,2.15 -3.65,3.65 -5.9,4.61 -2.27,0.97 -4.31,1.51 -6.03,1.51 -3.43,0 -6.76,-0.86 -9.97,-2.58 -7.09,-3.86 -13.54,-7.51 -19.33,-10.95 -5.8,-3.43 -11.49,-6.44 -17.07,-8.91 -5.59,-2.48 -11.28,-4.41 -17.18,-5.79 -5.9,-1.4 -12.56,-2.04 -19.86,-2.04 -19.12,0 -35.22,6.11 -48.43,18.36 -13.2,12.23 -22.11,29.09 -26.62,50.56l0 242.85c0,12.88 -6.65,19.33 -20.08,19.33l-53.24 0c-13.43,0 -20.08,-6.45 -20.08,-19.33l0 -370.72zm762.69 371.04c0,3.87 -0.85,6.98 -2.46,9.46 -1.62,2.46 -3.65,4.39 -6.22,5.79 -2.59,1.4 -5.6,2.36 -8.92,2.9 -3.33,0.54 -6.87,0.86 -10.52,0.86l-40.38 0c-6.96,0 -11.69,-1.83 -14.38,-5.48 -2.68,-3.65 -4.72,-8.27 -6.01,-13.85l-1.93 -27.27c-7.52,7.51 -15.79,14.6 -24.91,21.15 -9.13,6.66 -19,12.35 -29.52,17.17 -10.53,4.84 -21.69,8.6 -33.51,11.29 -11.8,2.68 -23.93,4.07 -36.39,4.07 -19.33,0 -37.9,-2.58 -55.83,-7.62 -17.93,-5.04 -34.78,-12.13 -50.46,-21.26 -15.66,-9.12 -29.84,-20.07 -42.61,-32.95 -12.78,-13 -23.74,-27.27 -32.87,-42.95 -9.12,-15.68 -16.21,-32.53 -21.24,-50.57 -5.05,-18.03 -7.64,-36.83 -7.64,-56.47 0,-19.54 2.59,-38.33 7.64,-56.37 5.03,-18.04 12.12,-34.89 21.24,-50.57 9.13,-15.66 20.09,-29.94 32.87,-42.72 12.77,-12.77 26.95,-23.74 42.61,-32.86 15.68,-9.13 32.53,-16.21 50.46,-21.25 17.93,-5.05 36.5,-7.63 55.83,-7.63 13.75,0 26.84,1.4 39.3,4.3 12.45,2.89 24.15,6.98 34.99,12.24 10.85,5.25 20.84,11.59 30.07,19 9.23,7.4 17.61,15.57 25.12,24.38l4.51 -34.69c1.07,-3.87 2.15,-7.09 3.11,-9.55 0.97,-2.47 2.15,-4.51 3.55,-6.01 1.39,-1.51 3.22,-2.48 5.36,-3.01 2.15,-0.53 4.84,-0.85 8.06,-0.85l32.31 0c3.43,0 6.87,0.32 10.31,0.95 3.43,0.64 6.66,1.62 9.44,3.02 2.8,1.39 4.94,3.43 6.56,5.9 1.61,2.46 2.46,5.47 2.46,9.12l0 372.33zm-334.96 -185.85c0,17.19 3,33.4 9.02,48.75 6.01,15.36 14.39,28.88 25.12,40.48 10.63,11.59 23.3,20.71 37.79,27.48 14.39,6.77 30.27,10.21 47.45,10.21 17.3,0 33.61,-3.44 48.64,-10.21 15.13,-6.77 28.35,-15.89 39.4,-27.48 11.17,-11.6 19.97,-25.12 26.41,-40.48 6.44,-15.35 9.67,-31.56 9.67,-48.75 0,-16.95 -3.23,-33.17 -9.67,-48.51 -6.44,-15.36 -15.24,-28.77 -26.41,-40.38 -11.05,-11.59 -24.27,-20.82 -39.4,-27.69 -15.03,-6.88 -31.34,-10.31 -48.64,-10.31 -17.18,0 -33.06,3.43 -47.45,10.31 -14.49,6.87 -27.16,16.1 -37.79,27.69 -10.73,11.61 -19.11,25.02 -25.12,40.38 -6.02,15.34 -9.02,31.56 -9.02,48.51zm419.03 -306.61c0,-5.59 1.51,-10.2 4.5,-13.85 3.01,-3.65 7.64,-5.48 13.96,-5.48l56.49 0c4.39,0 8.36,1.83 12.12,5.48 3.75,3.65 5.69,8.26 5.69,13.85l0 492.14c0,6.45 -1.83,11.28 -5.37,14.49 -3.55,3.23 -8.26,4.84 -14.39,4.84l-53.88 0c-6.98,0 -11.82,-1.61 -14.72,-4.84 -2.89,-3.21 -4.4,-8.04 -4.4,-14.49l0 -492.14zm397.13 104.35c2.89,-1.39 5.69,-2.36 8.59,-2.68 2.89,-0.32 5.8,-0.53 8.58,-0.53l32.64 0c6.45,0 11.07,1.82 13.75,5.47 2.67,3.65 4.62,8.37 5.69,13.95l6.76 39.51c7.52,-8.59 15.45,-16.75 23.94,-24.47 8.49,-7.74 17.93,-14.6 28.24,-20.62 10.19,-6.01 21.58,-10.85 34.04,-14.39 12.45,-3.54 26.4,-5.26 41.87,-5.26 19.54,0 38.11,2.58 55.82,7.63 17.72,5.04 34.25,12.12 49.49,21.25 15.36,9.12 29.31,20.09 41.76,32.86 12.35,12.78 23.09,27.06 32,42.72 8.91,15.68 15.79,32.53 20.62,50.57 4.83,18.04 7.2,36.83 7.2,56.37 0,19.64 -2.37,38.44 -7.2,56.47 -4.83,18.04 -11.71,34.89 -20.62,50.57 -8.91,15.68 -19.65,29.95 -32.1,42.95 -12.46,12.88 -26.3,23.83 -41.66,32.95 -15.34,9.13 -31.98,16.22 -49.81,21.26 -17.82,5.04 -36.4,7.62 -55.72,7.62 -13.96,0 -26.73,-1.5 -38.44,-4.51 -11.7,-3 -22.54,-7.2 -32.53,-12.44 -9.98,-5.27 -19.21,-11.39 -27.7,-18.48 -8.48,-6.98 -16.53,-14.49 -24.04,-22.43l0 157.07c0,5.15 -1.61,9.55 -4.84,13.2 -3.22,3.65 -8.04,5.47 -14.49,5.47l-53.47 0c-4.51,0 -8.91,-1.72 -13.31,-5.05 -4.4,-3.31 -6.66,-7.83 -6.66,-13.62l0 -497.31c0,-4.5 1.08,-8.04 3.12,-10.63 2.03,-2.57 4.83,-4.4 8.48,-5.47zm318.86 202.26c0,-16.95 -3,-33.17 -9.13,-48.51 -6.11,-15.36 -14.49,-28.77 -25.11,-40.27 -10.52,-11.48 -23.19,-20.61 -37.68,-27.38 -14.6,-6.76 -30.28,-10.08 -47.25,-10.08 -16.96,0 -32.85,3.32 -47.67,9.98 -14.92,6.66 -28.02,15.57 -39.19,26.84 -11.27,11.27 -20.29,24.47 -27.05,39.51 -6.76,15.03 -10.19,30.92 -10.41,47.66l0 2.25c0,17.19 3.21,33.51 9.77,48.97 6.55,15.46 15.46,28.99 26.73,40.58 11.17,11.6 24.37,20.83 39.51,27.69 15.03,6.88 31.14,10.31 48.31,10.31 16.97,0 32.65,-3.43 47.25,-10.31 14.49,-6.86 27.16,-16.09 37.68,-27.69 10.62,-11.59 19,-25.12 25.11,-40.58 6.13,-15.46 9.13,-31.78 9.13,-48.97zm576.2 185.85c0,3.87 -0.85,6.98 -2.46,9.46 -1.61,2.46 -3.65,4.39 -6.22,5.79 -2.59,1.4 -5.6,2.36 -8.91,2.9 -3.33,0.54 -6.88,0.86 -10.53,0.86l-40.37 0c-6.97,0 -11.7,-1.83 -14.39,-5.48 -2.68,-3.65 -4.72,-8.27 -6.01,-13.85l-1.93 -27.27c-7.51,7.51 -15.78,14.6 -24.91,21.15 -9.12,6.66 -19,12.35 -29.52,17.17 -10.52,4.84 -21.69,8.6 -33.5,11.29 -11.8,2.68 -23.94,4.07 -36.4,4.07 -19.32,0 -37.89,-2.58 -55.82,-7.62 -17.94,-5.04 -34.79,-12.13 -50.47,-21.26 -15.66,-9.12 -29.83,-20.07 -42.61,-32.95 -12.77,-13 -23.74,-27.27 -32.86,-42.95 -9.13,-15.68 -16.22,-32.53 -21.25,-50.57 -5.05,-18.03 -7.63,-36.83 -7.63,-56.47 0,-19.54 2.58,-38.33 7.63,-56.37 5.03,-18.04 12.12,-34.89 21.25,-50.57 9.12,-15.66 20.09,-29.94 32.86,-42.72 12.78,-12.77 26.95,-23.74 42.61,-32.86 15.68,-9.13 32.53,-16.21 50.47,-21.25 17.93,-5.05 36.5,-7.63 55.82,-7.63 13.75,0 26.85,1.4 39.3,4.3 12.46,2.89 24.15,6.98 35,12.24 10.84,5.25 20.83,11.59 30.06,19 9.23,7.4 17.61,15.57 25.13,24.38l4.5 -34.69c1.08,-3.87 2.16,-7.09 3.12,-9.55 0.97,-2.47 2.14,-4.51 3.54,-6.01 1.4,-1.51 3.22,-2.48 5.37,-3.01 2.14,-0.53 4.83,-0.85 8.06,-0.85l32.3 0c3.44,0 6.87,0.32 10.31,0.95 3.44,0.64 6.66,1.62 9.45,3.02 2.79,1.39 4.94,3.43 6.55,5.9 1.61,2.46 2.46,5.47 2.46,9.12l0 372.33zm-334.96 -185.85c0,17.19 3,33.4 9.02,48.75 6.01,15.36 14.39,28.88 25.13,40.48 10.63,11.59 23.29,20.71 37.79,27.48 14.38,6.77 30.26,10.21 47.45,10.21 17.29,0 33.61,-3.44 48.63,-10.21 15.14,-6.77 28.35,-15.89 39.41,-27.48 11.16,-11.6 19.97,-25.12 26.4,-40.48 6.45,-15.35 9.67,-31.56 9.67,-48.75 0,-16.95 -3.22,-33.17 -9.67,-48.51 -6.43,-15.36 -15.24,-28.77 -26.4,-40.38 -11.06,-11.59 -24.27,-20.82 -39.41,-27.69 -15.02,-6.88 -31.34,-10.31 -48.63,-10.31 -17.19,0 -33.07,3.43 -47.45,10.31 -14.5,6.87 -27.16,16.1 -37.79,27.69 -10.74,11.61 -19.12,25.02 -25.13,40.38 -6.02,15.34 -9.02,31.56 -9.02,48.51zm418.39 -185.19c0,-6.23 2.15,-10.95 6.33,-14.17 4.19,-3.22 8.81,-4.84 13.75,-4.84l41.23 0c5.37,0 9.55,1.62 12.33,4.84 2.8,3.22 4.95,7.19 6.45,11.92 1.51,4.72 2.57,9.77 3.23,15.24 0.63,5.48 1.39,10.53 2.35,15.03 4.73,-6.65 10.1,-13.2 16,-19.53 5.9,-6.34 12.56,-11.92 20.08,-16.87 7.51,-4.94 16,-8.91 25.44,-11.9 9.45,-3.02 20.18,-4.52 32.21,-4.52 10.74,0 20.4,0.64 28.99,2.04 8.59,1.4 16.85,3.54 24.7,6.45 7.83,2.89 15.45,6.64 22.97,11.26 7.52,4.63 15.56,10.1 24.16,16.32 3.65,2.36 6.87,5.05 9.55,8.06 2.69,3 3.97,6.54 3.97,10.62 -0.22,1.72 -0.54,3.54 -0.96,5.47 -0.43,1.95 -1.29,3.88 -2.59,5.81l-26.4 41.87c-1.72,2.15 -3.65,3.65 -5.9,4.61 -2.27,0.97 -4.3,1.51 -6.02,1.51 -3.44,0 -6.77,-0.86 -9.98,-2.58 -7.09,-3.86 -13.53,-7.51 -19.33,-10.95 -5.79,-3.43 -11.48,-6.44 -17.06,-8.91 -5.6,-2.48 -11.29,-4.41 -17.19,-5.79 -5.9,-1.4 -12.56,-2.04 -19.86,-2.04 -19.11,0 -35.22,6.11 -48.42,18.36 -13.2,12.23 -22.11,29.09 -26.63,50.56l0 242.85c0,12.88 -6.65,19.33 -20.08,19.33l-53.24 0c-13.43,0 -20.08,-6.45 -20.08,-19.33l0 -370.72zm762.7 371.04c0,3.87 -0.86,6.98 -2.47,9.46 -1.61,2.46 -3.65,4.39 -6.22,5.79 -2.58,1.4 -5.6,2.36 -8.91,2.9 -3.33,0.54 -6.88,0.86 -10.53,0.86l-40.37 0c-6.97,0 -11.7,-1.83 -14.39,-5.48 -2.68,-3.65 -4.71,-8.27 -6.01,-13.85l-1.93 -27.27c-7.51,7.51 -15.78,14.6 -24.91,21.15 -9.12,6.66 -19,12.35 -29.52,17.17 -10.52,4.84 -21.69,8.6 -33.5,11.29 -11.8,2.68 -23.94,4.07 -36.4,4.07 -19.32,0 -37.89,-2.58 -55.82,-7.62 -17.93,-5.04 -34.79,-12.13 -50.46,-21.26 -15.67,-9.12 -29.84,-20.07 -42.62,-32.95 -12.77,-13 -23.74,-27.27 -32.86,-42.95 -9.13,-15.68 -16.21,-32.53 -21.25,-50.57 -5.05,-18.03 -7.63,-36.83 -7.63,-56.47 0,-19.54 2.58,-38.33 7.63,-56.37 5.04,-18.04 12.12,-34.89 21.25,-50.57 9.12,-15.66 20.09,-29.94 32.86,-42.72 12.78,-12.77 26.95,-23.74 42.62,-32.86 15.67,-9.13 32.53,-16.21 50.46,-21.25 17.93,-5.05 36.5,-7.63 55.82,-7.63 13.75,0 26.85,1.4 39.3,4.3 12.46,2.89 24.15,6.98 35,12.24 10.84,5.25 20.83,11.59 30.06,19 9.23,7.4 17.61,15.57 25.13,24.38l4.5 -34.69c1.08,-3.87 2.16,-7.09 3.12,-9.55 0.97,-2.47 2.14,-4.51 3.54,-6.01 1.4,-1.51 3.22,-2.48 5.37,-3.01 2.14,-0.53 4.83,-0.85 8.06,-0.85l32.3 0c3.44,0 6.88,0.32 10.31,0.95 3.44,0.64 6.66,1.62 9.45,3.02 2.79,1.39 4.94,3.43 6.55,5.9 1.61,2.46 2.47,5.47 2.47,9.12l0 372.33zm-334.97 -185.85c0,17.19 3,33.4 9.02,48.75 6.01,15.36 14.39,28.88 25.13,40.48 10.63,11.59 23.3,20.71 37.79,27.48 14.39,6.77 30.26,10.21 47.45,10.21 17.29,0 33.61,-3.44 48.63,-10.21 15.14,-6.77 28.35,-15.89 39.41,-27.48 11.16,-11.6 19.97,-25.12 26.4,-40.48 6.45,-15.35 9.67,-31.56 9.67,-48.75 0,-16.95 -3.22,-33.17 -9.67,-48.51 -6.43,-15.36 -15.24,-28.77 -26.4,-40.38 -11.06,-11.59 -24.27,-20.82 -39.41,-27.69 -15.02,-6.88 -31.34,-10.31 -48.63,-10.31 -17.19,0 -33.06,3.43 -47.45,10.31 -14.49,6.87 -27.16,16.1 -37.79,27.69 -10.74,11.61 -19.12,25.02 -25.13,40.38 -6.02,15.34 -9.02,31.56 -9.02,48.51zm633.23 -202.26c2.89,-1.39 5.68,-2.36 8.59,-2.68 2.89,-0.32 5.79,-0.53 8.58,-0.53l32.63 0c6.45,0 11.07,1.82 13.75,5.47 2.68,3.65 4.62,8.37 5.69,13.95l6.77 39.51c7.51,-8.59 15.45,-16.75 23.93,-24.47 8.49,-7.74 17.94,-14.6 28.25,-20.62 10.19,-6.01 21.58,-10.85 34.03,-14.39 12.46,-3.54 26.4,-5.26 41.87,-5.26 19.54,0 38.11,2.58 55.83,7.63 17.72,5.04 34.25,12.12 49.49,21.25 15.36,9.12 29.3,20.09 41.76,32.86 12.35,12.78 23.08,27.06 32,42.72 8.91,15.68 15.78,32.53 20.62,50.57 4.82,18.04 7.19,36.83 7.19,56.37 0,19.64 -2.37,38.44 -7.19,56.47 -4.84,18.04 -11.71,34.89 -20.62,50.57 -8.92,15.68 -19.65,29.95 -32.11,42.95 -12.45,12.88 -26.29,23.83 -41.65,32.95 -15.35,9.13 -31.99,16.22 -49.81,21.26 -17.82,5.04 -36.41,7.62 -55.72,7.62 -13.96,0 -26.74,-1.5 -38.45,-4.51 -11.69,-3 -22.54,-7.2 -32.53,-12.44 -9.98,-5.27 -19.21,-11.39 -27.69,-18.48 -8.49,-6.98 -16.53,-14.49 -24.05,-22.43l0 157.07c0,5.15 -1.61,9.55 -4.83,13.2 -3.23,3.65 -8.05,5.47 -14.5,5.47l-53.47 0c-4.5,0 -8.91,-1.72 -13.31,-5.05 -4.39,-3.31 -6.66,-7.83 -6.66,-13.62l0 -497.31c0,-4.5 1.08,-8.04 3.12,-10.63 2.04,-2.57 4.84,-4.4 8.49,-5.47zm318.85 202.26c0,-16.95 -3,-33.17 -9.12,-48.51 -6.12,-15.36 -14.5,-28.77 -25.11,-40.27 -10.53,-11.48 -23.2,-20.61 -37.69,-27.38 -14.6,-6.76 -30.28,-10.08 -47.25,-10.08 -16.96,0 -32.85,3.32 -47.66,9.98 -14.92,6.66 -28.03,15.57 -39.19,26.84 -11.27,11.27 -20.29,24.47 -27.06,39.51 -6.75,15.03 -10.19,30.92 -10.4,47.66l0 2.25c0,17.19 3.21,33.51 9.76,48.97 6.56,15.46 15.47,28.99 26.74,40.58 11.16,11.6 24.36,20.83 39.51,27.69 15.02,6.88 31.13,10.31 48.3,10.31 16.97,0 32.65,-3.43 47.25,-10.31 14.49,-6.86 27.16,-16.09 37.69,-27.69 10.61,-11.59 18.99,-25.12 25.11,-40.58 6.12,-15.46 9.12,-31.78 9.12,-48.97z"/>
   <path class="fil1" d="M16739.68 3616.44c-18.89,16.21 -39.51,28.99 -61.95,38.32 -22.43,9.34 -47.13,13.96 -73.97,13.96 -28.98,0 -56.47,-5.47 -82.46,-16.42 -25.97,-10.95 -48.74,-25.99 -68.28,-45.09 -19.53,-19.23 -34.99,-41.55 -46.48,-67.21 -11.49,-25.77 -17.29,-53.36 -17.29,-83.1 0,-19.11 2.36,-37.57 7.09,-55.4 4.73,-17.82 11.48,-34.57 20.18,-50.14 8.7,-15.57 19.22,-29.84 31.68,-42.84 12.45,-12.99 26.4,-24.15 41.76,-33.38 15.35,-9.23 32,-16.32 49.93,-21.37 17.91,-5.05 36.82,-7.62 56.79,-7.62 16.31,0 32.42,1.93 48.31,5.9 15.89,3.97 31.03,9.66 45.31,16.96 14.28,7.3 27.58,16.1 40.04,26.52 12.46,10.42 23.41,22.22 32.85,35.33 12.88,18.04 22.34,37.46 28.35,58.29 6.01,20.84 9.02,43.91 9.02,69.25 0,6.23 -0.22,11.39 -0.75,15.57 -0.55,4.18 -1.93,7.62 -4.09,10.2 -2.14,2.57 -5.37,4.4 -9.66,5.58 -4.29,1.18 -10.31,1.83 -18.03,1.83l-285.69 0c2.78,15.35 8.15,29.09 16,40.9 7.83,11.92 17.06,21.91 27.8,30.17 10.74,8.27 22.43,14.49 35.1,18.67 12.67,4.2 25.34,6.24 38.01,6.24 9.67,0 19.01,-0.97 27.92,-2.91 8.91,-1.93 17.17,-4.5 24.91,-7.72 7.72,-3.23 14.92,-6.98 21.47,-11.17 6.54,-4.18 12.23,-8.48 17.17,-12.98 0,-0.22 0.11,-0.34 0.32,-0.34 2.59,-2.35 5.05,-4.29 7.41,-5.68 2.37,-1.39 4.83,-2.04 7.42,-2.04 1.93,0 4.18,0.65 6.65,1.93 2.47,1.29 4.83,3.44 7.19,6.45 5.79,7.08 10.74,12.98 14.81,17.71 4.09,4.72 7.42,8.69 9.99,11.91 2.57,3.23 4.51,6.02 5.69,8.38 1.19,2.36 1.72,4.84 1.72,7.2 0,6 -4.08,12.13 -12.24,18.14zm-143 -290.42c-12.67,0 -25.02,2.26 -37.05,6.88 -12.02,4.61 -22.97,10.84 -32.96,18.78 -9.97,7.95 -18.67,17.29 -26.08,27.92 -7.41,10.74 -12.88,22.22 -16.32,34.68l228.03 0c-3.43,-13.1 -8.59,-25.02 -15.57,-35.76 -6.97,-10.84 -15.45,-20.18 -25.34,-27.91 -9.87,-7.84 -21.14,-13.85 -33.81,-18.14 -12.66,-4.3 -26.3,-6.45 -40.9,-6.45zm427.74 335.62c-16.97,-0.22 -32.87,-2.8 -47.78,-7.73 -14.92,-4.94 -27.91,-12.13 -38.98,-21.47 -11.06,-9.34 -19.86,-20.84 -26.3,-34.46 -6.45,-13.65 -9.66,-29.2 -9.66,-46.6l0 -53.26 -0.33 -164.37 -37.03 0c-6.24,0 -10.85,-1.39 -13.96,-4.18 -3.12,-2.8 -4.73,-7.41 -4.73,-13.75l0 -46.26c0,-6.13 1.61,-10.53 4.73,-13.11 3.11,-2.57 7.83,-3.87 14.06,-3.87l37.26 0c0,-11.37 0.11,-22.75 0.32,-34.03 0.22,-11.38 0.32,-22.75 0.32,-34.13 0,-4.3 1.3,-7.74 3.97,-10.2 2.69,-2.47 6.88,-4.63 12.35,-6.66 3.65,-1.3 8.05,-2.79 13.2,-4.61 5.16,-1.83 10.42,-3.65 15.89,-5.37 5.48,-1.72 10.74,-3.12 15.9,-4.31 5.15,-1.17 9.44,-1.82 12.88,-1.82 6.55,0 10.95,1.82 12.99,5.47 2.03,3.65 3.01,8.49 3.01,14.6 0,13.54 0,27.06 0,40.49 0,13.52 0,27.05 0,40.57l46.38 0c5.58,0 9.87,1.4 12.88,4.31 3,2.89 4.51,7.51 4.51,13.62l0 44.03c0,6.75 -1.51,11.7 -4.51,14.71 -3.01,2.99 -7.3,4.5 -12.88,4.5l-46.38 0c0,13.96 0,25.78 0,35.43 0,9.66 0,18.15 0,25.55 0,7.41 0,14.39 0,20.84 0,6.43 0,13.41 0,20.93 0,7.51 0,16.1 0,25.77 0,9.66 0,21.46 0,35.42 0,0.43 0,0.87 0,1.3 0,0.42 0,0.85 0,1.29l0 42.19c0,14.17 2.78,24.36 8.26,30.59 5.59,6.23 14.61,9.34 26.95,9.34 4.51,0 7.95,1.61 10.52,4.84 2.58,3.22 3.86,7.09 3.86,11.69l0 44.88c0,5.69 -1.49,9.99 -4.61,13.1 -3.11,3.12 -7.51,4.73 -13.09,4.73zm139.14 -114.67c4.51,7.09 10.2,13.21 17.08,18.37 6.86,5.14 13.94,9.34 21.14,12.67 7.19,3.31 14.06,5.79 20.62,7.3 6.54,1.5 11.69,2.25 15.56,2.25 6.02,0 13.1,-0.64 21.26,-1.93 8.16,-1.3 15.89,-3.65 23.08,-6.98 7.2,-3.33 13.31,-7.84 18.36,-13.52 5.05,-5.71 7.51,-13.01 7.51,-21.81 0,-8.58 -1.93,-15.56 -5.9,-20.93 -3.97,-5.37 -9.34,-9.88 -16.1,-13.43 -6.77,-3.54 -14.5,-6.54 -23.2,-8.91 -8.7,-2.36 -17.93,-4.93 -27.58,-7.72 -22.56,-6.01 -41.77,-13.21 -57.66,-21.8 -15.89,-8.48 -28.88,-18.14 -39.08,-29.2 -10.19,-10.95 -17.72,-22.98 -22.44,-36.07 -4.72,-13.1 -7.08,-27.48 -7.08,-42.95 0,-17.4 3.43,-33.38 10.31,-47.77 6.98,-14.39 16.64,-26.73 29.09,-37.05 12.56,-10.41 27.59,-18.35 45.09,-24.04 17.49,-5.69 36.93,-8.59 58.19,-8.59 15.03,0 28.45,1.29 40.26,3.97 11.81,2.69 22.76,6.76 32.86,12.13 10.08,5.37 19.64,12.14 28.55,20.29 8.91,8.17 17.93,17.72 27.16,28.67 3.22,3.86 4.84,7.62 4.84,11.27 0,3.86 -2.15,7.51 -6.44,10.95 -3.22,2.58 -6.98,5.81 -11.39,9.67 -4.39,3.86 -8.8,7.62 -13.09,11.27 -4.29,3.65 -8.38,6.77 -12.25,9.34 -3.86,2.58 -7.08,3.86 -9.65,3.86 -4.73,0 -9.34,-2.78 -13.86,-8.37 -4.71,-5.58 -9.44,-10.52 -14.17,-14.7 -4.72,-4.2 -9.66,-7.63 -14.81,-10.31 -5.16,-2.69 -10.74,-4.73 -16.75,-6.13 -6.02,-1.39 -12.56,-2.04 -19.65,-2.04 -5.79,0 -11.81,0.87 -18.14,2.59 -6.34,1.71 -12.14,4.29 -17.4,7.72 -5.26,3.44 -9.66,7.52 -13.2,12.35 -3.54,4.84 -5.37,10.31 -5.37,16.32 0,6.87 2.15,12.67 6.56,17.5 4.39,4.83 9.97,9.02 16.74,12.57 6.77,3.54 14.07,6.54 22.01,8.89 7.94,2.38 15.36,4.52 22.22,6.45 19.75,5.58 37.79,12.03 54.32,19.33 16.55,7.3 30.71,16.11 42.63,26.51 11.92,10.42 21.15,22.66 27.8,36.73 6.66,14.06 9.99,30.59 9.99,49.48 0,19.97 -3.97,37.8 -11.92,53.58 -7.94,15.79 -18.89,29.2 -32.96,40.15 -14.07,10.95 -30.7,19.33 -49.93,25.13 -19.21,5.79 -40.15,8.69 -62.69,8.69 -13.53,0 -27.26,-1.39 -41.22,-4.29 -13.97,-2.9 -27.27,-7.42 -40.05,-13.42 -12.77,-6.12 -24.59,-13.86 -35.43,-23.3 -10.85,-9.55 -19.97,-20.72 -27.27,-33.7 -3.22,-5.37 -4.84,-10.21 -4.84,-14.51 0,-2.79 0.76,-5.25 2.15,-7.3 1.4,-2.04 3.22,-3.97 5.59,-5.9l36.08 -27.7c3.21,-1.93 6.11,-2.9 8.68,-2.9 3.01,0 5.69,0.97 8.06,3.01 2.36,2.04 4.94,4.84 7.73,8.26z"/>
  </g>
 </g>
</svg>
