<?xml version="1.0" encoding="UTF-8"?>
<!DOCTYPE svg PUBLIC "-//W3C//DTD SVG 1.1//EN" "http://www.w3.org/Graphics/SVG/1.1/DTD/svg11.dtd">
<!-- Creator: CorelDRAW 2020 (64 Bit) -->
<svg xmlns="http://www.w3.org/2000/svg" xml:space="preserve" width="150mm" height="100mm" version="1.1" style="shape-rendering:geometricPrecision; text-rendering:geometricPrecision; image-rendering:optimizeQuality; fill-rule:evenodd; clip-rule:evenodd"
viewBox="0 0 15000 10000"
 xmlns:xlink="http://www.w3.org/1999/xlink"
 xmlns:xodm="http://www.corel.com/coreldraw/odm/2003">
 <defs>
  <style type="text/css">
   <![CDATA[
    .fil0 {fill:#EEB506;fill-rule:nonzero}
    .fil1 {fill:#F34D3D;fill-rule:nonzero}
   ]]>
  </style>
 </defs>
 <g id="Camada_x0020_1">
  <metadata id="CorelCorpID_0Corel-Layer"/>
  <g id="_2545127390800">
   <path class="fil0" d="M934.85 2627.58l68.79 0 0 361.13c0,584.7 -257.94,808.27 -257.94,1281.17 0,378.34 283.74,507.31 834.04,507.31 550.31,0 842.66,-128.97 842.66,-507.31 0,-472.9 -266.55,-696.47 -266.55,-1281.17l0 -361.13 275.14 0c206.36,0 361.13,-163.36 361.13,-361.14 0,-197.76 -154.77,-361.13 -361.13,-361.13l-249.36 0c51.6,-498.7 206.37,-1109.19 507.32,-1109.19 214.95,0 326.73,128.97 378.33,593.28 77.39,644.88 1650.9,455.72 1427.34,-197.76 -163.37,-498.71 -963.02,-834.05 -1616.5,-834.05 -868.45,0 -1685.31,524.51 -1848.68,1547.72l-94.59 0c-197.76,0 -361.12,163.37 -361.12,361.13 0,197.78 163.36,361.14 361.12,361.14zm3723.13 2149.61c945.83,0 1711.09,-636.28 1711.09,-1435.93 0,-791.06 -765.26,-1435.95 -1711.09,-1435.95 -945.83,0 -1711.09,644.89 -1711.09,1435.95 0,799.65 765.26,1435.93 1711.09,1435.93zm0 -2441.96c197.76,0 352.53,455.72 352.53,1006.03 0,558.89 -154.77,1006.01 -352.53,1006.01 -189.16,0 -343.94,-447.12 -343.94,-1006.01 0,-550.31 154.78,-1006.03 343.94,-1006.03zm3611.35 2441.96c945.83,0 1711.09,-636.28 1711.09,-1435.93 0,-791.06 -765.26,-1435.95 -1711.09,-1435.95 -945.83,0 -1711.09,644.89 -1711.09,1435.95 0,799.65 765.26,1435.93 1711.09,1435.93zm0 -2441.96c197.76,0 352.53,455.72 352.53,1006.03 0,558.89 -154.77,1006.01 -352.53,1006.01 -189.17,0 -343.94,-447.12 -343.94,-1006.01 0,-550.31 154.77,-1006.03 343.94,-1006.03zm3499.57 2441.96c309.54,0 601.89,-77.39 851.24,-214.95 120.39,154.77 378.33,214.95 748.07,214.95 550.31,0 842.64,-128.97 842.64,-507.31 0,-472.9 -266.55,-696.47 -266.55,-1281.17l0 -834.05c0,-584.69 266.55,-808.25 266.55,-1281.16 0,-378.33 -292.33,-515.91 -842.64,-515.91 -550.3,0 -842.65,137.58 -842.65,515.91 0,472.91 266.55,696.47 266.55,1281.16l0 77.38c-275.14,-206.35 -636.29,-326.73 -1023.21,-326.73 -885.64,0 -1599.31,644.89 -1599.31,1435.95 0,799.65 713.67,1435.93 1599.31,1435.93zm412.72 -2373.17c335.35,0 610.49,421.32 610.49,937.24 0,515.9 -275.14,937.22 -610.49,937.22 -326.74,0 -601.89,-421.32 -601.89,-937.22 0,-515.92 275.15,-937.24 601.89,-937.24z"/>
   <path class="fil0" d="M2230.98 7991.75c649.57,0 1215.87,-308.13 1482.37,-766.17 166.55,-291.46 -308.14,-374.75 -416.41,-191.53 -241.51,433.04 -1349.11,83.27 -1349.11,-841.12 0,-316.46 133.24,-566.3 283.15,-566.3 158.22,0 224.84,324.8 258.16,757.84 49.97,616.27 1532.34,349.77 1290.83,-274.82 -199.88,-541.32 -841.12,-899.41 -1548.99,-899.41 -916.07,0 -1657.25,624.59 -1657.25,1390.75 0,774.5 741.18,1390.76 1657.25,1390.76zm2956.41 0c449.7,0 757.83,-133.25 974.36,-299.8 124.91,191.55 341.44,299.8 582.94,299.8 324.8,0 741.19,-224.85 741.19,-532.98 0,-258.17 -308.13,-274.83 -308.13,-557.96l0 -499.68c0,-732.85 -866.1,-1190.89 -1548.99,-1190.89 -599.61,0 -1548.99,149.89 -1432.4,666.23 58.29,266.49 441.38,399.73 724.53,308.13 341.45,-124.93 266.5,-557.97 607.94,-557.97 274.81,0 449.7,308.13 508.01,716.19 -716.21,-341.44 -2223.56,158.24 -2081.98,932.74 108.26,591.28 732.85,716.19 1232.53,716.19zm874.43 -1190.89l0 308.14c-299.82,266.49 -691.23,391.4 -766.17,8.32 -41.64,-266.49 208.2,-566.3 766.17,-316.46zm1682.23 699.54c0,366.44 283.15,491.35 816.14,491.35 532.98,0 816.13,-124.91 816.13,-491.35 0,-358.09 -258.17,-399.73 -258.17,-957.7 0,-166.57 49.98,-474.69 216.53,-474.69 258.17,0 599.61,508.01 966.05,508.01 291.46,0 582.94,-241.51 666.23,-666.24 66.62,-341.45 -116.6,-699.54 -458.04,-699.54 -491.34,0 -782.82,374.75 -1140.93,433.04 0,-16.65 8.33,-41.62 8.33,-66.62 0,-799.47 -1690.56,-116.58 -1690.56,374.77 0,316.46 316.46,408.06 316.46,766.16 0,491.35 -258.17,458.04 -258.17,782.81zm4996.74 491.35c649.57,0 1215.87,-308.13 1482.37,-766.17 166.55,-291.46 -308.14,-374.75 -416.41,-191.53 -116.58,208.2 -466.35,241.51 -799.47,116.58 199.88,-416.39 1265.84,-274.82 1265.84,-907.74 0,-491.34 -682.88,-1032.65 -1532.33,-1032.65 -916.07,0 -1657.25,624.59 -1657.25,1390.75 0,774.5 741.18,1390.76 1657.25,1390.76zm316.46 -2198.56c0,266.48 -341.44,766.16 -383.08,1157.58 -208.2,-166.56 -358.1,-424.73 -358.1,-757.84 0,-682.89 741.18,-707.87 741.18,-399.74z"/>
   <g>
    <path class="fil1" d="M1098.99 9369.84c0,4.79 -1.05,8.62 -3.04,11.67 -1.99,3.04 -4.5,5.43 -7.67,7.15 -3.19,1.73 -6.91,2.91 -11,3.58 -4.11,0.66 -8.48,1.06 -12.98,1.06l-49.81 0c-8.59,0 -14.43,-2.26 -17.75,-6.76 -3.3,-4.5 -5.82,-10.2 -7.41,-17.09l-2.38 -33.64c-9.27,9.27 -19.48,18.01 -30.73,26.1 -11.26,8.21 -23.44,15.23 -36.42,21.18 -12.98,5.97 -26.75,10.6 -41.33,13.92 -14.56,3.3 -29.53,5.03 -44.9,5.03 -23.84,0 -46.75,-3.19 -68.87,-9.4 -22.12,-6.23 -42.91,-14.97 -62.25,-26.23 -19.33,-11.26 -36.81,-24.76 -52.57,-40.66 -15.76,-16.04 -29.29,-33.64 -40.54,-52.98 -11.26,-19.34 -20,-40.13 -26.21,-62.38 -6.23,-22.25 -9.42,-45.44 -9.42,-69.66 0,-24.11 3.19,-47.3 9.42,-69.55 6.21,-22.25 14.95,-43.04 26.21,-62.38 11.25,-19.33 24.78,-36.94 40.54,-52.7 15.76,-15.76 33.24,-29.29 52.57,-40.54 19.34,-11.26 40.13,-20 62.25,-26.21 22.12,-6.23 45.03,-9.42 68.87,-9.42 16.96,0 33.12,1.72 48.48,5.31 15.37,3.56 29.8,8.61 43.17,15.1 13.38,6.47 25.7,14.3 37.09,23.43 11.39,9.14 21.73,19.21 31,30.08l5.55 -42.8c1.33,-4.76 2.66,-8.74 3.85,-11.78 1.2,-3.04 2.64,-5.55 4.37,-7.41 1.72,-1.86 3.98,-3.06 6.62,-3.71 2.65,-0.66 5.97,-1.06 9.94,-1.06l39.85 0c4.24,0 8.48,0.4 12.72,1.19 4.24,0.79 8.22,1.99 11.66,3.71 3.45,1.73 6.09,4.24 8.08,7.28 1.99,3.04 3.04,6.76 3.04,11.26l0 459.31zm-413.22 -229.26c0,21.2 3.7,41.2 11.13,60.13 7.41,18.95 17.74,35.63 30.99,49.94 13.11,14.3 28.74,25.56 46.62,33.9 17.75,8.35 37.34,12.59 58.54,12.59 21.33,0 41.46,-4.24 60,-12.59 18.66,-8.34 34.97,-19.6 48.61,-33.9 13.77,-14.31 24.63,-30.99 32.57,-49.94 7.95,-18.93 11.93,-38.93 11.93,-60.13 0,-20.92 -3.98,-40.92 -11.93,-59.85 -7.94,-18.95 -18.8,-35.5 -32.57,-49.81 -13.64,-14.3 -29.95,-25.69 -48.61,-34.17 -18.54,-8.47 -38.67,-12.71 -60,-12.71 -21.2,0 -40.79,4.24 -58.54,12.71 -17.88,8.48 -33.51,19.87 -46.62,34.17 -13.25,14.31 -23.58,30.86 -30.99,49.81 -7.43,18.93 -11.13,38.93 -11.13,59.85zm516.93 -378.25c0,-6.9 1.86,-12.59 5.56,-17.09 3.71,-4.5 9.41,-6.75 17.22,-6.75l69.68 0c5.42,0 10.32,2.25 14.95,6.75 4.64,4.5 7.02,10.19 7.02,17.09l0 607.12c0,7.95 -2.25,13.92 -6.62,17.88 -4.37,3.98 -10.19,5.97 -17.75,5.97l-66.47 0c-8.62,0 -14.58,-1.99 -18.16,-5.97 -3.57,-3.96 -5.43,-9.93 -5.43,-17.88l0 -607.12zm225.68 150.58c0,-6.88 1.99,-12.72 5.97,-17.35 3.96,-4.64 9.79,-6.89 17.62,-6.89l66.08 0c2.92,0 5.96,0.54 9,1.73 3.06,1.2 5.84,2.91 8.22,5.16 2.38,2.25 4.37,4.91 5.96,7.82 1.58,2.91 2.39,6.1 2.39,9.53l0 456.54c0,15.89 -8.35,23.85 -25.18,23.85l-66.08 0c-16.02,0 -23.98,-7.96 -23.98,-23.85l0 -456.54zm0 -175.89c0,-16.02 7.83,-23.97 23.59,-23.97l66.88 0c7.54,0 13.51,1.98 18.01,5.96 4.5,3.98 6.76,9.94 6.76,18.01l0 59.34c0,6.1 -2.12,11.92 -6.36,17.36 -4.24,5.42 -10.21,8.2 -18.01,8.2l-66.89 0c-16.02,0 -23.98,-8.46 -23.98,-25.56l0 -59.34zm244.37 175.1c0,-9 3.45,-15.23 10.21,-18.53 6.75,-3.32 15.21,-4.92 25.29,-4.92l40.26 0c7.67,0 13.38,2.52 17.09,7.56 3.7,5.03 6.36,10.73 7.67,16.81l4.38 38.28c6.09,-9.14 13.11,-17.88 21.06,-26.22 7.94,-8.48 17.34,-15.89 28.34,-22.38 10.99,-6.36 23.84,-11.53 38.55,-15.36 14.69,-3.85 31.91,-5.84 51.52,-5.84 18.53,0 35.36,1.86 50.45,5.44 15.1,3.57 28.74,8.88 40.93,16.03 12.18,7.01 23.18,15.75 32.99,26.08 9.79,10.2 18.66,21.98 26.62,35.36 6.34,-12.44 14.95,-23.83 25.82,-34.3 10.86,-10.33 23.45,-19.21 37.61,-26.49 14.17,-7.28 29.8,-12.98 46.76,-16.96 16.95,-3.96 34.57,-5.95 52.85,-5.95 31.38,0 58.79,5.69 82.64,17.08 23.71,11.4 43.43,27.03 59.47,46.88 15.89,19.87 27.81,43.06 35.89,69.55 8.07,26.49 12.18,54.82 12.18,85.03l0 265.02c0,9.53 -2.25,16.68 -6.75,21.59 -4.51,4.9 -11,7.42 -19.61,7.42l-60.52 0c-10.73,0 -17.75,-1.99 -21.32,-5.97 -3.58,-3.96 -5.44,-10.99 -5.44,-21.05l0 -266.75c0,-14.03 -1.99,-27.67 -5.95,-40.92 -3.97,-13.11 -10.07,-24.91 -18.42,-35.1 -8.33,-10.21 -18.8,-18.41 -31.39,-24.64 -12.57,-6.22 -27.67,-9.26 -45.16,-9.26 -14.57,0 -28.08,2.51 -40.52,7.67 -12.46,5.16 -23.19,12.59 -32.19,22.25 -9.01,9.66 -16.03,21.33 -21.19,34.97 -5.17,13.64 -7.82,28.74 -7.82,45.42l0 264.76c0,19.08 -8.61,28.62 -25.82,28.62l-60.8 0c-10.58,0 -17.62,-1.99 -21.05,-5.97 -3.45,-3.96 -5.16,-10.99 -5.16,-21.05l0 -266.36c0,-13.77 -1.86,-27.14 -5.7,-40.26 -3.85,-13.11 -9.8,-24.76 -17.88,-35.1 -8.09,-10.32 -18.54,-18.67 -31.26,-25.03 -12.72,-6.36 -27.82,-9.53 -45.29,-9.53 -12.19,0 -24.37,2.25 -36.57,6.89 -12.17,4.63 -23.17,11.38 -33.11,20.13 -9.92,8.74 -18.14,19.47 -24.5,32.17 -6.36,12.59 -9.66,27.04 -9.93,43.19l0 277.46c0,6.91 -2.25,12.59 -6.75,16.96 -4.5,4.38 -10.21,6.5 -17.22,6.5l-65.71 0c-8.87,0 -15.21,-2.12 -19.32,-6.23 -4.11,-4.11 -6.23,-9.93 -6.23,-17.62l0 -457.33zm1264.33 425.42c-23.3,20 -48.74,35.76 -76.42,47.28 -27.67,11.52 -58.14,17.22 -91.25,17.22 -35.76,0 -69.66,-6.76 -101.72,-20.26 -32.05,-13.51 -60.13,-32.07 -84.24,-55.63 -24.09,-23.72 -43.17,-51.26 -57.34,-82.91 -14.18,-31.8 -21.33,-65.83 -21.33,-102.51 0,-23.58 2.91,-46.36 8.74,-68.35 5.84,-21.99 14.17,-42.64 24.9,-61.85 10.73,-19.21 23.71,-36.82 39.08,-52.85 15.36,-16.03 32.57,-29.8 51.52,-41.19 18.93,-11.38 39.47,-20.13 61.59,-26.36 22.1,-6.22 45.42,-9.4 70.06,-9.4 20.13,0 40,2.39 59.6,7.28 19.61,4.9 38.27,11.92 55.89,20.92 17.62,9.01 34.03,19.87 49.4,32.72 15.37,12.85 28.87,27.41 40.53,43.58 15.89,22.26 27.55,46.22 34.97,71.92 7.41,25.7 11.12,54.16 11.12,85.42 0,7.69 -0.26,14.05 -0.92,19.21 -0.67,5.16 -2.38,9.4 -5.04,12.59 -2.65,3.17 -6.63,5.42 -11.92,6.88 -5.29,1.45 -12.72,2.26 -22.25,2.26l-352.43 0c3.43,18.93 10.05,35.89 19.73,50.45 9.67,14.7 21.06,27.03 34.3,37.22 13.25,10.2 27.67,17.88 43.3,23.04 15.63,5.17 31.26,7.69 46.89,7.69 11.93,0 23.45,-1.2 34.44,-3.58 11,-2.39 21.19,-5.56 30.73,-9.54 9.53,-3.97 18.41,-8.61 26.49,-13.77 8.07,-5.16 15.09,-10.46 21.19,-16.02 0,-0.26 0.13,-0.41 0.39,-0.41 3.19,-2.91 6.23,-5.29 9.14,-7.02 2.92,-1.71 5.96,-2.51 9.15,-2.51 2.38,0 5.16,0.8 8.2,2.38 3.06,1.6 5.97,4.24 8.88,7.96 7.14,8.74 13.24,16.02 18.27,21.85 5.05,5.82 9.15,10.72 12.33,14.69 3.17,3.98 5.55,7.43 7.01,10.34 1.47,2.91 2.12,5.97 2.12,8.87 0,7.42 -5.03,14.98 -15.1,22.39zm-176.41 -358.27c-15.63,0 -30.87,2.78 -45.71,8.48 -14.82,5.69 -28.33,13.38 -40.65,23.17 -12.31,9.81 -23.04,21.33 -32.18,34.45 -9.14,13.24 -15.89,27.41 -20.13,42.77l281.31 0c-4.24,-16.15 -10.6,-30.86 -19.21,-44.11 -8.6,-13.37 -19.06,-24.89 -31.26,-34.42 -12.18,-9.68 -26.08,-17.1 -41.71,-22.39 -15.62,-5.3 -32.45,-7.95 -50.46,-7.95zm346.09 -67.54c0,-3.72 1.59,-7.69 4.76,-11.93 3.19,-4.24 6.23,-6.89 9.14,-7.94 2.12,-1.86 5.44,-2.93 9.68,-3.06 4.22,-0.13 8.2,-0.13 11.91,-0.13l40.26 0c7.68,0 13.38,2.52 17.1,7.56 3.69,5.03 6.36,10.58 7.67,16.68l4.37 41.99c6.1,-9.01 13.51,-17.88 22.38,-26.76 9.01,-8.74 19.48,-16.54 31.65,-23.43 12.2,-7.03 26.1,-12.59 41.86,-16.83 15.63,-4.24 33.25,-6.36 52.85,-6.36 31.26,0 59.21,5.71 83.57,16.96 24.37,11.26 44.91,26.62 61.59,46.21 16.83,19.61 29.4,42.8 38.01,69.29 8.61,26.47 12.98,54.95 12.98,85.42l0 265.28c0,9.54 -2.25,16.7 -6.75,21.47 -4.51,4.76 -11,7.15 -19.61,7.15l-60.52 0c-10.73,0 -17.75,-1.99 -21.33,-5.97 -3.57,-3.96 -5.43,-10.99 -5.43,-21.05l0 -264.63c0,-14.03 -2.38,-27.82 -7.14,-41.2 -4.77,-13.38 -11.66,-25.29 -20.81,-35.89 -9.14,-10.58 -20.53,-19.06 -34.03,-25.42 -13.51,-6.36 -29.14,-9.53 -46.89,-9.53 -12.18,0 -24.76,2.38 -37.88,7.28 -13.11,4.89 -25.16,11.91 -36.02,20.92 -10.86,9 -19.87,19.86 -27.02,32.72 -7.15,12.85 -10.86,27.41 -11.12,43.58l0 257.46c0,5.05 -0.26,10.07 -0.81,15.1 -0.52,5.03 -1.71,9.53 -3.43,13.51 -1.73,3.98 -4.11,7.15 -7.28,9.53 -3.19,2.39 -7.43,3.59 -12.46,3.59l-65.7 0c-8.87,0 -15.22,-2.12 -19.33,-6.23 -4.1,-4.11 -6.22,-9.93 -6.22,-17.62l0 -457.72zm721.97 481.57c-20.94,-0.27 -40.54,-3.46 -58.95,-9.54 -18.4,-6.09 -34.43,-14.97 -48.08,-26.49 -13.64,-11.52 -24.5,-25.7 -32.44,-42.51 -7.96,-16.83 -11.92,-36.02 -11.92,-57.48l0 -65.71 -0.41 -202.77 -45.68 0c-7.69,0 -13.38,-1.71 -17.22,-5.16 -3.85,-3.45 -5.84,-9.14 -5.84,-16.96l0 -57.07c0,-7.56 1.99,-12.98 5.84,-16.17 3.84,-3.17 9.66,-4.77 17.35,-4.77l45.96 0c0,-14.03 0.14,-28.07 0.4,-41.99 0.26,-14.03 0.39,-28.06 0.39,-42.1 0,-5.31 1.6,-9.55 4.9,-12.59 3.32,-3.04 8.48,-5.7 15.23,-8.21 4.51,-1.6 9.93,-3.44 16.29,-5.69 6.36,-2.25 12.85,-4.5 19.6,-6.62 6.76,-2.12 13.25,-3.85 19.61,-5.31 6.36,-1.45 11.65,-2.25 15.89,-2.25 8.09,0 13.51,2.25 16.02,6.75 2.52,4.51 3.72,10.47 3.72,18.01 0,16.7 0,33.38 0,49.95 0,16.68 0,33.37 0,50.05l57.22 0c6.89,0 12.18,1.73 15.89,5.31 3.7,3.57 5.56,9.27 5.56,16.81l0 54.31c0,8.34 -1.86,14.43 -5.56,18.15 -3.71,3.69 -9,5.55 -15.89,5.55l-57.22 0c0,17.22 0,31.8 0,43.71 0,11.92 0,22.39 0,31.52 0,9.14 0,17.75 0,25.71 0,7.93 0,16.54 0,25.81 0,9.27 0,19.87 0,31.8 0,11.92 0,26.48 0,43.7 0,0.52 0,1.07 0,1.59 0,0.53 0,1.05 0,1.6l0 52.04c0,17.49 3.43,30.06 10.19,37.75 6.9,7.67 18.02,11.52 33.24,11.52 5.57,0 9.81,1.99 12.98,5.96 3.19,3.98 4.77,8.75 4.77,14.43l0 55.37c0,7.01 -1.84,12.32 -5.69,16.15 -3.84,3.85 -9.26,5.84 -16.15,5.84zm624.21 -23.46c0,4.79 -1.05,8.62 -3.04,11.67 -1.99,3.04 -4.5,5.43 -7.67,7.15 -3.19,1.73 -6.91,2.91 -11,3.58 -4.11,0.66 -8.48,1.06 -12.98,1.06l-49.81 0c-8.6,0 -14.43,-2.26 -17.75,-6.76 -3.3,-4.5 -5.82,-10.2 -7.41,-17.09l-2.38 -33.64c-9.27,9.27 -19.48,18.01 -30.73,26.1 -11.26,8.21 -23.44,15.23 -36.42,21.18 -12.98,5.97 -26.75,10.6 -41.33,13.92 -14.56,3.3 -29.53,5.03 -44.9,5.03 -23.84,0 -46.75,-3.19 -68.87,-9.4 -22.12,-6.23 -42.91,-14.97 -62.25,-26.23 -19.33,-11.26 -36.81,-24.76 -52.57,-40.66 -15.76,-16.04 -29.29,-33.64 -40.54,-52.98 -11.26,-19.34 -20,-40.13 -26.21,-62.38 -6.23,-22.25 -9.42,-45.44 -9.42,-69.66 0,-24.11 3.19,-47.3 9.42,-69.55 6.21,-22.25 14.95,-43.04 26.21,-62.38 11.25,-19.33 24.78,-36.94 40.54,-52.7 15.76,-15.76 33.24,-29.29 52.57,-40.54 19.34,-11.26 40.13,-20 62.25,-26.21 22.12,-6.23 45.03,-9.42 68.87,-9.42 16.96,0 33.12,1.72 48.48,5.31 15.37,3.56 29.8,8.61 43.17,15.1 13.38,6.47 25.7,14.3 37.09,23.43 11.39,9.14 21.73,19.21 31,30.08l5.55 -42.8c1.33,-4.76 2.66,-8.74 3.85,-11.78 1.2,-3.04 2.64,-5.55 4.37,-7.41 1.72,-1.86 3.97,-3.06 6.62,-3.71 2.65,-0.66 5.97,-1.06 9.94,-1.06l39.85 0c4.24,0 8.48,0.4 12.72,1.19 4.24,0.79 8.22,1.99 11.66,3.71 3.45,1.73 6.09,4.24 8.08,7.28 1.99,3.04 3.04,6.76 3.04,11.26l0 459.31zm-413.22 -229.26c0,21.2 3.7,41.2 11.13,60.13 7.41,18.95 17.74,35.63 30.99,49.94 13.11,14.3 28.74,25.56 46.62,33.9 17.75,8.35 37.34,12.59 58.54,12.59 21.33,0 41.46,-4.24 60,-12.59 18.66,-8.34 34.97,-19.6 48.61,-33.9 13.77,-14.31 24.63,-30.99 32.57,-49.94 7.95,-18.93 11.93,-38.93 11.93,-60.13 0,-20.92 -3.98,-40.92 -11.93,-59.85 -7.94,-18.95 -18.8,-35.5 -32.57,-49.81 -13.64,-14.3 -29.95,-25.69 -48.61,-34.17 -18.54,-8.47 -38.67,-12.71 -60,-12.71 -21.2,0 -40.79,4.24 -58.54,12.71 -17.88,8.48 -33.51,19.87 -46.62,34.17 -13.25,14.31 -23.58,30.86 -30.99,49.81 -7.43,18.93 -11.13,38.93 -11.13,59.85zm855.86 120.8c4.5,-2.92 8.35,-4.76 11.39,-5.44 3.05,-0.65 5.57,-0.92 7.69,-0.92 4.5,0.27 8.35,2.65 11.52,7.15l9.53 13.12 28.21 40.13c1.34,1.85 2.39,3.71 3.18,5.7 0.8,1.97 1.2,3.83 1.2,5.42 0,4.24 -1.47,7.96 -4.38,11.26 -2.9,3.32 -6.75,6.75 -11.52,10.2 -22.51,16.42 -46.75,29.67 -72.85,39.74 -26.09,10.06 -54.83,15.09 -86.09,15.09 -23.57,0 -46.34,-3.17 -68.46,-9.4 -22.12,-6.23 -42.93,-14.97 -62.12,-26.23 -19.21,-11.26 -36.7,-24.77 -52.72,-40.53 -15.89,-15.89 -29.66,-33.37 -41.18,-52.71 -11.67,-19.46 -20.54,-40.27 -26.76,-62.52 -6.22,-22.25 -9.41,-45.55 -9.41,-69.66 0,-24.11 3.19,-47.41 9.41,-69.66 6.22,-22.25 15.09,-43.06 26.76,-62.51 11.52,-19.35 25.29,-36.83 41.18,-52.72 16.02,-15.76 33.51,-29.27 52.72,-40.53 19.19,-11.25 40,-20 62.12,-26.23 22.12,-6.22 44.89,-9.4 68.46,-9.4 29.42,0 57.22,4.51 83.45,13.51 26.23,9.01 49.53,21.19 69.92,36.55l-0.39 -0.39c3.71,3.71 7.41,6.88 10.99,9.66 3.59,2.79 5.29,7.16 5.29,12.98 0,1.6 0,3.45 -0.13,5.57 -0.13,2.12 -0.92,4.11 -2.25,5.95l-32.57 49.68c-5.31,7.94 -11.12,11.91 -17.48,11.91 -4.51,0 -9.54,-2.25 -15.11,-6.75 -13.51,-11.39 -29.27,-20.66 -47.28,-27.81 -18.01,-7.16 -36.56,-10.73 -55.62,-10.73 -20.66,0 -40,4.37 -58.15,12.99 -18.14,8.59 -34.18,20.26 -47.95,34.95 -13.77,14.84 -24.63,31.93 -32.57,51.39 -7.95,19.6 -11.93,40.13 -11.93,61.59 0,21.99 3.98,42.78 11.93,62.12 7.94,19.47 18.8,36.28 32.44,50.6 13.64,14.3 29.53,25.68 47.82,34.03 18.28,8.35 37.75,12.59 58.41,12.59 22.51,0 41.98,-3.98 58.4,-11.8 16.42,-7.81 31.39,-17.07 44.9,-27.94zm-60 131.13c-5.82,3.96 -8.74,8.61 -8.74,13.9 0,4.24 2.12,8.22 6.22,11.78 4.11,3.58 9.14,7.28 15.11,11.13 5.96,3.84 12.45,7.95 19.6,12.32 7.15,4.37 13.77,9.4 19.74,15.11 5.95,5.68 10.99,12.3 15.08,19.58 4.11,7.3 6.1,15.76 6.1,25.71 0,9.53 -2.51,19.06 -7.67,28.61 -5.18,9.53 -12.72,18.8 -22.8,27.8 -10.05,9.01 -22.51,17.49 -37.6,25.31 -14.97,7.81 -32.58,14.82 -52.71,20.92l-1.99 0c-3.98,0 -7.83,-2.25 -11.65,-6.75 -3.85,-4.51 -7.43,-9.67 -10.6,-15.5 -3.18,-5.83 -5.71,-11.65 -7.68,-17.35 -1.99,-5.69 -3.06,-9.8 -3.06,-12.18 0,-4.24 1.47,-7.17 4.38,-8.74 45.29,-11.39 67.95,-25.44 67.95,-42.12 0,-5.97 -1.99,-11.13 -5.97,-15.63 -4.11,-4.5 -9.13,-8.74 -15.1,-12.85 -6.1,-4.11 -12.44,-8.35 -19.47,-12.46 -6.89,-4.09 -13.38,-8.46 -19.46,-13.1 -5.97,-4.65 -10.99,-9.94 -15.1,-15.9 -3.98,-5.95 -5.97,-12.84 -5.97,-20.53 0,-2.91 0.4,-5.82 1.2,-8.87 0.79,-3.04 3.04,-6.5 6.76,-10.19l83.43 0zm722.76 -22.67c0,4.79 -1.05,8.62 -3.04,11.67 -1.99,3.04 -4.5,5.43 -7.67,7.15 -3.19,1.73 -6.91,2.91 -11,3.58 -4.11,0.66 -8.48,1.06 -12.98,1.06l-49.81 0c-8.59,0 -14.43,-2.26 -17.75,-6.76 -3.3,-4.5 -5.82,-10.2 -7.41,-17.09l-2.38 -33.64c-9.27,9.27 -19.48,18.01 -30.73,26.1 -11.26,8.21 -23.44,15.23 -36.42,21.18 -12.98,5.97 -26.75,10.6 -41.33,13.92 -14.56,3.3 -29.53,5.03 -44.9,5.03 -23.84,0 -46.75,-3.19 -68.87,-9.4 -22.12,-6.23 -42.91,-14.97 -62.25,-26.23 -19.33,-11.26 -36.81,-24.76 -52.57,-40.66 -15.76,-16.04 -29.28,-33.64 -40.54,-52.98 -11.26,-19.34 -20,-40.13 -26.21,-62.38 -6.23,-22.25 -9.42,-45.44 -9.42,-69.66 0,-24.11 3.19,-47.3 9.42,-69.55 6.21,-22.25 14.95,-43.04 26.21,-62.38 11.26,-19.33 24.78,-36.94 40.54,-52.7 15.76,-15.76 33.24,-29.29 52.57,-40.54 19.34,-11.26 40.13,-20 62.25,-26.21 22.12,-6.23 45.03,-9.42 68.87,-9.42 16.96,0 33.12,1.72 48.48,5.31 15.37,3.56 29.8,8.61 43.17,15.1 13.38,6.47 25.71,14.3 37.09,23.43 11.39,9.14 21.73,19.21 31,30.08l5.55 -42.8c1.33,-4.76 2.66,-8.74 3.85,-11.78 1.2,-3.04 2.64,-5.55 4.37,-7.41 1.72,-1.86 3.98,-3.06 6.62,-3.71 2.65,-0.66 5.97,-1.06 9.94,-1.06l39.85 0c4.24,0 8.48,0.4 12.72,1.19 4.24,0.79 8.22,1.99 11.66,3.71 3.45,1.73 6.09,4.24 8.08,7.28 1.99,3.04 3.04,6.76 3.04,11.26l0 459.31zm-413.22 -229.26c0,21.2 3.7,41.2 11.13,60.13 7.41,18.95 17.74,35.63 30.99,49.94 13.11,14.3 28.74,25.56 46.62,33.9 17.75,8.35 37.34,12.59 58.54,12.59 21.33,0 41.46,-4.24 60,-12.59 18.66,-8.34 34.97,-19.6 48.61,-33.9 13.77,-14.31 24.63,-30.99 32.57,-49.94 7.95,-18.93 11.93,-38.93 11.93,-60.13 0,-20.92 -3.98,-40.92 -11.93,-59.85 -7.94,-18.95 -18.8,-35.5 -32.57,-49.81 -13.64,-14.3 -29.95,-25.69 -48.61,-34.17 -18.54,-8.47 -38.67,-12.71 -60,-12.71 -21.2,0 -40.79,4.24 -58.54,12.71 -17.88,8.48 -33.51,19.87 -46.62,34.17 -13.25,14.31 -23.58,30.86 -30.99,49.81 -7.43,18.93 -11.13,38.93 -11.13,59.85zm22.65 -381.83c9.79,-15.1 22.25,-27.02 37.35,-35.76 15.09,-8.74 31.65,-13.12 49.66,-13.12 7.68,0.53 15.76,1.99 24.11,4.51 8.35,2.51 17.35,6.75 27.15,12.59l24.24 14.69c6.62,4.76 13.64,7.15 21.05,7.15 6.62,0 12.32,-1.71 16.96,-5.03 4.63,-3.44 8.74,-7.15 12.32,-11.26 3.57,-4.11 6.63,-7.81 9.27,-11.26 2.65,-3.3 5.16,-5.03 7.54,-5.03 2.65,0 6.36,1.86 11.13,5.43 4.77,3.58 9.53,7.69 14.31,12.19 4.77,4.5 9.01,9.01 12.58,13.38 3.58,4.5 5.3,7.41 5.3,9 0,1.06 -0.41,2.39 -1.33,3.85 -0.92,1.45 -1.99,3.17 -3.17,5.03 -1.2,1.85 -2.53,3.7 -3.98,5.42 -1.46,1.73 -2.77,3.32 -3.84,5.03 -10.34,13.79 -22.52,24.11 -36.55,30.73 -14.05,6.75 -29.14,10.07 -45.31,10.07 -9,0 -18.14,-1.72 -27.41,-5.02 -9.27,-3.32 -18.14,-7.7 -26.62,-13.25l-21.05 -13.51c-3.45,-2.12 -6.62,-3.71 -9.68,-4.78 -3.04,-1.05 -6.89,-1.71 -11.39,-1.97 -6.89,0 -12.18,1.31 -15.89,3.96 -3.72,2.64 -7.54,5.96 -11.52,9.94 -2.93,3.7 -5.97,7.41 -9.14,11.26 -3.19,3.84 -6.62,6.09 -10.33,6.62 -1.86,0 -5.16,-1.73 -9.93,-5.03 -4.78,-3.32 -9.55,-7.03 -14.45,-11.27 -4.89,-4.23 -9.26,-8.47 -13.11,-12.57 -3.85,-4.11 -5.82,-7.02 -5.82,-8.88 0,-0.8 0.4,-2.12 1.05,-3.84 0.66,-1.73 2.78,-4.77 6.5,-9.27zm476.01 383.16c0,-24.11 3.04,-47.28 9.27,-69.66 6.23,-22.51 15.1,-43.32 26.49,-62.64 11.39,-19.35 25.03,-36.96 40.92,-52.72 15.76,-15.76 33.37,-29.27 52.72,-40.53 19.34,-11.25 40.13,-20 62.12,-26.23 22.11,-6.22 45.29,-9.4 69.39,-9.4 23.72,0 46.76,3.18 69.01,9.4 22.25,6.23 42.91,14.98 62.12,26.23 19.21,11.26 36.81,24.77 52.58,40.53 15.9,15.76 29.54,33.37 40.92,52.72 11.39,19.32 20.27,40.13 26.49,62.64 6.23,22.38 9.27,45.55 9.27,69.66 0,24.24 -3.04,47.41 -9.27,69.66 -6.22,22.25 -15.1,43.06 -26.49,62.25 -11.38,19.21 -25.02,36.7 -40.92,52.72 -15.77,15.89 -33.37,29.4 -52.58,40.66 -19.21,11.26 -39.87,20 -62.12,26.23 -22.25,6.23 -45.29,9.4 -69.01,9.4 -24.1,0 -47.28,-3.17 -69.39,-9.4 -21.99,-6.23 -42.78,-14.97 -62.12,-26.23 -19.35,-11.26 -36.96,-24.77 -52.72,-40.66 -15.89,-16.02 -29.53,-33.51 -40.92,-52.72 -11.39,-19.19 -20.26,-40 -26.49,-62.25 -6.23,-22.25 -9.27,-45.42 -9.27,-69.66zm112.04 -0.13c0,21.2 3.72,41.2 11.13,60.13 7.41,18.95 17.75,35.5 30.99,49.53 13.12,14.05 28.88,25.18 47.02,33.38 18.01,8.21 37.88,12.32 59.34,12.32 20.79,0 40.26,-4.11 58.01,-12.32 17.88,-8.2 33.38,-19.33 46.23,-33.38 12.96,-14.03 23.17,-30.58 30.45,-49.53 7.3,-18.93 10.86,-38.93 10.86,-60.13 0,-20.92 -3.56,-40.92 -10.86,-60 -7.28,-19.08 -17.49,-35.89 -30.45,-50.33 -12.85,-14.43 -28.35,-25.95 -46.23,-34.56 -17.75,-8.61 -37.22,-12.85 -58.01,-12.85 -21.46,0 -41.33,4.24 -59.34,12.85 -18.14,8.61 -33.9,20.13 -47.02,34.56 -13.24,14.44 -23.58,31.25 -30.99,50.33 -7.41,19.08 -11.13,39.08 -11.13,60z"/>
    <path class="fil1" d="M6505.21 8911.73c0,-3.72 1.59,-7.69 4.76,-11.93 3.19,-4.24 6.23,-6.89 9.14,-7.94 2.12,-1.86 5.44,-2.93 9.68,-3.06 4.22,-0.13 8.2,-0.13 11.91,-0.13l40.27 0c7.67,0 13.37,2.52 17.09,7.56 3.69,5.03 6.36,10.58 7.67,16.68l4.37 41.99c6.1,-9.01 13.51,-17.88 22.39,-26.76 9,-8.74 19.47,-16.54 31.65,-23.43 12.19,-7.03 26.09,-12.59 41.85,-16.83 15.63,-4.24 33.25,-6.36 52.85,-6.36 31.26,0 59.21,5.71 83.57,16.96 24.37,11.26 44.91,26.62 61.59,46.21 16.83,19.61 29.4,42.8 38.01,69.29 8.61,26.47 12.98,54.95 12.98,85.42l0 265.28c0,9.54 -2.25,16.7 -6.75,21.47 -4.5,4.76 -11,7.15 -19.61,7.15l-60.52 0c-10.73,0 -17.75,-1.99 -21.33,-5.97 -3.57,-3.96 -5.42,-10.99 -5.42,-21.05l0 -264.63c0,-14.03 -2.39,-27.82 -7.15,-41.2 -4.77,-13.38 -11.65,-25.29 -20.81,-35.89 -9.14,-10.58 -20.52,-19.06 -34.03,-25.42 -13.51,-6.36 -29.14,-9.53 -46.89,-9.53 -12.17,0 -24.76,2.38 -37.88,7.28 -13.11,4.89 -25.16,11.91 -36.02,20.92 -10.86,9 -19.87,19.86 -27.01,32.72 -7.15,12.85 -10.87,27.41 -11.13,43.58l0 257.46c0,5.05 -0.26,10.07 -0.81,15.1 -0.52,5.03 -1.7,9.53 -3.43,13.51 -1.73,3.98 -4.11,7.15 -7.28,9.53 -3.19,2.39 -7.43,3.59 -12.46,3.59l-65.7 0c-8.87,0 -15.22,-2.12 -19.32,-6.23 -4.11,-4.11 -6.23,-9.93 -6.23,-17.62l0 -457.72zm1046.58 458.11c0,4.79 -1.05,8.62 -3.04,11.67 -1.99,3.04 -4.5,5.43 -7.67,7.15 -3.19,1.73 -6.9,2.91 -11,3.58 -4.1,0.66 -8.48,1.06 -12.98,1.06l-49.81 0c-8.59,0 -14.43,-2.26 -17.75,-6.76 -3.3,-4.5 -5.81,-10.2 -7.41,-17.09l-2.38 -33.64c-9.27,9.27 -19.47,18.01 -30.73,26.1 -11.26,8.21 -23.44,15.23 -36.42,21.18 -12.98,5.97 -26.75,10.6 -41.33,13.92 -14.56,3.3 -29.53,5.03 -44.89,5.03 -23.85,0 -46.76,-3.19 -68.88,-9.4 -22.12,-6.23 -42.91,-14.97 -62.25,-26.23 -19.32,-11.26 -36.81,-24.76 -52.57,-40.66 -15.76,-16.04 -29.28,-33.64 -40.54,-52.98 -11.26,-19.34 -20,-40.13 -26.21,-62.38 -6.23,-22.25 -9.42,-45.44 -9.42,-69.66 0,-24.11 3.19,-47.3 9.42,-69.55 6.21,-22.25 14.95,-43.04 26.21,-62.38 11.26,-19.33 24.78,-36.94 40.54,-52.7 15.76,-15.76 33.25,-29.29 52.57,-40.54 19.34,-11.26 40.13,-20 62.25,-26.21 22.12,-6.23 45.03,-9.42 68.88,-9.42 16.95,0 33.11,1.72 48.47,5.31 15.37,3.56 29.8,8.61 43.17,15.1 13.38,6.47 25.71,14.3 37.1,23.43 11.38,9.14 21.72,19.21 30.99,30.08l5.55 -42.8c1.33,-4.76 2.67,-8.74 3.85,-11.78 1.2,-3.04 2.64,-5.55 4.37,-7.41 1.73,-1.86 3.98,-3.06 6.62,-3.71 2.65,-0.66 5.97,-1.06 9.95,-1.06l39.85 0c4.24,0 8.48,0.4 12.72,1.19 4.24,0.79 8.21,1.99 11.65,3.71 3.45,1.73 6.09,4.24 8.08,7.28 1.99,3.04 3.04,6.76 3.04,11.26l0 459.31zm-413.22 -229.26c0,21.2 3.7,41.2 11.13,60.13 7.41,18.95 17.75,35.63 30.99,49.94 13.12,14.3 28.74,25.56 46.62,33.9 17.75,8.35 37.34,12.59 58.54,12.59 21.33,0 41.46,-4.24 60,-12.59 18.67,-8.34 34.97,-19.6 48.61,-33.9 13.77,-14.31 24.63,-30.99 32.57,-49.94 7.95,-18.93 11.93,-38.93 11.93,-60.13 0,-20.92 -3.98,-40.92 -11.93,-59.85 -7.94,-18.95 -18.8,-35.5 -32.57,-49.81 -13.64,-14.3 -29.94,-25.69 -48.61,-34.17 -18.54,-8.47 -38.67,-12.71 -60,-12.71 -21.2,0 -40.79,4.24 -58.54,12.71 -17.88,8.48 -33.5,19.87 -46.62,34.17 -13.24,14.31 -23.58,30.86 -30.99,49.81 -7.43,18.93 -11.13,38.93 -11.13,59.85zm698.53 252.72c-20.94,-0.27 -40.55,-3.46 -58.95,-9.54 -18.41,-6.09 -34.43,-14.97 -48.09,-26.49 -13.64,-11.52 -24.5,-25.7 -32.44,-42.51 -7.95,-16.83 -11.91,-36.02 -11.91,-57.48l0 -65.71 -0.41 -202.77 -45.69 0c-7.69,0 -13.37,-1.71 -17.22,-5.16 -3.84,-3.45 -5.83,-9.14 -5.83,-16.96l0 -57.07c0,-7.56 1.99,-12.98 5.83,-16.17 3.85,-3.17 9.66,-4.77 17.36,-4.77l45.96 0c0,-14.03 0.13,-28.07 0.39,-41.99 0.27,-14.03 0.4,-28.06 0.4,-42.1 0,-5.31 1.59,-9.55 4.9,-12.59 3.32,-3.04 8.48,-5.7 15.23,-8.21 4.5,-1.6 9.93,-3.44 16.29,-5.69 6.35,-2.25 12.85,-4.5 19.6,-6.62 6.75,-2.12 13.25,-3.85 19.61,-5.31 6.36,-1.45 11.65,-2.25 15.89,-2.25 8.08,0 13.51,2.25 16.02,6.75 2.51,4.51 3.71,10.47 3.71,18.01 0,16.7 0,33.38 0,49.95 0,16.68 0,33.37 0,50.05l57.22 0c6.89,0 12.18,1.73 15.9,5.31 3.69,3.57 5.55,9.27 5.55,16.81l0 54.31c0,8.34 -1.86,14.43 -5.55,18.15 -3.72,3.69 -9.01,5.55 -15.9,5.55l-57.22 0c0,17.22 0,31.8 0,43.71 0,11.92 0,22.39 0,31.52 0,9.14 0,17.75 0,25.71 0,7.93 0,16.54 0,25.81 0,9.27 0,19.87 0,31.8 0,11.92 0,26.48 0,43.7 0,0.52 0,1.07 0,1.59 0,0.53 0,1.05 0,1.6l0 52.04c0,17.49 3.44,30.06 10.19,37.75 6.9,7.67 18.03,11.52 33.25,11.52 5.57,0 9.81,1.99 12.98,5.96 3.19,3.98 4.77,8.75 4.77,14.43l0 55.37c0,7.01 -1.85,12.32 -5.69,16.15 -3.85,3.85 -9.27,5.84 -16.15,5.84zm557.45 -15.11c0,2.93 -1.05,5.18 -3.04,6.76 -1.99,1.59 -4.37,2.64 -7.28,3.32 -3.05,0.65 -6.23,1.05 -9.68,1.18 -3.43,0.13 -6.47,0.26 -9.13,0.26l-40.27 0c-7.67,0 -13.37,-2.51 -17.07,-7.41 -3.71,-4.9 -6.36,-10.47 -7.69,-16.81l-4.37 -36.17c-5.82,8.74 -13.12,17.09 -21.86,25.18 -8.74,8.06 -19.06,15.21 -30.99,21.44 -11.92,6.23 -25.69,11.26 -41.19,14.97 -15.49,3.72 -33.11,5.56 -52.71,5.56 -31.52,0 -59.46,-5.69 -83.57,-16.95 -24.11,-11.25 -44.37,-26.62 -60.67,-46.09 -16.29,-19.48 -28.73,-42.52 -37.21,-69.01 -8.48,-26.49 -12.72,-54.97 -12.72,-85.42l0 -265.28c0,-9.55 2.26,-16.7 6.76,-21.6 4.5,-4.89 10.99,-7.41 19.6,-7.41l60.53 0c10.73,0 17.75,1.97 21.33,5.95 3.57,3.98 5.42,10.99 5.42,21.07l0 265.28c0,14.04 2.25,27.81 6.62,41.19 4.38,13.37 10.87,25.44 19.61,36.04 8.74,10.58 19.74,19.06 32.85,25.42 13.1,6.36 28.33,9.53 45.82,9.53 12.19,0 24.89,-2.12 38.14,-6.36 13.24,-4.24 25.31,-10.72 36.17,-19.46 10.85,-8.74 19.85,-19.73 27.02,-32.85 7.14,-13.11 10.73,-28.48 10.73,-45.96l0 -258.14c0,-4.77 0.26,-9.53 0.79,-14.43 0.52,-4.9 1.72,-9.4 3.43,-13.51 1.73,-4.11 4.11,-7.43 7.17,-9.94 3.04,-2.51 7.14,-3.83 12.57,-3.83l65.7 0c8.87,0 15.23,2.1 19.32,6.34 4.11,4.24 6.23,10.21 6.23,17.88l0 457.35c0,5.29 -2.12,9.27 -6.36,11.91zm116.43 -466.07c0,-7.69 2.65,-13.51 7.81,-17.48 5.16,-3.98 10.86,-5.97 16.96,-5.97l50.86 0c6.62,0 11.78,1.99 15.22,5.97 3.45,3.97 6.1,8.87 7.95,14.7 1.86,5.82 3.17,12.05 3.98,18.8 0.79,6.76 1.73,12.99 2.91,18.54 5.83,-8.2 12.46,-16.28 19.74,-24.09 7.28,-7.82 15.49,-14.71 24.76,-20.8 9.27,-6.1 19.74,-11 31.39,-14.7 11.65,-3.71 24.9,-5.57 39.73,-5.57 13.25,0 25.16,0.79 35.76,2.52 10.6,1.72 20.79,4.37 30.47,7.95 9.66,3.57 19.06,8.2 28.35,13.9 9.27,5.71 19.19,12.46 29.79,20.13 4.51,2.91 8.48,6.23 11.79,9.95 3.32,3.69 4.89,8.07 4.89,13.09 -0.26,2.12 -0.65,4.38 -1.18,6.76 -0.53,2.4 -1.59,4.78 -3.19,7.16l-32.57 51.65c-2.12,2.65 -4.5,4.51 -7.28,5.69 -2.79,1.2 -5.31,1.86 -7.43,1.86 -4.24,0 -8.35,-1.05 -12.31,-3.17 -8.74,-4.77 -16.69,-9.27 -23.84,-13.51 -7.15,-4.24 -14.17,-7.96 -21.05,-11 -6.9,-3.05 -13.92,-5.44 -21.2,-7.15 -7.28,-1.72 -15.5,-2.51 -24.5,-2.51 -23.59,0 -43.45,7.54 -59.74,22.65 -16.29,15.08 -27.28,35.89 -32.85,62.38l0 299.58c0,15.89 -8.2,23.85 -24.77,23.85l-65.68 0c-16.57,0 -24.77,-7.96 -24.77,-23.85l0 -457.33zm940.89 457.72c0,4.79 -1.05,8.62 -3.04,11.67 -1.99,3.04 -4.5,5.43 -7.68,7.15 -3.18,1.73 -6.9,2.91 -10.99,3.58 -4.11,0.66 -8.48,1.06 -12.98,1.06l-49.81 0c-8.6,0 -14.43,-2.26 -17.75,-6.76 -3.3,-4.5 -5.82,-10.2 -7.41,-17.09l-2.38 -33.64c-9.27,9.27 -19.48,18.01 -30.74,26.1 -11.25,8.21 -23.43,15.23 -36.41,21.18 -12.98,5.97 -26.76,10.6 -41.33,13.92 -14.56,3.3 -29.53,5.03 -44.9,5.03 -23.84,0 -46.75,-3.19 -68.87,-9.4 -22.12,-6.23 -42.91,-14.97 -62.25,-26.23 -19.33,-11.26 -36.81,-24.76 -52.57,-40.66 -15.76,-16.04 -29.29,-33.64 -40.54,-52.98 -11.26,-19.34 -20,-40.13 -26.22,-62.38 -6.22,-22.25 -9.41,-45.44 -9.41,-69.66 0,-24.11 3.19,-47.3 9.41,-69.55 6.22,-22.25 14.96,-43.04 26.22,-62.38 11.25,-19.33 24.78,-36.94 40.54,-52.7 15.76,-15.76 33.24,-29.29 52.57,-40.54 19.34,-11.26 40.13,-20 62.25,-26.21 22.12,-6.23 45.03,-9.42 68.87,-9.42 16.96,0 33.11,1.72 48.48,5.31 15.37,3.56 29.79,8.61 43.17,15.1 13.38,6.47 25.7,14.3 37.09,23.43 11.39,9.14 21.73,19.21 31,30.08l5.55 -42.8c1.33,-4.76 2.66,-8.74 3.85,-11.78 1.19,-3.04 2.64,-5.55 4.37,-7.41 1.72,-1.86 3.97,-3.06 6.62,-3.71 2.64,-0.66 5.96,-1.06 9.94,-1.06l39.85 0c4.24,0 8.48,0.4 12.72,1.19 4.24,0.79 8.22,1.99 11.65,3.71 3.45,1.73 6.1,4.24 8.09,7.28 1.99,3.04 3.04,6.76 3.04,11.26l0 459.31zm-413.22 -229.26c0,21.2 3.7,41.2 11.12,60.13 7.42,18.95 17.75,35.63 31,49.94 13.11,14.3 28.74,25.56 46.62,33.9 17.75,8.35 37.34,12.59 58.54,12.59 21.33,0 41.46,-4.24 59.99,-12.59 18.67,-8.34 34.97,-19.6 48.61,-33.9 13.78,-14.31 24.64,-30.99 32.58,-49.94 7.95,-18.93 11.93,-38.93 11.93,-60.13 0,-20.92 -3.98,-40.92 -11.93,-59.85 -7.94,-18.95 -18.8,-35.5 -32.58,-49.81 -13.64,-14.3 -29.94,-25.69 -48.61,-34.17 -18.53,-8.47 -38.66,-12.71 -59.99,-12.71 -21.2,0 -40.79,4.24 -58.54,12.71 -17.88,8.48 -33.51,19.87 -46.62,34.17 -13.25,14.31 -23.58,30.86 -31,49.81 -7.42,18.93 -11.12,38.93 -11.12,59.85zm516.93 -378.25c0,-6.9 1.86,-12.59 5.56,-17.09 3.71,-4.5 9.41,-6.75 17.22,-6.75l69.68 0c5.42,0 10.32,2.25 14.95,6.75 4.63,4.5 7.02,10.19 7.02,17.09l0 607.12c0,7.95 -2.25,13.92 -6.63,17.88 -4.37,3.98 -10.18,5.97 -17.74,5.97l-66.48 0c-8.61,0 -14.57,-1.99 -18.16,-5.97 -3.56,-3.96 -5.42,-9.93 -5.42,-17.88l0 -607.12zm489.92 128.72c3.56,-1.7 7.01,-2.9 10.6,-3.3 3.56,-0.39 7.15,-0.66 10.58,-0.66l40.26 0c7.96,0 13.66,2.26 16.96,6.76 3.3,4.5 5.7,10.32 7.02,17.2l8.35 48.75c9.27,-10.6 19.06,-20.66 29.53,-30.19 10.47,-9.55 22.12,-18.01 34.84,-25.44 12.57,-7.41 26.62,-13.38 41.98,-17.75 15.37,-4.37 32.58,-6.49 51.66,-6.49 24.1,0 47.01,3.19 68.87,9.42 21.85,6.21 42.25,14.95 61.05,26.21 18.95,11.25 36.15,24.78 51.52,40.54 15.23,15.76 28.48,33.37 39.47,52.7 10.99,19.34 19.47,40.13 25.44,62.38 5.95,22.25 8.87,45.44 8.87,69.55 0,24.22 -2.92,47.41 -8.87,69.66 -5.97,22.25 -14.45,43.04 -25.44,62.38 -10.99,19.34 -24.24,36.94 -39.6,52.98 -15.37,15.9 -32.44,29.4 -51.39,40.66 -18.93,11.26 -39.46,20 -61.45,26.23 -21.98,6.21 -44.91,9.4 -68.74,9.4 -17.22,0 -32.98,-1.86 -47.43,-5.57 -14.42,-3.7 -27.8,-8.88 -40.13,-15.35 -12.3,-6.49 -23.69,-14.05 -34.16,-22.79 -10.47,-8.62 -20.39,-17.88 -29.66,-27.68l0 193.77c0,6.36 -1.99,11.78 -5.97,16.28 -3.98,4.51 -9.92,6.76 -17.88,6.76l-65.96 0c-5.56,0 -11,-2.12 -16.42,-6.23 -5.42,-4.09 -8.22,-9.66 -8.22,-16.81l0 -613.5c0,-5.55 1.33,-9.92 3.85,-13.11 2.51,-3.17 5.96,-5.42 10.47,-6.76zm393.35 249.53c0,-20.92 -3.7,-40.92 -11.26,-59.85 -7.54,-18.95 -17.88,-35.5 -30.97,-49.68 -12.99,-14.16 -28.62,-25.42 -46.49,-33.77 -18.02,-8.35 -37.36,-12.44 -58.29,-12.44 -20.92,0 -40.53,4.09 -58.8,12.31 -18.41,8.22 -34.58,19.21 -48.35,33.11 -13.9,13.91 -25.03,30.19 -33.38,48.74 -8.33,18.54 -12.57,38.15 -12.83,58.8l0 2.78c0,21.2 3.96,41.33 12.04,60.41 8.09,19.06 19.08,35.76 32.99,50.06 13.77,14.31 30.05,25.7 48.74,34.16 18.53,8.48 38.4,12.72 59.59,12.72 20.93,0 40.27,-4.24 58.29,-12.72 17.87,-8.46 33.5,-19.85 46.49,-34.16 13.09,-14.3 23.43,-31 30.97,-50.06 7.56,-19.08 11.26,-39.21 11.26,-60.41zm710.83 229.26c0,4.79 -1.05,8.62 -3.04,11.67 -1.99,3.04 -4.5,5.43 -7.67,7.15 -3.19,1.73 -6.91,2.91 -11,3.58 -4.11,0.66 -8.48,1.06 -12.98,1.06l-49.81 0c-8.59,0 -14.43,-2.26 -17.75,-6.76 -3.3,-4.5 -5.82,-10.2 -7.41,-17.09l-2.38 -33.64c-9.27,9.27 -19.48,18.01 -30.73,26.1 -11.26,8.21 -23.44,15.23 -36.42,21.18 -12.98,5.97 -26.75,10.6 -41.33,13.92 -14.56,3.3 -29.53,5.03 -44.9,5.03 -23.84,0 -46.75,-3.19 -68.87,-9.4 -22.12,-6.23 -42.91,-14.97 -62.25,-26.23 -19.32,-11.26 -36.81,-24.76 -52.57,-40.66 -15.76,-16.04 -29.28,-33.64 -40.54,-52.98 -11.26,-19.34 -20,-40.13 -26.21,-62.38 -6.23,-22.25 -9.42,-45.44 -9.42,-69.66 0,-24.11 3.19,-47.3 9.42,-69.55 6.21,-22.25 14.95,-43.04 26.21,-62.38 11.26,-19.33 24.78,-36.94 40.54,-52.7 15.76,-15.76 33.25,-29.29 52.57,-40.54 19.34,-11.26 40.13,-20 62.25,-26.21 22.12,-6.23 45.03,-9.42 68.87,-9.42 16.96,0 33.12,1.72 48.48,5.31 15.37,3.56 29.8,8.61 43.17,15.1 13.38,6.47 25.71,14.3 37.09,23.43 11.39,9.14 21.73,19.21 31,30.08l5.55 -42.8c1.33,-4.76 2.66,-8.74 3.85,-11.78 1.2,-3.04 2.64,-5.55 4.37,-7.41 1.72,-1.86 3.98,-3.06 6.62,-3.71 2.65,-0.66 5.97,-1.06 9.94,-1.06l39.86 0c4.24,0 8.47,0.4 12.71,1.19 4.24,0.79 8.22,1.99 11.66,3.71 3.45,1.73 6.09,4.24 8.08,7.28 1.99,3.04 3.04,6.76 3.04,11.26l0 459.31zm-413.22 -229.26c0,21.2 3.7,41.2 11.13,60.13 7.41,18.95 17.74,35.63 30.99,49.94 13.11,14.3 28.74,25.56 46.62,33.9 17.75,8.35 37.34,12.59 58.54,12.59 21.33,0 41.46,-4.24 60,-12.59 18.67,-8.34 34.97,-19.6 48.61,-33.9 13.77,-14.31 24.63,-30.99 32.57,-49.94 7.95,-18.93 11.93,-38.93 11.93,-60.13 0,-20.92 -3.98,-40.92 -11.93,-59.85 -7.94,-18.95 -18.8,-35.5 -32.57,-49.81 -13.64,-14.3 -29.94,-25.69 -48.61,-34.17 -18.54,-8.47 -38.67,-12.71 -60,-12.71 -21.2,0 -40.79,4.24 -58.54,12.71 -17.88,8.48 -33.51,19.87 -46.62,34.17 -13.25,14.31 -23.58,30.86 -30.99,49.81 -7.43,18.93 -11.13,38.93 -11.13,59.85zm516.14 -228.46c0,-7.69 2.65,-13.51 7.81,-17.48 5.16,-3.98 10.86,-5.97 16.96,-5.97l50.86 0c6.62,0 11.78,1.99 15.22,5.97 3.45,3.97 6.1,8.87 7.95,14.7 1.86,5.82 3.17,12.05 3.98,18.8 0.79,6.76 1.73,12.99 2.91,18.54 5.83,-8.2 12.46,-16.28 19.74,-24.09 7.28,-7.82 15.49,-14.71 24.76,-20.8 9.27,-6.1 19.74,-11 31.39,-14.7 11.65,-3.71 24.9,-5.57 39.73,-5.57 13.25,0 25.16,0.79 35.76,2.52 10.6,1.72 20.79,4.37 30.47,7.95 9.66,3.57 19.06,8.2 28.35,13.9 9.27,5.71 19.19,12.46 29.79,20.13 4.51,2.91 8.48,6.23 11.79,9.95 3.32,3.69 4.89,8.07 4.89,13.09 -0.26,2.12 -0.65,4.38 -1.18,6.76 -0.53,2.4 -1.59,4.78 -3.19,7.16l-32.57 51.65c-2.12,2.65 -4.5,4.51 -7.28,5.69 -2.79,1.2 -5.31,1.86 -7.43,1.86 -4.24,0 -8.34,-1.05 -12.31,-3.17 -8.74,-4.77 -16.69,-9.27 -23.84,-13.51 -7.15,-4.24 -14.17,-7.96 -21.05,-11 -6.9,-3.05 -13.92,-5.44 -21.2,-7.15 -7.28,-1.72 -15.5,-2.51 -24.5,-2.51 -23.59,0 -43.45,7.54 -59.74,22.65 -16.28,15.08 -27.28,35.89 -32.85,62.38l0 299.58c0,15.89 -8.2,23.85 -24.77,23.85l-65.68 0c-16.56,0 -24.77,-7.96 -24.77,-23.85l0 -457.33zm940.89 457.72c0,4.79 -1.05,8.62 -3.04,11.67 -1.99,3.04 -4.5,5.43 -7.68,7.15 -3.18,1.73 -6.9,2.91 -10.99,3.58 -4.11,0.66 -8.48,1.06 -12.98,1.06l-49.81 0c-8.6,0 -14.43,-2.26 -17.75,-6.76 -3.3,-4.5 -5.82,-10.2 -7.41,-17.09l-2.38 -33.64c-9.27,9.27 -19.48,18.01 -30.73,26.1 -11.26,8.21 -23.44,15.23 -36.42,21.18 -12.98,5.97 -26.76,10.6 -41.33,13.92 -14.56,3.3 -29.53,5.03 -44.9,5.03 -23.84,0 -46.75,-3.19 -68.87,-9.4 -22.12,-6.23 -42.91,-14.97 -62.25,-26.23 -19.33,-11.26 -36.81,-24.76 -52.57,-40.66 -15.76,-16.04 -29.29,-33.64 -40.54,-52.98 -11.26,-19.34 -20,-40.13 -26.22,-62.38 -6.22,-22.25 -9.41,-45.44 -9.41,-69.66 0,-24.11 3.19,-47.3 9.41,-69.55 6.22,-22.25 14.96,-43.04 26.22,-62.38 11.25,-19.33 24.78,-36.94 40.54,-52.7 15.76,-15.76 33.24,-29.29 52.57,-40.54 19.34,-11.26 40.13,-20 62.25,-26.21 22.12,-6.23 45.03,-9.42 68.87,-9.42 16.96,0 33.12,1.72 48.48,5.31 15.37,3.56 29.79,8.61 43.17,15.1 13.38,6.47 25.7,14.3 37.09,23.43 11.39,9.14 21.73,19.21 31,30.08l5.55 -42.8c1.33,-4.76 2.66,-8.74 3.85,-11.78 1.2,-3.04 2.64,-5.55 4.37,-7.41 1.72,-1.86 3.97,-3.06 6.62,-3.71 2.65,-0.66 5.96,-1.06 9.94,-1.06l39.85 0c4.24,0 8.48,0.4 12.72,1.19 4.24,0.79 8.22,1.99 11.65,3.71 3.46,1.73 6.1,4.24 8.09,7.28 1.99,3.04 3.04,6.76 3.04,11.26l0 459.31zm-413.22 -229.26c0,21.2 3.7,41.2 11.12,60.13 7.42,18.95 17.75,35.63 31,49.94 13.11,14.3 28.74,25.56 46.62,33.9 17.75,8.35 37.34,12.59 58.54,12.59 21.33,0 41.46,-4.24 59.99,-12.59 18.67,-8.34 34.98,-19.6 48.61,-33.9 13.78,-14.31 24.64,-30.99 32.58,-49.94 7.95,-18.93 11.93,-38.93 11.93,-60.13 0,-20.92 -3.98,-40.92 -11.93,-59.85 -7.94,-18.95 -18.8,-35.5 -32.58,-49.81 -13.63,-14.3 -29.94,-25.69 -48.61,-34.17 -18.53,-8.47 -38.66,-12.71 -59.99,-12.71 -21.2,0 -40.79,4.24 -58.54,12.71 -17.88,8.48 -33.51,19.87 -46.62,34.17 -13.25,14.31 -23.58,30.86 -31,49.81 -7.42,18.93 -11.12,38.93 -11.12,59.85zm781.17 -249.53c3.56,-1.7 7.01,-2.9 10.6,-3.3 3.56,-0.39 7.14,-0.66 10.58,-0.66l40.26 0c7.95,0 13.66,2.26 16.96,6.76 3.3,4.5 5.7,10.32 7.02,17.2l8.35 48.75c9.26,-10.6 19.06,-20.66 29.53,-30.19 10.46,-9.55 22.12,-18.01 34.84,-25.44 12.57,-7.41 26.62,-13.38 41.98,-17.75 15.37,-4.37 32.57,-6.49 51.65,-6.49 24.11,0 47.02,3.19 68.88,9.42 21.85,6.21 42.25,14.95 61.05,26.21 18.95,11.25 36.15,24.78 51.52,40.54 15.23,15.76 28.48,33.37 39.47,52.7 10.99,19.34 19.47,40.13 25.44,62.38 5.95,22.25 8.87,45.44 8.87,69.55 0,24.22 -2.92,47.41 -8.87,69.66 -5.97,22.25 -14.45,43.04 -25.44,62.38 -10.99,19.34 -24.24,36.94 -39.61,52.98 -15.36,15.9 -32.43,29.4 -51.38,40.66 -18.93,11.26 -39.46,20 -61.45,26.23 -21.99,6.21 -44.91,9.4 -68.74,9.4 -17.22,0 -32.98,-1.86 -47.43,-5.57 -14.42,-3.7 -27.8,-8.88 -40.13,-15.35 -12.31,-6.49 -23.69,-14.05 -34.16,-22.79 -10.47,-8.62 -20.4,-17.88 -29.66,-27.68l0 193.77c0,6.36 -1.99,11.78 -5.97,16.28 -3.98,4.51 -9.93,6.76 -17.88,6.76l-65.96 0c-5.56,0 -11,-2.12 -16.42,-6.23 -5.42,-4.09 -8.22,-9.66 -8.22,-16.81l0 -613.5c0,-5.55 1.33,-9.92 3.85,-13.11 2.51,-3.17 5.96,-5.42 10.47,-6.76zm393.35 249.53c0,-20.92 -3.7,-40.92 -11.26,-59.85 -7.54,-18.95 -17.88,-35.5 -30.98,-49.68 -12.98,-14.16 -28.61,-25.42 -46.49,-33.77 -18.01,-8.35 -37.35,-12.44 -58.29,-12.44 -20.92,0 -40.52,4.09 -58.79,12.31 -18.41,8.22 -34.58,19.21 -48.35,33.11 -13.9,13.91 -25.03,30.19 -33.38,48.74 -8.33,18.54 -12.57,38.15 -12.83,58.8l0 2.78c0,21.2 3.96,41.33 12.04,60.41 8.09,19.06 19.08,35.76 32.98,50.06 13.78,14.31 30.06,25.7 48.75,34.16 18.53,8.48 38.4,12.72 59.58,12.72 20.94,0 40.28,-4.24 58.29,-12.72 17.88,-8.46 33.51,-19.85 46.49,-34.16 13.1,-14.3 23.44,-31 30.98,-50.06 7.56,-19.08 11.26,-39.21 11.26,-60.41z"/>
    <path class="fil1" d="M13571.85 9337.54c-23.3,20 -48.74,35.76 -76.42,47.28 -27.67,11.52 -58.14,17.22 -91.25,17.22 -35.76,0 -69.66,-6.76 -101.72,-20.26 -32.05,-13.51 -60.13,-32.07 -84.24,-55.63 -24.09,-23.72 -43.17,-51.26 -57.34,-82.91 -14.18,-31.8 -21.33,-65.83 -21.33,-102.51 0,-23.58 2.91,-46.36 8.74,-68.35 5.84,-21.99 14.17,-42.64 24.9,-61.85 10.73,-19.21 23.71,-36.82 39.08,-52.85 15.36,-16.03 32.57,-29.8 51.52,-41.19 18.93,-11.38 39.47,-20.13 61.59,-26.36 22.1,-6.22 45.42,-9.4 70.06,-9.4 20.13,0 40,2.39 59.6,7.28 19.61,4.9 38.28,11.92 55.89,20.92 17.62,9.01 34.04,19.87 49.4,32.72 15.37,12.85 28.87,27.41 40.53,43.58 15.89,22.26 27.56,46.22 34.97,71.92 7.41,25.7 11.12,54.16 11.12,85.42 0,7.69 -0.26,14.05 -0.92,19.21 -0.67,5.16 -2.38,9.4 -5.04,12.59 -2.65,3.17 -6.63,5.42 -11.92,6.88 -5.29,1.45 -12.72,2.26 -22.25,2.26l-352.43 0c3.43,18.93 10.06,35.89 19.73,50.45 9.67,14.7 21.06,27.03 34.3,37.22 13.25,10.2 27.68,17.88 43.3,23.04 15.63,5.17 31.26,7.69 46.89,7.69 11.93,0 23.45,-1.2 34.44,-3.58 11,-2.39 21.19,-5.56 30.73,-9.54 9.54,-3.97 18.41,-8.61 26.49,-13.77 8.07,-5.16 15.09,-10.46 21.19,-16.02 0,-0.26 0.13,-0.41 0.39,-0.41 3.19,-2.91 6.23,-5.29 9.14,-7.02 2.92,-1.71 5.96,-2.51 9.15,-2.51 2.39,0 5.16,0.8 8.2,2.38 3.06,1.6 5.97,4.24 8.88,7.96 7.15,8.74 13.24,16.02 18.27,21.85 5.05,5.82 9.15,10.72 12.33,14.69 3.17,3.98 5.55,7.43 7.01,10.34 1.47,2.91 2.12,5.97 2.12,8.87 0,7.42 -5.03,14.98 -15.1,22.39zm-176.41 -358.27c-15.63,0 -30.87,2.78 -45.7,8.48 -14.83,5.69 -28.34,13.38 -40.66,23.17 -12.31,9.81 -23.04,21.33 -32.18,34.45 -9.13,13.24 -15.89,27.41 -20.13,42.77l281.31 0c-4.24,-16.15 -10.6,-30.86 -19.21,-44.11 -8.6,-13.37 -19.06,-24.89 -31.26,-34.42 -12.17,-9.68 -26.08,-17.1 -41.71,-22.39 -15.62,-5.3 -32.45,-7.95 -50.46,-7.95zm527.68 414.03c-20.94,-0.27 -40.54,-3.46 -58.95,-9.54 -18.41,-6.09 -34.43,-14.97 -48.08,-26.49 -13.64,-11.52 -24.51,-25.7 -32.44,-42.51 -7.96,-16.83 -11.92,-36.02 -11.92,-57.48l0 -65.71 -0.41 -202.77 -45.68 0c-7.7,0 -13.38,-1.71 -17.23,-5.16 -3.84,-3.45 -5.83,-9.14 -5.83,-16.96l0 -57.07c0,-7.56 1.99,-12.98 5.83,-16.17 3.85,-3.17 9.67,-4.77 17.36,-4.77l45.96 0c0,-14.03 0.13,-28.07 0.4,-41.99 0.26,-14.03 0.39,-28.06 0.39,-42.1 0,-5.31 1.59,-9.55 4.9,-12.59 3.32,-3.04 8.48,-5.7 15.23,-8.21 4.5,-1.6 9.93,-3.44 16.29,-5.69 6.36,-2.25 12.85,-4.5 19.6,-6.62 6.76,-2.12 13.25,-3.85 19.61,-5.31 6.36,-1.45 11.65,-2.25 15.89,-2.25 8.08,0 13.51,2.25 16.02,6.75 2.52,4.51 3.72,10.47 3.72,18.01 0,16.7 0,33.38 0,49.95 0,16.68 0,33.37 0,50.05l57.22 0c6.88,0 12.17,1.73 15.89,5.31 3.7,3.57 5.55,9.27 5.55,16.81l0 54.31c0,8.34 -1.85,14.43 -5.55,18.15 -3.72,3.69 -9.01,5.55 -15.89,5.55l-57.22 0c0,17.22 0,31.8 0,43.71 0,11.92 0,22.39 0,31.52 0,9.14 0,17.75 0,25.71 0,7.93 0,16.54 0,25.81 0,9.27 0,19.87 0,31.8 0,11.92 0,26.48 0,43.7 0,0.52 0,1.07 0,1.59 0,0.53 0,1.05 0,1.6l0 52.04c0,17.49 3.43,30.06 10.18,37.75 6.91,7.67 18.03,11.52 33.25,11.52 5.57,0 9.81,1.99 12.98,5.96 3.19,3.98 4.77,8.75 4.77,14.43l0 55.37c0,7.01 -1.84,12.32 -5.69,16.15 -3.84,3.85 -9.27,5.84 -16.15,5.84zm171.65 -141.46c5.57,8.74 12.58,16.3 21.06,22.66 8.47,6.34 17.21,11.52 26.08,15.63 8.88,4.09 17.36,7.14 25.44,9 8.07,1.86 14.43,2.78 19.2,2.78 7.42,0 16.17,-0.79 26.22,-2.38 10.08,-1.6 19.61,-4.51 28.48,-8.62 8.88,-4.1 16.42,-9.66 22.65,-16.68 6.23,-7.03 9.27,-16.03 9.27,-26.9 0,-10.58 -2.39,-19.19 -7.28,-25.81 -4.9,-6.63 -11.52,-12.2 -19.87,-16.57 -8.35,-4.37 -17.88,-8.07 -28.61,-10.99 -10.73,-2.91 -22.12,-6.08 -34.04,-9.53 -27.82,-7.42 -51.51,-16.29 -71.12,-26.89 -19.6,-10.47 -35.63,-22.38 -48.22,-36.02 -12.57,-13.51 -21.85,-28.35 -27.67,-44.5 -5.83,-16.16 -8.74,-33.91 -8.74,-52.99 0,-21.46 4.24,-41.18 12.72,-58.93 8.61,-17.74 20.52,-32.98 35.89,-45.7 15.5,-12.85 34.03,-22.64 55.63,-29.66 21.57,-7.02 45.55,-10.6 71.78,-10.6 18.53,0 35.1,1.59 49.66,4.9 14.58,3.32 28.08,8.35 40.54,14.97 12.44,6.62 24.22,14.97 35.22,25.03 10.99,10.07 22.12,21.85 33.51,35.36 3.97,4.77 5.96,9.4 5.96,13.9 0,4.77 -2.64,9.27 -7.94,13.51 -3.97,3.19 -8.61,7.17 -14.05,11.93 -5.42,4.77 -10.86,9.4 -16.15,13.91 -5.29,4.5 -10.34,8.34 -15.1,11.52 -4.77,3.18 -8.75,4.76 -11.92,4.76 -5.83,0 -11.52,-3.43 -17.09,-10.32 -5.82,-6.88 -11.65,-12.98 -17.48,-18.14 -5.82,-5.18 -11.92,-9.42 -18.28,-12.72 -6.36,-3.32 -13.24,-5.83 -20.65,-7.56 -7.43,-1.71 -15.5,-2.51 -24.24,-2.51 -7.15,0 -14.58,1.06 -22.39,3.18 -7.82,2.12 -14.97,5.3 -21.46,9.54 -6.49,4.23 -11.91,9.26 -16.28,15.23 -4.38,5.96 -6.63,12.72 -6.63,20.13 0,8.48 2.65,15.63 8.09,21.59 5.42,5.95 12.31,11.13 20.66,15.5 8.34,4.37 17.35,8.07 27.14,10.98 9.8,2.92 18.95,5.57 27.41,7.95 24.38,6.89 46.63,14.84 67.02,23.85 20.41,9 37.88,19.86 52.59,32.7 14.71,12.85 26.09,27.95 34.29,45.31 8.22,17.35 12.33,37.74 12.33,61.05 0,24.63 -4.9,46.62 -14.71,66.09 -9.79,19.48 -23.3,36.03 -40.66,49.53 -17.35,13.51 -37.87,23.85 -61.59,31 -23.69,7.15 -49.53,10.73 -77.33,10.73 -16.7,0 -33.64,-1.73 -50.87,-5.29 -17.22,-3.59 -33.64,-9.16 -49.39,-16.57 -15.76,-7.54 -30.34,-17.09 -43.72,-28.74 -13.37,-11.78 -24.63,-25.55 -33.64,-41.58 -3.97,-6.62 -5.96,-12.59 -5.96,-17.89 0,-3.44 0.93,-6.48 2.64,-9.01 1.73,-2.51 3.98,-4.9 6.91,-7.28l44.5 -34.16c3.96,-2.39 7.54,-3.59 10.71,-3.59 3.72,0 7.02,1.2 9.94,3.72 2.91,2.51 6.1,5.96 9.54,10.19z"/>
   </g>
  </g>
 </g>
</svg>
