<?xml version="1.0" encoding="UTF-8"?>
<!DOCTYPE svg PUBLIC "-//W3C//DTD SVG 1.1//EN" "http://www.w3.org/Graphics/SVG/1.1/DTD/svg11.dtd">
<!-- Creator: CorelDRAW 2020 (64 Bit) -->
<svg xmlns="http://www.w3.org/2000/svg" xml:space="preserve" width="180mm" height="40mm" version="1.1" style="shape-rendering:geometricPrecision; text-rendering:geometricPrecision; image-rendering:optimizeQuality; fill-rule:evenodd; clip-rule:evenodd"
viewBox="0 0 18000 4000"
 xmlns:xlink="http://www.w3.org/1999/xlink"
 xmlns:xodm="http://www.corel.com/coreldraw/odm/2003">
 <defs>
  <style type="text/css">
   <![CDATA[
    .fil0 {fill:#FEFEFE;fill-rule:nonzero}
   ]]>
  </style>
 </defs>
 <g id="Camada_x0020_1">
  <metadata id="CorelCorpID_0Corel-Layer"/>
  <path class="fil0" d="M478.07 1777.33l41.86 0 0 219.75c0,355.8 -156.96,491.84 -156.96,779.61 0,230.22 172.66,308.7 507.52,308.7 334.87,0 512.77,-78.48 512.77,-308.7 0,-287.77 -162.2,-423.81 -162.2,-779.61l0 -219.75 167.43 0c125.57,0 219.75,-99.41 219.75,-219.76 0,-120.34 -94.18,-219.75 -219.75,-219.75l-151.74 0c31.4,-303.47 125.58,-674.96 308.71,-674.96 130.8,0 198.82,78.48 230.22,361.02 47.09,392.42 1004.59,277.31 868.55,-120.34 -99.41,-303.47 -586.01,-507.53 -983.66,-507.53 -528.46,0 -1025.53,319.17 -1124.94,941.81l-57.56 0c-120.34,0 -219.75,99.41 -219.75,219.75 0,120.35 99.41,219.76 219.75,219.76zm2265.57 1308.06c575.55,0 1041.22,-387.18 1041.22,-873.78 0,-481.37 -465.67,-873.79 -1041.22,-873.79 -575.55,0 -1041.22,392.42 -1041.22,873.79 0,486.6 465.67,873.78 1041.22,873.78zm0 -1485.96c120.34,0 214.52,277.31 214.52,612.18 0,340.09 -94.18,612.17 -214.52,612.17 -115.11,0 -209.29,-272.08 -209.29,-612.17 0,-334.87 94.18,-612.18 209.29,-612.18zm2197.55 1485.96c575.55,0 1041.22,-387.18 1041.22,-873.78 0,-481.37 -465.67,-873.79 -1041.22,-873.79 -575.55,0 -1041.22,392.42 -1041.22,873.79 0,486.6 465.67,873.78 1041.22,873.78zm0 -1485.96c120.34,0 214.52,277.31 214.52,612.18 0,340.09 -94.18,612.17 -214.52,612.17 -115.11,0 -209.29,-272.08 -209.29,-612.17 0,-334.87 94.18,-612.18 209.29,-612.18zm2129.53 1485.96c188.36,0 366.26,-47.09 517.99,-130.8 73.26,94.18 230.22,130.8 455.21,130.8 334.87,0 577.83,-87.89 512.76,-308.7 -66.52,-225.72 -289.38,-370.78 -204.1,-927.34l55.13 -359.8c53.89,-351.68 148.97,-491.83 148.97,-779.6 0,-230.22 -177.89,-313.94 -512.76,-313.94 -334.86,0 -512.76,83.72 -512.76,313.94 0,287.77 162.2,423.81 162.2,779.6l0 47.09c-167.43,-125.57 -387.19,-198.82 -622.64,-198.82 -538.92,0 -973.2,392.42 -973.2,873.79 0,486.6 434.28,873.78 973.2,873.78zm251.15 -1444.1c204.06,0 371.49,256.38 371.49,570.32 0,313.93 -167.43,570.31 -371.49,570.31 -198.83,0 -366.26,-256.38 -366.26,-570.31 0,-313.94 167.43,-570.32 366.26,-570.32z"/>
  <path class="fil0" d="M10038.65 3064.63c401.94,0 752.36,-190.67 917.26,-474.09 103.07,-180.36 -190.67,-231.89 -257.66,-118.52 -149.44,267.96 -834.81,51.53 -834.81,-520.47 0,-195.82 82.45,-350.42 175.21,-350.42 97.9,0 139.13,200.98 159.74,468.94 30.92,381.34 948.19,216.43 798.75,-170.06 -123.68,-334.96 -520.47,-556.54 -958.49,-556.54 -566.86,0 -1025.49,386.49 -1025.49,860.58 0,479.25 458.63,860.58 1025.49,860.58zm1829.38 0c278.27,0 468.93,-82.45 602.92,-185.51 77.29,118.53 211.28,185.51 360.72,185.51 200.97,0 458.63,-139.13 458.63,-329.8 0,-159.75 -190.66,-170.06 -190.66,-345.26l0 -309.19c0,-453.48 -535.93,-736.91 -958.5,-736.91 -371.03,0 -958.49,92.75 -886.34,412.26 36.07,164.9 273.11,247.35 448.32,190.66 211.29,-77.3 164.91,-345.26 376.19,-345.26 170.05,0 278.27,190.67 314.35,443.17 -443.18,-211.28 -1375.91,97.92 -1288.3,577.16 66.99,365.88 453.47,443.17 762.67,443.17zm541.08 -736.9l0 190.67c-185.52,164.9 -427.72,242.19 -474.09,5.15 -25.77,-164.9 128.83,-350.42 474.09,-195.82zm1040.94 432.86c0,226.75 175.21,304.04 505.02,304.04 329.8,0 505.01,-77.29 505.01,-304.04 0,-221.58 -159.75,-247.34 -159.75,-592.61 0,-103.07 30.92,-293.73 133.99,-293.73 159.75,0 371.03,314.35 597.77,314.35 180.35,0 360.72,-149.45 412.25,-412.26 41.23,-211.29 -72.14,-432.87 -283.42,-432.87 -304.04,0 -484.4,231.89 -705.99,267.96 0,-10.3 5.15,-25.75 5.15,-41.22 0,-494.7 -1046.09,-72.14 -1046.09,231.9 0,195.82 195.82,252.5 195.82,474.09 0,304.04 -159.76,283.43 -159.76,484.39zm3091.92 304.04c401.94,0 752.36,-190.67 917.27,-474.09 103.06,-180.36 -190.68,-231.89 -257.67,-118.52 -72.14,128.83 -288.57,149.44 -494.7,72.14 123.68,-257.66 783.28,-170.05 783.28,-561.7 0,-304.03 -422.56,-638.99 -948.18,-638.99 -566.85,0 -1025.49,386.49 -1025.49,860.58 0,479.25 458.64,860.58 1025.49,860.58zm195.82 -1360.44c0,164.9 -211.28,474.09 -237.05,716.3 -128.83,-103.07 -221.59,-262.82 -221.59,-468.94 0,-422.57 458.64,-438.02 458.64,-247.36z"/>
 </g>
</svg>
